<svg xmlns="http://www.w3.org/2000/svg" xmlns:xlink="http://www.w3.org/1999/xlink" width="500" zoomAndPan="magnify" viewBox="0 0 375 374.999991" height="500" preserveAspectRatio="xMidYMid meet" version="1.0"><defs><clipPath id="bc85e6f291"><path d="M 17 18 L 357.421875 18 L 357.421875 343 L 17 343 Z M 17 18 " clip-rule="nonzero"/></clipPath><clipPath id="e2ff400daf"><path d="M 195.597656 24.277344 L 223.667969 110.859375 C 228.492188 125.746094 242.363281 135.828125 258.011719 135.828125 L 348.75 135.828125 C 352.449219 135.828125 355.730469 138.210938 356.875 141.730469 C 358.019531 145.246094 356.769531 149.101562 353.777344 151.28125 L 280.339844 204.753906 C 267.679688 213.972656 262.386719 230.28125 267.214844 245.175781 L 295.285156 331.757812 C 296.425781 335.269531 295.171875 339.117188 292.183594 341.285156 C 289.191406 343.453125 285.144531 343.453125 282.160156 341.277344 L 208.722656 287.804688 C 196.074219 278.59375 178.925781 278.59375 166.277344 287.804688 L 92.839844 341.277344 C 89.855469 343.453125 85.808594 343.453125 82.816406 341.285156 C 79.828125 339.117188 78.574219 335.269531 79.714844 331.757812 L 107.785156 245.175781 C 112.613281 230.28125 107.320312 213.972656 94.660156 204.753906 L 21.222656 151.28125 C 18.230469 149.101562 16.980469 145.246094 18.125 141.730469 C 19.269531 138.210938 22.550781 135.828125 26.25 135.828125 L 116.988281 135.828125 C 132.636719 135.828125 146.507812 125.746094 151.332031 110.859375 L 179.402344 24.277344 C 180.542969 20.769531 183.8125 18.390625 187.5 18.390625 C 191.1875 18.390625 194.457031 20.769531 195.597656 24.277344 Z M 195.597656 24.277344 " clip-rule="nonzero"/></clipPath></defs><g clip-path="url(#bc85e6f291)"><g clip-path="url(#e2ff400daf)"><path fill="#071952" d="M 0 -0.691406 L 375.570312 -0.691406 L 375.570312 356.730469 L 0 356.730469 Z M 0 -0.691406 " fill-opacity="1" fill-rule="nonzero"/></g></g></svg>