<svg xmlns="http://www.w3.org/2000/svg" xmlns:xlink="http://www.w3.org/1999/xlink" width="500" zoomAndPan="magnify" viewBox="0 0 375 374.999991" height="500" preserveAspectRatio="xMidYMid meet" version="1.0"><defs><clipPath id="8d4c583a60"><path d="M 11.484375 0 L 363.234375 0 L 363.234375 375 L 11.484375 375 Z M 11.484375 0 " clip-rule="nonzero"/></clipPath></defs><g clip-path="url(#8d4c583a60)"><path fill="#071952" d="M 279.507812 224.242188 L 293.589844 225.800781 C 298.183594 226.300781 302.367188 222.96875 302.875 218.339844 C 303.386719 213.714844 300.019531 209.546875 295.425781 209.03125 L 281.347656 207.488281 C 279.203125 207.230469 276.90625 207.894531 275.171875 209.304688 C 269.253906 214.101562 272.214844 223.460938 279.507812 224.242188 Z M 269.304688 251.417969 C 269.253906 252.628906 268.03125 255.363281 267.625 256.425781 C 263.132812 267.667969 263.644531 270.195312 267.519531 272.066406 C 270.429688 273.464844 273.898438 272.234375 275.277344 269.34375 L 280.429688 258.664062 C 282.519531 254.367188 283.539062 250.523438 283.949219 245.773438 L 284.765625 236.445312 C 280.070312 235.925781 275.582031 235.828125 271.296875 233.640625 Z M 288.792969 139.511719 L 302.875 141.058594 C 307.519531 141.574219 311.652344 138.226562 312.160156 133.59375 C 312.683594 128.921875 309.3125 124.796875 304.710938 124.292969 L 290.734375 122.738281 C 288.4375 122.503906 286.296875 123.125 284.511719 124.558594 C 278.539062 129.367188 281.550781 138.710938 288.792969 139.511719 Z M 282.621094 196.003906 L 296.703125 197.550781 C 301.292969 198.058594 305.476562 194.699219 305.988281 190.085938 C 306.496094 185.46875 303.128906 181.292969 298.539062 180.792969 L 284.457031 179.234375 C 282.265625 178.984375 280.070312 179.632812 278.285156 181.054688 C 272.417969 185.730469 275.222656 195.199219 282.621094 196.003906 Z M 285.734375 167.765625 L 299.761719 169.3125 C 304.40625 169.808594 308.589844 166.476562 309.097656 161.847656 C 309.558594 157.15625 306.191406 153.03125 301.652344 152.53125 L 287.570312 150.996094 C 285.425781 150.726562 283.183594 151.40625 281.398438 152.8125 C 275.53125 157.464844 278.335938 166.941406 285.734375 167.765625 Z M 181.554688 141.179688 C 180.894531 137.683594 183.648438 134.355469 187.21875 134.355469 L 215.074219 134.355469 C 220.023438 134.355469 224.003906 130.355469 224.003906 125.4375 L 224.003906 123.886719 C 224.003906 118.96875 220.023438 114.953125 215.074219 114.953125 L 180.128906 114.953125 C 178.238281 114.953125 176.710938 115.40625 175.128906 116.464844 L 134.210938 143.753906 C 126.457031 148.941406 121.457031 155.839844 119.0625 164.875 L 110.285156 197.785156 C 108.296875 205.214844 105.03125 211.355469 99.980469 217.144531 L 49.726562 274.285156 L 49.523438 273.996094 C 32.789062 248.25 23.046875 217.492188 23.046875 184.445312 C 23.046875 119.777344 60.519531 62.273438 117.734375 35.445312 C 121.816406 40.765625 128.191406 44.199219 135.386719 44.199219 C 147.578125 44.199219 157.476562 34.269531 157.476562 22.078125 C 157.476562 9.894531 147.578125 -0.0351562 135.386719 -0.0351562 C 122.175781 -0.0351562 111.863281 11.441406 113.398438 24.769531 C 51.855469 53.414062 11.515625 115.171875 11.515625 184.445312 C 11.515625 254.640625 53.035156 317.332031 116.203125 345.367188 L 120.847656 334.863281 L 143.292969 289 C 146.867188 283.417969 152.121094 280.648438 156.761719 278.214844 C 160.539062 276.203125 163.855469 274.457031 165.742188 271.453125 C 171.355469 262.675781 173.90625 249.507812 177.273438 238.914062 C 180.945312 227.769531 184.105469 154.695312 181.554688 141.179688 Z M 363.484375 184.445312 C 363.484375 265.855469 307.765625 335.863281 230.226562 355.203125 C 229.054688 366.296875 219.613281 374.953125 208.238281 374.953125 C 196.046875 374.953125 186.097656 365.03125 186.097656 352.84375 C 186.097656 340.652344 196.046875 330.726562 208.238281 330.726562 C 217.167969 330.726562 224.921875 336.09375 228.441406 343.792969 C 300.445312 325.347656 351.953125 260.226562 351.953125 184.445312 C 351.953125 141.710938 335.628906 102.265625 308.230469 72.769531 C 302.261719 81.0625 296.957031 92.082031 296.191406 101 L 295.324219 111.632812 L 291.957031 111.277344 C 280.988281 110.066406 271.089844 118.039062 269.917969 128.941406 C 269.355469 134.234375 270.835938 139.453125 274.203125 143.621094 C 274.203125 143.644531 274.253906 143.691406 274.304688 143.722656 C 274.253906 143.753906 274.203125 143.769531 274.152344 143.800781 C 270.019531 147.144531 267.417969 151.894531 266.804688 157.191406 C 266.246094 162.488281 267.773438 167.691406 271.089844 171.867188 C 271.140625 171.894531 271.140625 171.929688 271.191406 171.960938 C 271.140625 171.992188 271.089844 172.023438 271.089844 172.039062 C 262.316406 179.027344 261.039062 191.617188 268.082031 200.214844 C 268.03125 200.25 267.980469 200.261719 267.980469 200.296875 C 263.796875 203.644531 261.195312 208.390625 260.632812 213.6875 C 260.328125 216.140625 260.480469 218.589844 261.144531 220.925781 L 257.929688 249.148438 L 248.234375 269.34375 C 246.859375 272.179688 243.339844 273.460938 240.429688 272.066406 C 238.339844 271.03125 237.777344 270.015625 237.574219 269.351562 C 236.859375 267.167969 237.929688 263.699219 239.460938 260.253906 L 244.816406 249.476562 L 245.125 247.921875 L 247.726562 210.136719 C 247.929688 206.957031 245.53125 204.203125 242.367188 203.988281 C 239.152344 203.765625 236.449219 206.167969 236.195312 209.351562 L 233.695312 246.078125 L 232.316406 248.710938 C 231.144531 250.859375 229.917969 253.1875 228.847656 255.605469 L 219.359375 274.535156 C 215.992188 281.347656 206.757812 279.164062 205.277344 274.402344 C 204.5625 272.28125 205.023438 269.414062 205.992188 266.332031 L 215.789062 246.410156 L 216.246094 245.011719 L 217.472656 209.9375 C 217.574219 206.746094 215.074219 204.082031 211.910156 203.980469 C 208.746094 203.859375 205.992188 206.367188 205.941406 209.546875 L 204.871094 242.441406 C 204.15625 243.734375 203.390625 245.195312 202.523438 246.710938 C 199.972656 251.421875 197.117188 256.703125 195.277344 262.058594 L 188.699219 275.597656 C 186.300781 280.476562 179.617188 281.601562 175.738281 277.203125 C 182.066406 267.125 184.71875 253.730469 188.339844 242.441406 C 191.960938 231.089844 195.023438 169.777344 193.59375 145.902344 L 215.074219 145.902344 C 226.347656 145.902344 235.582031 136.710938 235.582031 125.4375 L 235.582031 123.886719 C 235.582031 112.597656 226.347656 103.414062 215.074219 103.414062 L 180.128906 103.414062 C 172.832031 103.414062 169.3125 106.453125 163.699219 110.203125 L 172.21875 88.824219 C 175.078125 81.558594 179.515625 76.164062 185.996094 71.835938 L 201.199219 61.703125 C 207.878906 57.257812 212.777344 51.949219 216.65625 44.964844 L 228.238281 24.101562 L 232.421875 14.226562 L 233.339844 14.480469 C 270.273438 24.3125 302.363281 46.046875 325.476562 75.160156 C 349.300781 105.195312 363.484375 143.160156 363.484375 184.445312 Z M 363.484375 184.445312 " fill-opacity="1" fill-rule="evenodd"/></g></svg>