<svg xmlns="http://www.w3.org/2000/svg" xmlns:xlink="http://www.w3.org/1999/xlink" width="500" zoomAndPan="magnify" viewBox="0 0 375 374.999991" height="500" preserveAspectRatio="xMidYMid meet" version="1.0"><defs><clipPath id="2389b83fd5"><path d="M 187.5 0 C 83.945312 0 0 83.945312 0 187.5 C 0 291.054688 83.945312 375 187.5 375 C 291.054688 375 375 291.054688 375 187.5 C 375 83.945312 291.054688 0 187.5 0 Z M 187.5 0 " clip-rule="nonzero"/></clipPath><clipPath id="4cf8ca4200"><path d="M 63.417969 95 L 279 95 L 279 270 L 63.417969 270 Z M 63.417969 95 " clip-rule="nonzero"/></clipPath><clipPath id="dcf5df3e8d"><path d="M 131 282 L 181 282 L 181 332.417969 L 131 332.417969 Z M 131 282 " clip-rule="nonzero"/></clipPath><clipPath id="a39abf8c96"><path d="M 211 282 L 261 282 L 261 332.417969 L 211 332.417969 Z M 211 282 " clip-rule="nonzero"/></clipPath><clipPath id="bd4a0da1c4"><path d="M 211 69.167969 L 314.476562 69.167969 L 314.476562 172 L 211 172 Z M 211 69.167969 " clip-rule="nonzero"/></clipPath></defs><g clip-path="url(#2389b83fd5)"><rect x="-37.5" width="450" fill="#071952" y="-37.499999" height="449.999989" fill-opacity="1"/><path stroke-linecap="butt" transform="matrix(0.75, 0, 0, 0.75, 0.0000045, 0)" fill="none" stroke-linejoin="miter" d="M 249.999994 0 C 111.927078 0 -0.000006 111.927084 -0.000006 250 C -0.000006 388.072917 111.927078 500.000001 249.999994 500.000001 C 388.072911 500.000001 499.999995 388.072917 499.999995 250 C 499.999995 111.927084 388.072911 0 249.999994 0 Z M 249.999994 0 " stroke="#071952" stroke-width="2" stroke-opacity="1" stroke-miterlimit="4"/></g><g clip-path="url(#4cf8ca4200)"><path fill="#fcfffe" d="M 137.8125 233.859375 L 253.859375 233.859375 C 254.527344 233.855469 255.183594 233.753906 255.820312 233.558594 C 256.460938 233.359375 257.058594 233.074219 257.613281 232.703125 C 258.167969 232.328125 258.660156 231.886719 259.085938 231.367188 C 259.507812 230.851562 259.851562 230.28125 260.105469 229.664062 L 278.851562 182.710938 C 273.589844 184.117188 268.234375 184.804688 262.785156 184.765625 C 260.898438 184.769531 259.015625 184.695312 257.136719 184.535156 C 255.261719 184.375 253.390625 184.132812 251.535156 183.8125 C 249.675781 183.488281 247.835938 183.082031 246.015625 182.597656 C 244.191406 182.113281 242.394531 181.550781 240.621094 180.90625 C 238.851562 180.261719 237.109375 179.542969 235.398438 178.746094 C 233.691406 177.949219 232.019531 177.082031 230.386719 176.136719 C 228.753906 175.195312 227.167969 174.179688 225.621094 173.097656 C 224.078125 172.015625 222.585938 170.867188 221.144531 169.652344 C 219.699219 168.4375 218.3125 167.164062 216.984375 165.828125 C 215.652344 164.492188 214.382812 163.101562 213.175781 161.652344 C 211.96875 160.207031 210.824219 158.707031 209.746094 157.160156 C 208.671875 155.613281 207.664062 154.019531 206.726562 152.382812 C 205.792969 150.746094 204.929688 149.070312 204.140625 147.359375 C 203.351562 145.648438 202.636719 143.902344 202 142.128906 C 201.363281 140.351562 200.808594 138.554688 200.328125 136.730469 C 199.851562 134.90625 199.457031 133.066406 199.140625 131.207031 L 110.664062 131.207031 C 110.664062 131.207031 99.484375 99.941406 99.390625 99.785156 C 99.128906 99.167969 98.789062 98.601562 98.367188 98.082031 C 97.945312 97.5625 97.460938 97.113281 96.910156 96.734375 C 96.359375 96.355469 95.769531 96.0625 95.132812 95.851562 C 94.5 95.640625 93.847656 95.523438 93.179688 95.5 L 57.476562 95.5 C 57.035156 95.5 56.601562 95.542969 56.167969 95.628906 C 55.738281 95.714844 55.320312 95.839844 54.914062 96.007812 C 54.507812 96.175781 54.121094 96.382812 53.757812 96.628906 C 53.390625 96.871094 53.050781 97.148438 52.742188 97.460938 C 52.429688 97.769531 52.152344 98.109375 51.910156 98.476562 C 51.664062 98.839844 51.457031 99.226562 51.289062 99.632812 C 51.121094 100.039062 50.996094 100.457031 50.910156 100.886719 C 50.824219 101.320312 50.78125 101.753906 50.78125 102.195312 C 50.78125 102.632812 50.824219 103.070312 50.910156 103.5 C 50.996094 103.933594 51.121094 104.351562 51.289062 104.757812 C 51.457031 105.164062 51.664062 105.546875 51.910156 105.914062 C 52.152344 106.28125 52.429688 106.617188 52.742188 106.929688 C 53.050781 107.238281 53.390625 107.515625 53.757812 107.761719 C 54.121094 108.003906 54.507812 108.210938 54.914062 108.378906 C 55.320312 108.546875 55.738281 108.675781 56.167969 108.761719 C 56.601562 108.847656 57.035156 108.890625 57.476562 108.890625 L 88.46875 108.890625 L 128.90625 222.203125 C 127.761719 222.648438 126.65625 223.175781 125.59375 223.785156 C 124.53125 224.394531 123.515625 225.082031 122.554688 225.84375 C 121.59375 226.605469 120.695312 227.4375 119.859375 228.332031 C 119.023438 229.230469 118.257812 230.183594 117.5625 231.195312 C 116.871094 232.207031 116.257812 233.265625 115.722656 234.371094 C 115.1875 235.476562 114.738281 236.613281 114.371094 237.785156 C 114.007812 238.957031 113.734375 240.148438 113.546875 241.359375 C 113.363281 242.574219 113.269531 243.792969 113.265625 245.019531 C 113.277344 245.820312 113.328125 246.617188 113.414062 247.414062 C 113.503906 248.210938 113.628906 249 113.796875 249.785156 C 113.960938 250.566406 114.160156 251.339844 114.402344 252.105469 C 114.640625 252.871094 114.917969 253.621094 115.226562 254.359375 C 115.539062 255.097656 115.886719 255.816406 116.265625 256.519531 C 116.648438 257.226562 117.0625 257.910156 117.511719 258.574219 C 117.957031 259.238281 118.4375 259.878906 118.945312 260.496094 C 119.453125 261.117188 119.992188 261.707031 120.558594 262.273438 C 121.125 262.839844 121.714844 263.378906 122.335938 263.886719 C 122.953125 264.398438 123.59375 264.875 124.257812 265.324219 C 124.921875 265.769531 125.605469 266.183594 126.3125 266.566406 C 127.015625 266.945312 127.738281 267.292969 128.472656 267.605469 C 129.210938 267.917969 129.964844 268.191406 130.726562 268.429688 C 131.492188 268.671875 132.265625 268.871094 133.050781 269.039062 C 133.832031 269.203125 134.621094 269.328125 135.417969 269.417969 C 136.214844 269.503906 137.011719 269.554688 137.8125 269.566406 L 253.859375 269.566406 C 254.296875 269.566406 254.734375 269.523438 255.164062 269.4375 C 255.597656 269.351562 256.015625 269.226562 256.421875 269.058594 C 256.828125 268.886719 257.210938 268.683594 257.578125 268.4375 C 257.945312 268.195312 258.28125 267.917969 258.59375 267.605469 C 258.902344 267.292969 259.179688 266.957031 259.425781 266.589844 C 259.667969 266.226562 259.875 265.839844 260.042969 265.433594 C 260.210938 265.027344 260.339844 264.609375 260.425781 264.179688 C 260.511719 263.746094 260.554688 263.3125 260.554688 262.871094 C 260.554688 262.433594 260.511719 261.996094 260.425781 261.566406 C 260.339844 261.132812 260.210938 260.714844 260.042969 260.308594 C 259.875 259.902344 259.667969 259.519531 259.425781 259.152344 C 259.179688 258.785156 258.902344 258.449219 258.59375 258.136719 C 258.28125 257.828125 257.945312 257.550781 257.578125 257.304688 C 257.210938 257.0625 256.828125 256.855469 256.421875 256.6875 C 256.015625 256.519531 255.597656 256.390625 255.164062 256.304688 C 254.734375 256.21875 254.296875 256.175781 253.859375 256.175781 L 137.8125 256.175781 C 137.085938 256.164062 136.363281 256.085938 135.648438 255.933594 C 134.933594 255.785156 134.242188 255.566406 133.570312 255.28125 C 132.898438 255 132.261719 254.652344 131.65625 254.246094 C 131.050781 253.835938 130.488281 253.375 129.972656 252.859375 C 129.457031 252.34375 128.996094 251.78125 128.589844 251.179688 C 128.179688 250.574219 127.835938 249.933594 127.550781 249.261719 C 127.265625 248.589844 127.046875 247.898438 126.898438 247.183594 C 126.746094 246.46875 126.667969 245.75 126.65625 245.019531 C 126.65625 244.285156 126.730469 243.5625 126.871094 242.84375 C 127.015625 242.125 127.226562 241.425781 127.507812 240.75 C 127.789062 240.074219 128.132812 239.429688 128.539062 238.820312 C 128.945312 238.210938 129.410156 237.648438 129.925781 237.132812 C 130.445312 236.613281 131.007812 236.152344 131.617188 235.742188 C 132.226562 235.335938 132.867188 234.992188 133.546875 234.710938 C 134.222656 234.433594 134.917969 234.21875 135.636719 234.078125 C 136.355469 233.933594 137.082031 233.859375 137.8125 233.859375 Z M 137.8125 233.859375 " fill-opacity="1" fill-rule="nonzero"/></g><g clip-path="url(#dcf5df3e8d)"><path fill="#fcfffe" d="M 180.214844 307.503906 C 180.214844 308.308594 180.175781 309.109375 180.097656 309.910156 C 180.019531 310.710938 179.898438 311.503906 179.742188 312.292969 C 179.585938 313.082031 179.390625 313.859375 179.15625 314.628906 C 178.925781 315.398438 178.652344 316.15625 178.347656 316.898438 C 178.039062 317.640625 177.695312 318.367188 177.316406 319.074219 C 176.9375 319.785156 176.523438 320.472656 176.078125 321.140625 C 175.632812 321.8125 175.152344 322.457031 174.644531 323.078125 C 174.132812 323.699219 173.59375 324.292969 173.023438 324.863281 C 172.457031 325.429688 171.863281 325.96875 171.238281 326.480469 C 170.617188 326.988281 169.972656 327.46875 169.304688 327.914062 C 168.636719 328.363281 167.949219 328.773438 167.238281 329.152344 C 166.53125 329.53125 165.804688 329.875 165.0625 330.183594 C 164.320312 330.492188 163.5625 330.761719 162.792969 330.996094 C 162.023438 331.226562 161.246094 331.421875 160.457031 331.582031 C 159.667969 331.738281 158.875 331.855469 158.074219 331.933594 C 157.273438 332.011719 156.472656 332.050781 155.667969 332.050781 C 154.863281 332.050781 154.0625 332.011719 153.261719 331.933594 C 152.460938 331.855469 151.667969 331.738281 150.878906 331.582031 C 150.089844 331.421875 149.308594 331.226562 148.542969 330.996094 C 147.773438 330.761719 147.015625 330.492188 146.273438 330.183594 C 145.53125 329.875 144.804688 329.53125 144.09375 329.152344 C 143.386719 328.773438 142.699219 328.363281 142.027344 327.914062 C 141.359375 327.46875 140.714844 326.988281 140.09375 326.480469 C 139.472656 325.96875 138.878906 325.429688 138.308594 324.863281 C 137.742188 324.292969 137.203125 323.699219 136.691406 323.078125 C 136.179688 322.457031 135.703125 321.8125 135.257812 321.140625 C 134.808594 320.472656 134.398438 319.785156 134.019531 319.074219 C 133.640625 318.367188 133.296875 317.640625 132.988281 316.898438 C 132.679688 316.15625 132.410156 315.398438 132.175781 314.628906 C 131.941406 313.859375 131.746094 313.082031 131.589844 312.292969 C 131.433594 311.503906 131.316406 310.710938 131.238281 309.910156 C 131.160156 309.109375 131.121094 308.308594 131.121094 307.503906 C 131.121094 306.699219 131.160156 305.898438 131.238281 305.097656 C 131.316406 304.296875 131.433594 303.503906 131.589844 302.714844 C 131.746094 301.925781 131.941406 301.148438 132.175781 300.378906 C 132.410156 299.609375 132.679688 298.851562 132.988281 298.109375 C 133.296875 297.367188 133.640625 296.640625 134.019531 295.933594 C 134.398438 295.222656 134.808594 294.535156 135.257812 293.867188 C 135.703125 293.199219 136.179688 292.550781 136.691406 291.929688 C 137.203125 291.308594 137.742188 290.714844 138.308594 290.144531 C 138.878906 289.578125 139.472656 289.039062 140.09375 288.527344 C 140.714844 288.019531 141.359375 287.539062 142.027344 287.09375 C 142.699219 286.648438 143.386719 286.234375 144.09375 285.855469 C 144.804688 285.476562 145.53125 285.132812 146.273438 284.824219 C 147.015625 284.515625 147.773438 284.246094 148.542969 284.011719 C 149.308594 283.78125 150.089844 283.585938 150.878906 283.429688 C 151.667969 283.269531 152.460938 283.152344 153.261719 283.074219 C 154.0625 282.996094 154.863281 282.957031 155.667969 282.957031 C 156.472656 282.957031 157.273438 282.996094 158.074219 283.074219 C 158.875 283.152344 159.667969 283.269531 160.457031 283.429688 C 161.246094 283.585938 162.023438 283.78125 162.792969 284.011719 C 163.5625 284.246094 164.320312 284.515625 165.0625 284.824219 C 165.804688 285.132812 166.53125 285.476562 167.238281 285.855469 C 167.949219 286.234375 168.636719 286.648438 169.304688 287.09375 C 169.972656 287.539062 170.617188 288.019531 171.238281 288.527344 C 171.863281 289.039062 172.457031 289.578125 173.023438 290.144531 C 173.59375 290.714844 174.132812 291.308594 174.644531 291.929688 C 175.152344 292.550781 175.632812 293.199219 176.078125 293.867188 C 176.523438 294.535156 176.9375 295.222656 177.316406 295.933594 C 177.695312 296.640625 178.039062 297.367188 178.347656 298.109375 C 178.652344 298.851562 178.925781 299.609375 179.15625 300.378906 C 179.390625 301.148438 179.585938 301.925781 179.742188 302.714844 C 179.898438 303.503906 180.019531 304.296875 180.097656 305.097656 C 180.175781 305.898438 180.214844 306.699219 180.214844 307.503906 Z M 180.214844 307.503906 " fill-opacity="1" fill-rule="nonzero"/></g><g clip-path="url(#a39abf8c96)"><path fill="#fcfffe" d="M 260.554688 307.503906 C 260.554688 308.308594 260.515625 309.109375 260.433594 309.910156 C 260.355469 310.710938 260.238281 311.503906 260.082031 312.292969 C 259.925781 313.082031 259.730469 313.859375 259.496094 314.628906 C 259.261719 315.398438 258.992188 316.15625 258.683594 316.898438 C 258.378906 317.640625 258.035156 318.367188 257.65625 319.074219 C 257.277344 319.785156 256.863281 320.472656 256.417969 321.140625 C 255.96875 321.8125 255.492188 322.457031 254.980469 323.078125 C 254.472656 323.699219 253.933594 324.292969 253.363281 324.863281 C 252.796875 325.429688 252.199219 325.96875 251.578125 326.480469 C 250.957031 326.988281 250.3125 327.46875 249.644531 327.914062 C 248.976562 328.363281 248.285156 328.773438 247.578125 329.152344 C 246.867188 329.53125 246.140625 329.875 245.398438 330.183594 C 244.65625 330.492188 243.902344 330.761719 243.132812 330.996094 C 242.363281 331.226562 241.582031 331.421875 240.792969 331.582031 C 240.007812 331.738281 239.210938 331.855469 238.410156 331.933594 C 237.613281 332.011719 236.808594 332.050781 236.003906 332.050781 C 235.203125 332.050781 234.398438 332.011719 233.597656 331.933594 C 232.800781 331.855469 232.003906 331.738281 231.214844 331.582031 C 230.429688 331.421875 229.648438 331.226562 228.878906 330.996094 C 228.109375 330.761719 227.355469 330.492188 226.613281 330.183594 C 225.867188 329.875 225.144531 329.53125 224.433594 329.152344 C 223.726562 328.773438 223.035156 328.363281 222.367188 327.914062 C 221.699219 327.46875 221.054688 326.988281 220.433594 326.480469 C 219.8125 325.96875 219.214844 325.429688 218.648438 324.863281 C 218.078125 324.292969 217.539062 323.699219 217.03125 323.078125 C 216.519531 322.457031 216.042969 321.8125 215.59375 321.140625 C 215.148438 320.472656 214.734375 319.785156 214.355469 319.074219 C 213.976562 318.367188 213.632812 317.640625 213.328125 316.898438 C 213.019531 316.15625 212.75 315.398438 212.515625 314.628906 C 212.28125 313.859375 212.085938 313.082031 211.929688 312.292969 C 211.773438 311.503906 211.65625 310.710938 211.574219 309.910156 C 211.496094 309.109375 211.457031 308.308594 211.457031 307.503906 C 211.457031 306.699219 211.496094 305.898438 211.574219 305.097656 C 211.65625 304.296875 211.773438 303.503906 211.929688 302.714844 C 212.085938 301.925781 212.28125 301.148438 212.515625 300.378906 C 212.75 299.609375 213.019531 298.851562 213.328125 298.109375 C 213.632812 297.367188 213.976562 296.640625 214.355469 295.933594 C 214.734375 295.222656 215.148438 294.535156 215.59375 293.867188 C 216.042969 293.199219 216.519531 292.550781 217.03125 291.929688 C 217.539062 291.308594 218.078125 290.714844 218.648438 290.144531 C 219.214844 289.578125 219.8125 289.039062 220.433594 288.527344 C 221.054688 288.019531 221.699219 287.539062 222.367188 287.09375 C 223.035156 286.648438 223.726562 286.234375 224.433594 285.855469 C 225.144531 285.476562 225.867188 285.132812 226.613281 284.824219 C 227.355469 284.515625 228.109375 284.246094 228.878906 284.011719 C 229.648438 283.78125 230.429688 283.585938 231.214844 283.429688 C 232.003906 283.269531 232.800781 283.152344 233.597656 283.074219 C 234.398438 282.996094 235.203125 282.957031 236.003906 282.957031 C 236.808594 282.957031 237.613281 282.996094 238.410156 283.074219 C 239.210938 283.152344 240.007812 283.269531 240.792969 283.429688 C 241.582031 283.585938 242.363281 283.78125 243.132812 284.011719 C 243.902344 284.246094 244.65625 284.515625 245.398438 284.824219 C 246.140625 285.132812 246.867188 285.476562 247.578125 285.855469 C 248.285156 286.234375 248.976562 286.648438 249.644531 287.09375 C 250.3125 287.539062 250.957031 288.019531 251.578125 288.527344 C 252.199219 289.039062 252.796875 289.578125 253.363281 290.144531 C 253.933594 290.714844 254.472656 291.308594 254.980469 291.929688 C 255.492188 292.550781 255.96875 293.199219 256.417969 293.867188 C 256.863281 294.535156 257.277344 295.222656 257.65625 295.933594 C 258.035156 296.640625 258.378906 297.367188 258.683594 298.109375 C 258.992188 298.851562 259.261719 299.609375 259.496094 300.378906 C 259.730469 301.148438 259.925781 301.925781 260.082031 302.714844 C 260.238281 303.503906 260.355469 304.296875 260.433594 305.097656 C 260.515625 305.898438 260.554688 306.699219 260.554688 307.503906 Z M 260.554688 307.503906 " fill-opacity="1" fill-rule="nonzero"/></g><g clip-path="url(#bd4a0da1c4)"><path fill="#fcfffe" d="M 262.785156 68.71875 C 261.105469 68.71875 259.425781 68.800781 257.753906 68.96875 C 256.082031 69.132812 254.421875 69.378906 252.773438 69.707031 C 251.121094 70.035156 249.496094 70.441406 247.886719 70.929688 C 246.277344 71.417969 244.695312 71.984375 243.144531 72.628906 C 241.589844 73.269531 240.070312 73.988281 238.589844 74.78125 C 237.105469 75.574219 235.667969 76.4375 234.269531 77.371094 C 232.871094 78.304688 231.523438 79.304688 230.222656 80.371094 C 228.925781 81.4375 227.679688 82.566406 226.492188 83.753906 C 225.300781 84.941406 224.175781 86.1875 223.109375 87.484375 C 222.042969 88.785156 221.042969 90.132812 220.109375 91.53125 C 219.175781 92.929688 218.3125 94.371094 217.519531 95.851562 C 216.726562 97.335938 216.007812 98.851562 215.363281 100.40625 C 214.722656 101.957031 214.15625 103.539062 213.667969 105.148438 C 213.179688 106.757812 212.773438 108.386719 212.445312 110.035156 C 212.117188 111.683594 211.871094 113.34375 211.703125 115.015625 C 211.539062 116.691406 211.457031 118.367188 211.457031 120.046875 C 211.457031 121.730469 211.539062 123.40625 211.703125 125.078125 C 211.871094 126.75 212.117188 128.414062 212.445312 130.0625 C 212.773438 131.710938 213.179688 133.339844 213.667969 134.945312 C 214.15625 136.554688 214.722656 138.136719 215.363281 139.691406 C 216.007812 141.242188 216.726562 142.761719 217.519531 144.242188 C 218.3125 145.726562 219.175781 147.164062 220.109375 148.5625 C 221.042969 149.960938 222.042969 151.308594 223.109375 152.609375 C 224.175781 153.910156 225.300781 155.152344 226.492188 156.339844 C 227.679688 157.53125 228.925781 158.65625 230.222656 159.722656 C 231.523438 160.789062 232.871094 161.789062 234.269531 162.726562 C 235.667969 163.660156 237.105469 164.523438 238.589844 165.3125 C 240.070312 166.105469 241.589844 166.824219 243.144531 167.46875 C 244.695312 168.109375 246.277344 168.675781 247.886719 169.164062 C 249.496094 169.652344 251.121094 170.0625 252.773438 170.390625 C 254.421875 170.714844 256.082031 170.964844 257.753906 171.128906 C 259.425781 171.292969 261.105469 171.375 262.785156 171.375 C 264.460938 171.355469 266.132812 171.257812 267.796875 171.074219 C 269.464844 170.894531 271.117188 170.632812 272.757812 170.292969 C 274.398438 169.953125 276.019531 169.53125 277.621094 169.035156 C 279.21875 168.539062 280.792969 167.964844 282.335938 167.3125 C 283.882812 166.664062 285.390625 165.941406 286.867188 165.144531 C 288.339844 164.347656 289.773438 163.480469 291.164062 162.546875 C 292.554688 161.613281 293.898438 160.613281 295.191406 159.546875 C 296.484375 158.480469 297.726562 157.355469 298.910156 156.171875 C 300.09375 154.988281 301.21875 153.746094 302.285156 152.453125 C 303.351562 151.160156 304.351562 149.816406 305.285156 148.425781 C 306.21875 147.035156 307.085938 145.601562 307.882812 144.128906 C 308.675781 142.652344 309.402344 141.144531 310.050781 139.597656 C 310.699219 138.054688 311.273438 136.480469 311.773438 134.882812 C 312.269531 133.28125 312.691406 131.660156 313.03125 130.019531 C 313.371094 128.378906 313.632812 126.726562 313.8125 125.058594 C 313.992188 123.394531 314.09375 121.722656 314.113281 120.046875 C 314.109375 118.367188 314.027344 116.691406 313.859375 115.019531 C 313.691406 113.347656 313.445312 111.6875 313.117188 110.039062 C 312.785156 108.390625 312.378906 106.761719 311.886719 105.15625 C 311.398438 103.546875 310.832031 101.96875 310.1875 100.414062 C 309.542969 98.863281 308.824219 97.347656 308.03125 95.863281 C 307.238281 94.382812 306.375 92.945312 305.441406 91.546875 C 304.507812 90.148438 303.507812 88.800781 302.441406 87.503906 C 301.375 86.203125 300.25 84.960938 299.058594 83.773438 C 297.871094 82.585938 296.628906 81.457031 295.328125 80.390625 C 294.03125 79.324219 292.683594 78.324219 291.285156 77.390625 C 289.890625 76.457031 288.449219 75.59375 286.96875 74.800781 C 285.488281 74.007812 283.96875 73.289062 282.417969 72.644531 C 280.867188 72 279.285156 71.433594 277.675781 70.945312 C 276.070312 70.457031 274.441406 70.046875 272.792969 69.71875 C 271.144531 69.386719 269.488281 69.140625 267.8125 68.972656 C 266.140625 68.804688 264.464844 68.722656 262.785156 68.71875 Z M 289.566406 126.742188 L 269.480469 126.742188 L 269.480469 146.828125 C 269.480469 147.265625 269.4375 147.703125 269.351562 148.132812 C 269.265625 148.5625 269.136719 148.984375 268.96875 149.390625 C 268.800781 149.796875 268.597656 150.179688 268.351562 150.546875 C 268.109375 150.910156 267.828125 151.25 267.519531 151.5625 C 267.207031 151.871094 266.871094 152.148438 266.503906 152.394531 C 266.140625 152.636719 265.753906 152.84375 265.347656 153.011719 C 264.941406 153.179688 264.523438 153.308594 264.089844 153.394531 C 263.660156 153.480469 263.226562 153.523438 262.785156 153.523438 C 262.34375 153.523438 261.910156 153.480469 261.480469 153.394531 C 261.046875 153.308594 260.628906 153.179688 260.222656 153.011719 C 259.816406 152.84375 259.429688 152.636719 259.066406 152.394531 C 258.699219 152.148438 258.363281 151.871094 258.050781 151.5625 C 257.742188 151.25 257.460938 150.910156 257.21875 150.546875 C 256.972656 150.179688 256.769531 149.796875 256.601562 149.390625 C 256.433594 148.984375 256.304688 148.5625 256.21875 148.132812 C 256.132812 147.703125 256.089844 147.265625 256.089844 146.828125 L 256.089844 126.742188 L 236.003906 126.742188 C 235.566406 126.742188 235.128906 126.699219 234.699219 126.613281 C 234.269531 126.527344 233.851562 126.402344 233.445312 126.234375 C 233.039062 126.066406 232.652344 125.859375 232.285156 125.613281 C 231.921875 125.371094 231.582031 125.09375 231.273438 124.78125 C 230.960938 124.46875 230.683594 124.132812 230.4375 123.765625 C 230.195312 123.402344 229.988281 123.015625 229.820312 122.609375 C 229.652344 122.203125 229.523438 121.785156 229.4375 121.355469 C 229.355469 120.921875 229.3125 120.488281 229.3125 120.046875 C 229.3125 119.609375 229.355469 119.171875 229.4375 118.742188 C 229.523438 118.308594 229.652344 117.890625 229.820312 117.484375 C 229.988281 117.078125 230.195312 116.695312 230.4375 116.328125 C 230.683594 115.960938 230.960938 115.625 231.273438 115.3125 C 231.582031 115.003906 231.921875 114.726562 232.285156 114.480469 C 232.652344 114.238281 233.039062 114.03125 233.445312 113.863281 C 233.851562 113.695312 234.269531 113.566406 234.699219 113.480469 C 235.128906 113.394531 235.566406 113.351562 236.003906 113.351562 L 256.089844 113.351562 L 256.089844 93.269531 C 256.089844 92.828125 256.132812 92.394531 256.21875 91.960938 C 256.304688 91.53125 256.433594 91.113281 256.601562 90.707031 C 256.769531 90.300781 256.972656 89.914062 257.21875 89.546875 C 257.460938 89.183594 257.742188 88.84375 258.050781 88.535156 C 258.363281 88.222656 258.699219 87.945312 259.066406 87.703125 C 259.429688 87.457031 259.816406 87.25 260.222656 87.082031 C 260.628906 86.914062 261.046875 86.789062 261.480469 86.703125 C 261.910156 86.617188 262.34375 86.574219 262.785156 86.574219 C 263.226562 86.574219 263.660156 86.617188 264.089844 86.703125 C 264.523438 86.789062 264.941406 86.914062 265.347656 87.082031 C 265.753906 87.25 266.140625 87.457031 266.503906 87.703125 C 266.871094 87.945312 267.207031 88.222656 267.519531 88.535156 C 267.828125 88.84375 268.109375 89.183594 268.351562 89.546875 C 268.597656 89.914062 268.800781 90.300781 268.96875 90.707031 C 269.136719 91.113281 269.265625 91.53125 269.351562 91.960938 C 269.4375 92.394531 269.480469 92.828125 269.480469 93.269531 L 269.480469 113.351562 L 289.566406 113.351562 C 290.003906 113.351562 290.441406 113.394531 290.871094 113.480469 C 291.300781 113.566406 291.71875 113.695312 292.125 113.863281 C 292.53125 114.03125 292.917969 114.238281 293.285156 114.480469 C 293.648438 114.726562 293.988281 115.003906 294.296875 115.3125 C 294.609375 115.625 294.886719 115.960938 295.132812 116.328125 C 295.375 116.695312 295.582031 117.078125 295.75 117.484375 C 295.917969 117.890625 296.046875 118.308594 296.132812 118.742188 C 296.214844 119.171875 296.257812 119.609375 296.257812 120.046875 C 296.257812 120.488281 296.214844 120.921875 296.132812 121.355469 C 296.046875 121.785156 295.917969 122.203125 295.75 122.609375 C 295.582031 123.015625 295.375 123.402344 295.132812 123.765625 C 294.886719 124.132812 294.609375 124.46875 294.296875 124.78125 C 293.988281 125.09375 293.648438 125.371094 293.285156 125.613281 C 292.917969 125.859375 292.53125 126.066406 292.125 126.234375 C 291.71875 126.402344 291.300781 126.527344 290.871094 126.613281 C 290.441406 126.699219 290.003906 126.742188 289.566406 126.742188 Z M 289.566406 126.742188 " fill-opacity="1" fill-rule="nonzero"/></g></svg>