<svg xmlns="http://www.w3.org/2000/svg" xmlns:xlink="http://www.w3.org/1999/xlink" width="500" zoomAndPan="magnify" viewBox="0 0 375 374.999991" height="500" preserveAspectRatio="xMidYMid meet" version="1.0"><defs><clipPath id="f6a0cee80e"><path d="M 8.679688 37 L 316 37 L 316 286 L 8.679688 286 Z M 8.679688 37 " clip-rule="nonzero"/></clipPath></defs><g clip-path="url(#f6a0cee80e)"><path fill="#ffffff" d="M 114.625 234.535156 L 279.878906 234.535156 C 280.832031 234.527344 281.765625 234.382812 282.675781 234.101562 C 283.585938 233.824219 284.4375 233.417969 285.226562 232.886719 C 286.019531 232.355469 286.71875 231.71875 287.320312 230.984375 C 287.925781 230.246094 288.410156 229.4375 288.777344 228.558594 L 315.472656 161.695312 C 307.976562 163.699219 300.351562 164.671875 292.589844 164.617188 C 289.90625 164.628906 287.226562 164.519531 284.550781 164.292969 C 281.875 164.066406 279.214844 163.722656 276.570312 163.261719 C 273.925781 162.800781 271.304688 162.222656 268.710938 161.535156 C 266.113281 160.84375 263.554688 160.039062 261.03125 159.125 C 258.507812 158.207031 256.027344 157.183594 253.59375 156.046875 C 251.160156 154.914062 248.78125 153.675781 246.457031 152.332031 C 244.128906 150.988281 241.867188 149.546875 239.671875 148.003906 C 237.472656 146.464844 235.34375 144.828125 233.292969 143.097656 C 231.238281 141.371094 229.261719 139.554688 227.367188 137.652344 C 225.472656 135.75 223.664062 133.765625 221.945312 131.707031 C 220.222656 129.644531 218.597656 127.511719 217.0625 125.308594 C 215.53125 123.101562 214.097656 120.835938 212.761719 118.503906 C 211.429688 116.175781 210.199219 113.789062 209.078125 111.351562 C 207.953125 108.914062 206.9375 106.429688 206.03125 103.902344 C 205.125 101.375 204.332031 98.8125 203.652344 96.214844 C 202.972656 93.617188 202.40625 90.996094 201.957031 88.347656 L 75.960938 88.347656 C 75.960938 88.347656 60.042969 43.824219 59.90625 43.601562 C 59.535156 42.722656 59.050781 41.917969 58.453125 41.179688 C 57.851562 40.441406 57.160156 39.800781 56.378906 39.257812 C 55.59375 38.71875 54.75 38.300781 53.847656 38 C 52.945312 37.699219 52.015625 37.535156 51.066406 37.5 L 0.21875 37.5 C -0.40625 37.5 -1.027344 37.5625 -1.640625 37.683594 C -2.253906 37.804688 -2.851562 37.984375 -3.429688 38.226562 C -4.007812 38.464844 -4.558594 38.757812 -5.078125 39.105469 C -5.597656 39.453125 -6.082031 39.851562 -6.523438 40.292969 C -6.964844 40.734375 -7.359375 41.214844 -7.707031 41.738281 C -8.054688 42.257812 -8.351562 42.808594 -8.589844 43.386719 C -8.828125 43.964844 -9.011719 44.558594 -9.132812 45.175781 C -9.253906 45.789062 -9.316406 46.40625 -9.316406 47.035156 C -9.316406 47.660156 -9.253906 48.28125 -9.132812 48.894531 C -9.011719 49.507812 -8.828125 50.105469 -8.589844 50.683594 C -8.351562 51.261719 -8.054688 51.808594 -7.707031 52.332031 C -7.359375 52.851562 -6.964844 53.332031 -6.523438 53.773438 C -6.082031 54.21875 -5.597656 54.613281 -5.078125 54.960938 C -4.558594 55.308594 -4.007812 55.601562 -3.429688 55.84375 C -2.851562 56.082031 -2.253906 56.261719 -1.640625 56.382812 C -1.027344 56.507812 -0.40625 56.566406 0.21875 56.566406 L 44.351562 56.566406 L 101.9375 217.933594 C 100.308594 218.566406 98.738281 219.316406 97.222656 220.1875 C 95.707031 221.054688 94.265625 222.035156 92.898438 223.121094 C 91.527344 224.203125 90.246094 225.386719 89.054688 226.664062 C 87.863281 227.941406 86.773438 229.300781 85.789062 230.742188 C 84.800781 232.183594 83.925781 233.6875 83.164062 235.261719 C 82.402344 236.832031 81.761719 238.453125 81.242188 240.121094 C 80.726562 241.789062 80.332031 243.488281 80.070312 245.214844 C 79.804688 246.941406 79.671875 248.675781 79.667969 250.421875 C 79.683594 251.5625 79.753906 252.699219 79.882812 253.835938 C 80.007812 254.96875 80.1875 256.09375 80.421875 257.207031 C 80.65625 258.324219 80.945312 259.425781 81.285156 260.515625 C 81.625 261.605469 82.015625 262.671875 82.460938 263.722656 C 82.90625 264.773438 83.398438 265.800781 83.941406 266.804688 C 84.484375 267.808594 85.074219 268.78125 85.710938 269.726562 C 86.347656 270.671875 87.03125 271.585938 87.753906 272.46875 C 88.480469 273.347656 89.246094 274.191406 90.050781 274.996094 C 90.859375 275.804688 91.703125 276.570312 92.582031 277.292969 C 93.460938 278.019531 94.375 278.699219 95.320312 279.335938 C 96.269531 279.972656 97.242188 280.5625 98.246094 281.109375 C 99.246094 281.652344 100.273438 282.144531 101.324219 282.585938 C 102.375 283.03125 103.445312 283.425781 104.535156 283.765625 C 105.621094 284.105469 106.722656 284.394531 107.839844 284.628906 C 108.957031 284.863281 110.082031 285.042969 111.214844 285.167969 C 112.347656 285.292969 113.484375 285.363281 114.625 285.382812 L 279.878906 285.382812 C 280.503906 285.382812 281.125 285.320312 281.738281 285.199219 C 282.355469 285.074219 282.949219 284.894531 283.527344 284.65625 C 284.105469 284.414062 284.65625 284.121094 285.175781 283.773438 C 285.695312 283.425781 286.179688 283.03125 286.621094 282.589844 C 287.0625 282.144531 287.457031 281.664062 287.808594 281.144531 C 288.15625 280.625 288.449219 280.074219 288.6875 279.496094 C 288.925781 278.917969 289.109375 278.320312 289.230469 277.707031 C 289.351562 277.09375 289.414062 276.472656 289.414062 275.847656 C 289.414062 275.222656 289.351562 274.601562 289.230469 273.988281 C 289.109375 273.375 288.925781 272.777344 288.6875 272.199219 C 288.449219 271.621094 288.15625 271.070312 287.808594 270.550781 C 287.457031 270.03125 287.0625 269.546875 286.621094 269.105469 C 286.179688 268.664062 285.695312 268.269531 285.175781 267.921875 C 284.65625 267.574219 284.105469 267.277344 283.527344 267.039062 C 282.949219 266.800781 282.355469 266.617188 281.738281 266.496094 C 281.125 266.375 280.503906 266.3125 279.878906 266.3125 L 114.625 266.3125 C 113.585938 266.296875 112.558594 266.183594 111.542969 265.96875 C 110.527344 265.753906 109.539062 265.445312 108.582031 265.039062 C 107.625 264.636719 106.714844 264.144531 105.855469 263.5625 C 104.992188 262.980469 104.195312 262.324219 103.460938 261.589844 C 102.726562 260.855469 102.066406 260.058594 101.488281 259.195312 C 100.90625 258.332031 100.414062 257.425781 100.007812 256.46875 C 99.605469 255.511719 99.292969 254.523438 99.082031 253.507812 C 98.867188 252.492188 98.75 251.460938 98.734375 250.421875 C 98.738281 249.378906 98.839844 248.347656 99.042969 247.324219 C 99.246094 246.300781 99.550781 245.308594 99.949219 244.34375 C 100.347656 243.382812 100.839844 242.464844 101.417969 241.597656 C 101.996094 240.730469 102.65625 239.929688 103.394531 239.191406 C 104.132812 238.453125 104.933594 237.796875 105.800781 237.214844 C 106.667969 236.636719 107.582031 236.148438 108.546875 235.746094 C 109.511719 235.347656 110.503906 235.046875 111.527344 234.839844 C 112.550781 234.636719 113.582031 234.535156 114.625 234.535156 Z M 114.625 234.535156 " fill-opacity="1" fill-rule="nonzero"/></g><path fill="#ffffff" d="M 175.007812 339.40625 C 175.007812 340.550781 174.949219 341.695312 174.839844 342.832031 C 174.726562 343.972656 174.558594 345.105469 174.335938 346.226562 C 174.113281 347.347656 173.832031 348.457031 173.5 349.554688 C 173.167969 350.648438 172.785156 351.726562 172.347656 352.785156 C 171.90625 353.84375 171.417969 354.875 170.878906 355.886719 C 170.339844 356.894531 169.75 357.875 169.117188 358.828125 C 168.480469 359.78125 167.796875 360.699219 167.070312 361.582031 C 166.34375 362.46875 165.578125 363.316406 164.769531 364.125 C 163.957031 364.933594 163.109375 365.703125 162.226562 366.429688 C 161.339844 367.15625 160.421875 367.835938 159.46875 368.472656 C 158.519531 369.109375 157.539062 369.695312 156.527344 370.238281 C 155.519531 370.777344 154.484375 371.265625 153.425781 371.703125 C 152.367188 372.140625 151.292969 372.527344 150.195312 372.859375 C 149.101562 373.191406 147.992188 373.46875 146.867188 373.691406 C 145.746094 373.917969 144.613281 374.082031 143.476562 374.195312 C 142.335938 374.308594 141.195312 374.363281 140.050781 374.363281 C 138.902344 374.363281 137.761719 374.308594 136.621094 374.195312 C 135.484375 374.082031 134.351562 373.917969 133.230469 373.691406 C 132.105469 373.46875 130.996094 373.191406 129.902344 372.859375 C 128.804688 372.527344 127.730469 372.140625 126.671875 371.703125 C 125.613281 371.265625 124.578125 370.777344 123.570312 370.238281 C 122.5625 369.695312 121.578125 369.109375 120.628906 368.472656 C 119.675781 367.835938 118.757812 367.15625 117.871094 366.429688 C 116.988281 365.703125 116.140625 364.933594 115.332031 364.125 C 114.519531 363.316406 113.753906 362.46875 113.027344 361.582031 C 112.300781 360.699219 111.617188 359.78125 110.984375 358.828125 C 110.347656 357.875 109.757812 356.894531 109.21875 355.886719 C 108.679688 354.875 108.191406 353.84375 107.753906 352.785156 C 107.3125 351.726562 106.929688 350.648438 106.597656 349.554688 C 106.265625 348.457031 105.988281 347.347656 105.761719 346.226562 C 105.539062 345.105469 105.371094 343.972656 105.261719 342.832031 C 105.148438 341.695312 105.089844 340.550781 105.089844 339.40625 C 105.089844 338.261719 105.148438 337.121094 105.261719 335.980469 C 105.371094 334.839844 105.539062 333.710938 105.761719 332.585938 C 105.988281 331.464844 106.265625 330.355469 106.597656 329.257812 C 106.929688 328.164062 107.3125 327.085938 107.753906 326.027344 C 108.191406 324.972656 108.679688 323.9375 109.21875 322.929688 C 109.757812 321.917969 110.347656 320.9375 110.984375 319.984375 C 111.617188 319.035156 112.300781 318.113281 113.027344 317.230469 C 113.753906 316.34375 114.519531 315.496094 115.332031 314.6875 C 116.140625 313.878906 116.988281 313.109375 117.871094 312.382812 C 118.757812 311.65625 119.675781 310.976562 120.628906 310.339844 C 121.578125 309.703125 122.5625 309.117188 123.570312 308.578125 C 124.578125 308.039062 125.613281 307.546875 126.671875 307.109375 C 127.730469 306.671875 128.804688 306.285156 129.902344 305.953125 C 130.996094 305.621094 132.105469 305.34375 133.230469 305.121094 C 134.351562 304.898438 135.484375 304.730469 136.621094 304.617188 C 137.761719 304.503906 138.902344 304.449219 140.050781 304.449219 C 141.195312 304.449219 142.335938 304.503906 143.476562 304.617188 C 144.613281 304.730469 145.746094 304.898438 146.867188 305.121094 C 147.992188 305.34375 149.101562 305.621094 150.195312 305.953125 C 151.292969 306.285156 152.367188 306.671875 153.425781 307.109375 C 154.484375 307.546875 155.519531 308.039062 156.527344 308.578125 C 157.539062 309.117188 158.519531 309.703125 159.46875 310.339844 C 160.421875 310.976562 161.339844 311.65625 162.226562 312.382812 C 163.109375 313.109375 163.957031 313.878906 164.769531 314.6875 C 165.578125 315.496094 166.34375 316.34375 167.070312 317.230469 C 167.796875 318.113281 168.480469 319.035156 169.117188 319.984375 C 169.75 320.9375 170.339844 321.917969 170.878906 322.929688 C 171.417969 323.9375 171.90625 324.972656 172.347656 326.027344 C 172.785156 327.085938 173.167969 328.164062 173.5 329.257812 C 173.832031 330.355469 174.113281 331.464844 174.335938 332.585938 C 174.558594 333.710938 174.726562 334.839844 174.839844 335.980469 C 174.949219 337.121094 175.007812 338.261719 175.007812 339.40625 Z M 175.007812 339.40625 " fill-opacity="1" fill-rule="nonzero"/><path fill="#ffffff" d="M 289.414062 339.40625 C 289.414062 340.550781 289.359375 341.695312 289.246094 342.832031 C 289.132812 343.972656 288.964844 345.105469 288.742188 346.226562 C 288.519531 347.347656 288.242188 348.457031 287.910156 349.554688 C 287.574219 350.648438 287.191406 351.726562 286.753906 352.785156 C 286.3125 353.84375 285.824219 354.875 285.285156 355.886719 C 284.746094 356.894531 284.15625 357.875 283.523438 358.828125 C 282.886719 359.78125 282.203125 360.699219 281.480469 361.582031 C 280.753906 362.46875 279.984375 363.316406 279.175781 364.125 C 278.363281 364.933594 277.519531 365.703125 276.632812 366.429688 C 275.746094 367.15625 274.828125 367.835938 273.878906 368.472656 C 272.925781 369.109375 271.945312 369.695312 270.933594 370.238281 C 269.925781 370.777344 268.890625 371.265625 267.832031 371.703125 C 266.777344 372.140625 265.699219 372.527344 264.605469 372.859375 C 263.507812 373.191406 262.398438 373.46875 261.277344 373.691406 C 260.152344 373.917969 259.023438 374.082031 257.882812 374.195312 C 256.742188 374.308594 255.601562 374.363281 254.457031 374.363281 C 253.3125 374.363281 252.167969 374.308594 251.03125 374.195312 C 249.890625 374.082031 248.757812 373.917969 247.636719 373.691406 C 246.511719 373.46875 245.402344 373.191406 244.308594 372.859375 C 243.210938 372.527344 242.136719 372.140625 241.078125 371.703125 C 240.019531 371.265625 238.988281 370.777344 237.976562 370.238281 C 236.96875 369.695312 235.988281 369.109375 235.035156 368.472656 C 234.082031 367.835938 233.164062 367.15625 232.277344 366.429688 C 231.394531 365.703125 230.546875 364.933594 229.738281 364.125 C 228.925781 363.316406 228.160156 362.46875 227.433594 361.582031 C 226.707031 360.699219 226.027344 359.78125 225.390625 358.828125 C 224.753906 357.875 224.164062 356.894531 223.625 355.886719 C 223.085938 354.875 222.597656 353.84375 222.160156 352.785156 C 221.722656 351.726562 221.335938 350.648438 221.003906 349.554688 C 220.671875 348.457031 220.394531 347.347656 220.171875 346.226562 C 219.945312 345.105469 219.777344 343.972656 219.667969 342.832031 C 219.554688 341.695312 219.5 340.550781 219.5 339.40625 C 219.5 338.261719 219.554688 337.121094 219.667969 335.980469 C 219.777344 334.839844 219.945312 333.710938 220.171875 332.585938 C 220.394531 331.464844 220.671875 330.355469 221.003906 329.257812 C 221.335938 328.164062 221.722656 327.085938 222.160156 326.027344 C 222.597656 324.972656 223.085938 323.9375 223.625 322.929688 C 224.164062 321.917969 224.753906 320.9375 225.390625 319.984375 C 226.027344 319.035156 226.707031 318.113281 227.433594 317.230469 C 228.160156 316.34375 228.925781 315.496094 229.738281 314.6875 C 230.546875 313.878906 231.394531 313.109375 232.277344 312.382812 C 233.164062 311.65625 234.082031 310.976562 235.035156 310.339844 C 235.988281 309.703125 236.96875 309.117188 237.976562 308.578125 C 238.988281 308.039062 240.019531 307.546875 241.078125 307.109375 C 242.136719 306.671875 243.210938 306.285156 244.308594 305.953125 C 245.402344 305.621094 246.511719 305.34375 247.636719 305.121094 C 248.757812 304.898438 249.890625 304.730469 251.03125 304.617188 C 252.167969 304.503906 253.3125 304.449219 254.457031 304.449219 C 255.601562 304.449219 256.742188 304.503906 257.882812 304.617188 C 259.023438 304.730469 260.152344 304.898438 261.277344 305.121094 C 262.398438 305.34375 263.507812 305.621094 264.605469 305.953125 C 265.699219 306.285156 266.777344 306.671875 267.832031 307.109375 C 268.890625 307.546875 269.925781 308.039062 270.933594 308.578125 C 271.945312 309.117188 272.925781 309.703125 273.878906 310.339844 C 274.828125 310.976562 275.746094 311.65625 276.632812 312.382812 C 277.519531 313.109375 278.363281 313.878906 279.175781 314.6875 C 279.984375 315.496094 280.753906 316.34375 281.480469 317.230469 C 282.203125 318.113281 282.886719 319.035156 283.523438 319.984375 C 284.15625 320.9375 284.746094 321.917969 285.285156 322.929688 C 285.824219 323.9375 286.3125 324.972656 286.753906 326.027344 C 287.191406 327.085938 287.574219 328.164062 287.910156 329.257812 C 288.242188 330.355469 288.519531 331.464844 288.742188 332.585938 C 288.964844 333.710938 289.132812 334.839844 289.246094 335.980469 C 289.359375 337.121094 289.414062 338.261719 289.414062 339.40625 Z M 289.414062 339.40625 " fill-opacity="1" fill-rule="nonzero"/><path fill="#ffffff" d="M 292.589844 -0.636719 C 291.394531 -0.636719 290.199219 -0.605469 289.003906 -0.546875 C 287.808594 -0.488281 286.617188 -0.402344 285.425781 -0.285156 C 284.238281 -0.167969 283.050781 -0.0195312 281.867188 0.15625 C 280.683594 0.332031 279.503906 0.535156 278.332031 0.769531 C 277.160156 1.003906 275.992188 1.265625 274.832031 1.554688 C 273.671875 1.84375 272.519531 2.164062 271.375 2.511719 C 270.230469 2.859375 269.09375 3.234375 267.96875 3.636719 C 266.839844 4.039062 265.726562 4.46875 264.621094 4.929688 C 263.515625 5.386719 262.421875 5.871094 261.339844 6.382812 C 260.257812 6.894531 259.191406 7.429688 258.136719 7.996094 C 257.082031 8.558594 256.039062 9.148438 255.015625 9.761719 C 253.988281 10.378906 252.976562 11.019531 251.984375 11.683594 C 250.988281 12.347656 250.011719 13.035156 249.050781 13.75 C 248.089844 14.460938 247.144531 15.195312 246.222656 15.957031 C 245.296875 16.714844 244.390625 17.496094 243.503906 18.300781 C 242.617188 19.101562 241.753906 19.925781 240.90625 20.773438 C 240.0625 21.617188 239.238281 22.484375 238.433594 23.371094 C 237.628906 24.257812 236.847656 25.164062 236.089844 26.085938 C 235.332031 27.011719 234.59375 27.957031 233.882812 28.917969 C 233.171875 29.875 232.480469 30.855469 231.816406 31.847656 C 231.152344 32.84375 230.511719 33.855469 229.898438 34.878906 C 229.28125 35.90625 228.691406 36.945312 228.128906 38 C 227.566406 39.058594 227.027344 40.125 226.515625 41.207031 C 226.003906 42.289062 225.519531 43.382812 225.0625 44.484375 C 224.605469 45.589844 224.175781 46.707031 223.769531 47.832031 C 223.367188 48.960938 222.992188 50.09375 222.644531 51.238281 C 222.296875 52.382812 221.980469 53.535156 221.6875 54.699219 C 221.398438 55.859375 221.136719 57.023438 220.902344 58.199219 C 220.667969 59.371094 220.464844 60.550781 220.289062 61.734375 C 220.113281 62.914062 219.96875 64.101562 219.851562 65.292969 C 219.734375 66.484375 219.644531 67.675781 219.585938 68.871094 C 219.527344 70.066406 219.5 71.261719 219.5 72.457031 C 219.5 73.652344 219.527344 74.847656 219.585938 76.042969 C 219.644531 77.238281 219.734375 78.429688 219.851562 79.621094 C 219.96875 80.8125 220.113281 82 220.289062 83.183594 C 220.464844 84.367188 220.667969 85.542969 220.902344 86.71875 C 221.136719 87.890625 221.398438 89.058594 221.6875 90.21875 C 221.980469 91.378906 222.296875 92.53125 222.644531 93.675781 C 222.992188 94.820312 223.367188 95.957031 223.769531 97.082031 C 224.175781 98.207031 224.605469 99.324219 225.0625 100.429688 C 225.519531 101.535156 226.003906 102.628906 226.515625 103.707031 C 227.027344 104.789062 227.566406 105.859375 228.128906 106.914062 C 228.691406 107.96875 229.28125 109.007812 229.898438 110.035156 C 230.511719 111.0625 231.152344 112.070312 231.816406 113.066406 C 232.480469 114.0625 233.171875 115.039062 233.882812 116 C 234.59375 116.960938 235.332031 117.902344 236.089844 118.828125 C 236.847656 119.753906 237.628906 120.65625 238.433594 121.542969 C 239.238281 122.429688 240.0625 123.296875 240.90625 124.140625 C 241.753906 124.988281 242.617188 125.8125 243.503906 126.617188 C 244.390625 127.417969 245.296875 128.199219 246.222656 128.960938 C 247.144531 129.71875 248.089844 130.453125 249.050781 131.167969 C 250.011719 131.878906 250.988281 132.566406 251.984375 133.230469 C 252.976562 133.898438 253.988281 134.535156 255.015625 135.152344 C 256.039062 135.765625 257.082031 136.355469 258.136719 136.921875 C 259.191406 137.484375 260.257812 138.023438 261.339844 138.53125 C 262.421875 139.042969 263.515625 139.527344 264.621094 139.988281 C 265.726562 140.445312 266.839844 140.875 267.96875 141.277344 C 269.09375 141.679688 270.230469 142.054688 271.375 142.402344 C 272.519531 142.75 273.671875 143.070312 274.832031 143.359375 C 275.992188 143.652344 277.160156 143.914062 278.332031 144.144531 C 279.503906 144.378906 280.683594 144.585938 281.867188 144.757812 C 283.050781 144.933594 284.238281 145.082031 285.425781 145.199219 C 286.617188 145.316406 287.808594 145.402344 289.003906 145.460938 C 290.199219 145.523438 291.394531 145.550781 292.589844 145.550781 C 293.785156 145.539062 294.976562 145.496094 296.164062 145.425781 C 297.355469 145.351562 298.542969 145.253906 299.730469 145.125 C 300.914062 144.996094 302.097656 144.839844 303.277344 144.652344 C 304.453125 144.46875 305.625 144.253906 306.792969 144.011719 C 307.960938 143.765625 309.121094 143.496094 310.277344 143.199219 C 311.429688 142.898438 312.578125 142.574219 313.71875 142.21875 C 314.855469 141.863281 315.984375 141.484375 317.105469 141.074219 C 318.226562 140.664062 319.335938 140.230469 320.433594 139.765625 C 321.535156 139.304688 322.621094 138.816406 323.695312 138.300781 C 324.773438 137.785156 325.835938 137.242188 326.882812 136.675781 C 327.933594 136.109375 328.96875 135.519531 329.988281 134.902344 C 331.011719 134.285156 332.015625 133.644531 333.003906 132.980469 C 333.996094 132.3125 334.96875 131.625 335.925781 130.914062 C 336.878906 130.199219 337.820312 129.464844 338.738281 128.707031 C 339.660156 127.949219 340.5625 127.167969 341.445312 126.367188 C 342.328125 125.566406 343.191406 124.746094 344.035156 123.902344 C 344.878906 123.058594 345.699219 122.195312 346.503906 121.3125 C 347.304688 120.429688 348.082031 119.527344 348.839844 118.605469 C 349.597656 117.683594 350.335938 116.746094 351.046875 115.789062 C 351.757812 114.832031 352.449219 113.859375 353.113281 112.871094 C 353.777344 111.882812 354.417969 110.875 355.035156 109.855469 C 355.652344 108.835938 356.246094 107.800781 356.8125 106.75 C 357.378906 105.699219 357.917969 104.636719 358.433594 103.5625 C 358.949219 102.488281 359.4375 101.398438 359.902344 100.300781 C 360.363281 99.203125 360.800781 98.09375 361.207031 96.972656 C 361.617188 95.851562 362 94.722656 362.351562 93.582031 C 362.707031 92.445312 363.035156 91.296875 363.332031 90.144531 C 363.628906 88.988281 363.902344 87.828125 364.144531 86.660156 C 364.386719 85.492188 364.601562 84.320312 364.785156 83.140625 C 364.972656 81.964844 365.128906 80.78125 365.257812 79.597656 C 365.386719 78.410156 365.488281 77.222656 365.558594 76.03125 C 365.628906 74.839844 365.671875 73.648438 365.683594 72.457031 C 365.683594 71.261719 365.652344 70.066406 365.59375 68.871094 C 365.53125 67.679688 365.441406 66.484375 365.324219 65.296875 C 365.207031 64.105469 365.058594 62.917969 364.882812 61.738281 C 364.707031 60.554688 364.5 59.375 364.265625 58.203125 C 364.03125 57.03125 363.769531 55.867188 363.476562 54.707031 C 363.183594 53.546875 362.863281 52.394531 362.515625 51.25 C 362.167969 50.105469 361.792969 48.972656 361.390625 47.84375 C 360.984375 46.71875 360.554688 45.605469 360.097656 44.5 C 359.636719 43.394531 359.152344 42.304688 358.640625 41.222656 C 358.128906 40.140625 357.589844 39.074219 357.027344 38.019531 C 356.464844 36.964844 355.875 35.925781 355.257812 34.898438 C 354.644531 33.875 354.003906 32.863281 353.339844 31.871094 C 352.671875 30.875 351.984375 29.898438 351.273438 28.9375 C 350.558594 27.980469 349.824219 27.035156 349.066406 26.113281 C 348.308594 25.1875 347.527344 24.28125 346.722656 23.398438 C 345.917969 22.511719 345.09375 21.644531 344.25 20.800781 C 343.402344 19.953125 342.539062 19.128906 341.652344 18.328125 C 340.765625 17.523438 339.859375 16.742188 338.9375 15.984375 C 338.011719 15.226562 337.070312 14.488281 336.109375 13.777344 C 335.148438 13.0625 334.171875 12.375 333.179688 11.710938 C 332.183594 11.046875 331.175781 10.40625 330.148438 9.792969 C 329.125 9.175781 328.082031 8.585938 327.03125 8.023438 C 325.976562 7.457031 324.90625 6.917969 323.828125 6.40625 C 322.746094 5.894531 321.652344 5.410156 320.550781 4.953125 C 319.445312 4.496094 318.328125 4.0625 317.203125 3.660156 C 316.078125 3.257812 314.941406 2.878906 313.800781 2.53125 C 312.65625 2.183594 311.503906 1.863281 310.34375 1.574219 C 309.183594 1.28125 308.019531 1.019531 306.84375 0.785156 C 305.671875 0.550781 304.496094 0.34375 303.3125 0.167969 C 302.128906 -0.0078125 300.941406 -0.15625 299.753906 -0.273438 C 298.5625 -0.394531 297.371094 -0.484375 296.175781 -0.542969 C 294.984375 -0.601562 293.789062 -0.632812 292.589844 -0.636719 Z M 330.726562 81.992188 L 302.125 81.992188 L 302.125 110.59375 C 302.125 111.21875 302.0625 111.839844 301.941406 112.453125 C 301.820312 113.066406 301.640625 113.664062 301.398438 114.242188 C 301.160156 114.820312 300.867188 115.371094 300.519531 115.890625 C 300.171875 116.410156 299.777344 116.890625 299.332031 117.335938 C 298.890625 117.777344 298.410156 118.171875 297.886719 118.519531 C 297.367188 118.867188 296.816406 119.160156 296.238281 119.402344 C 295.660156 119.640625 295.066406 119.820312 294.453125 119.945312 C 293.835938 120.066406 293.21875 120.128906 292.589844 120.128906 C 291.964844 120.128906 291.34375 120.066406 290.730469 119.945312 C 290.117188 119.820312 289.519531 119.640625 288.941406 119.402344 C 288.363281 119.160156 287.816406 118.867188 287.292969 118.519531 C 286.773438 118.171875 286.292969 117.777344 285.851562 117.335938 C 285.40625 116.890625 285.011719 116.410156 284.664062 115.890625 C 284.316406 115.371094 284.023438 114.820312 283.785156 114.242188 C 283.542969 113.664062 283.363281 113.066406 283.242188 112.453125 C 283.117188 111.839844 283.058594 111.21875 283.058594 110.59375 L 283.058594 81.992188 L 254.457031 81.992188 C 253.828125 81.992188 253.210938 81.929688 252.597656 81.808594 C 251.980469 81.6875 251.386719 81.503906 250.808594 81.265625 C 250.230469 81.027344 249.679688 80.734375 249.160156 80.382812 C 248.640625 80.035156 248.15625 79.640625 247.714844 79.199219 C 247.273438 78.757812 246.875 78.273438 246.527344 77.753906 C 246.179688 77.234375 245.886719 76.683594 245.648438 76.105469 C 245.410156 75.527344 245.226562 74.929688 245.105469 74.316406 C 244.984375 73.703125 244.921875 73.082031 244.921875 72.457031 C 244.921875 71.832031 244.984375 71.210938 245.105469 70.597656 C 245.226562 69.984375 245.410156 69.386719 245.648438 68.808594 C 245.886719 68.230469 246.179688 67.679688 246.527344 67.160156 C 246.875 66.640625 247.273438 66.160156 247.714844 65.714844 C 248.15625 65.273438 248.640625 64.878906 249.160156 64.53125 C 249.679688 64.183594 250.230469 63.890625 250.808594 63.648438 C 251.386719 63.410156 251.980469 63.230469 252.597656 63.105469 C 253.210938 62.984375 253.828125 62.921875 254.457031 62.921875 L 283.058594 62.921875 L 283.058594 34.320312 C 283.058594 33.695312 283.117188 33.074219 283.242188 32.460938 C 283.363281 31.847656 283.542969 31.25 283.785156 30.671875 C 284.023438 30.09375 284.316406 29.546875 284.664062 29.023438 C 285.011719 28.503906 285.40625 28.023438 285.851562 27.582031 C 286.292969 27.136719 286.773438 26.742188 287.292969 26.394531 C 287.816406 26.046875 288.363281 25.753906 288.941406 25.515625 C 289.519531 25.273438 290.117188 25.09375 290.730469 24.972656 C 291.34375 24.847656 291.964844 24.789062 292.589844 24.789062 C 293.21875 24.789062 293.835938 24.847656 294.453125 24.972656 C 295.066406 25.09375 295.660156 25.273438 296.238281 25.515625 C 296.816406 25.753906 297.367188 26.046875 297.886719 26.394531 C 298.410156 26.742188 298.890625 27.136719 299.332031 27.582031 C 299.777344 28.023438 300.171875 28.503906 300.519531 29.023438 C 300.867188 29.546875 301.160156 30.09375 301.398438 30.671875 C 301.640625 31.25 301.820312 31.847656 301.941406 32.460938 C 302.0625 33.074219 302.125 33.695312 302.125 34.320312 L 302.125 62.921875 L 330.726562 62.921875 C 331.351562 62.921875 331.972656 62.984375 332.585938 63.105469 C 333.199219 63.230469 333.796875 63.410156 334.375 63.648438 C 334.953125 63.890625 335.503906 64.183594 336.023438 64.53125 C 336.542969 64.878906 337.027344 65.273438 337.46875 65.714844 C 337.910156 66.160156 338.304688 66.640625 338.652344 67.160156 C 339.003906 67.679688 339.296875 68.230469 339.535156 68.808594 C 339.773438 69.386719 339.957031 69.984375 340.078125 70.597656 C 340.199219 71.210938 340.261719 71.832031 340.261719 72.457031 C 340.261719 73.082031 340.199219 73.703125 340.078125 74.316406 C 339.957031 74.929688 339.773438 75.527344 339.535156 76.105469 C 339.296875 76.683594 339.003906 77.234375 338.652344 77.753906 C 338.304688 78.273438 337.910156 78.757812 337.46875 79.199219 C 337.027344 79.640625 336.542969 80.035156 336.023438 80.382812 C 335.503906 80.734375 334.953125 81.027344 334.375 81.265625 C 333.796875 81.503906 333.199219 81.6875 332.585938 81.808594 C 331.972656 81.929688 331.351562 81.992188 330.726562 81.992188 Z M 330.726562 81.992188 " fill-opacity="1" fill-rule="nonzero"/></svg>