<svg xmlns="http://www.w3.org/2000/svg" xmlns:xlink="http://www.w3.org/1999/xlink" width="500" zoomAndPan="magnify" viewBox="0 0 375 374.999991" height="500" preserveAspectRatio="xMidYMid meet" version="1.0"><defs><clipPath id="a19cc35d67"><path d="M 0.890625 50.25 L 375 50.25 L 375 324.75 L 0.890625 324.75 Z M 0.890625 50.25 " clip-rule="nonzero"/></clipPath></defs><g clip-path="url(#a19cc35d67)"><path fill="#071952" d="M 350.058594 50.324219 L 25.828125 50.324219 C 12.113281 50.324219 0.890625 61.546875 0.890625 75.265625 L 0.890625 299.730469 C 0.890625 313.449219 12.113281 324.671875 25.828125 324.671875 L 350.058594 324.671875 C 363.773438 324.671875 375 313.449219 375 299.730469 L 375 75.265625 C 375 61.546875 363.773438 50.324219 350.058594 50.324219 Z M 63.242188 69.03125 C 70.097656 69.03125 75.710938 74.640625 75.710938 81.5 C 75.710938 88.359375 70.097656 93.972656 63.242188 93.972656 C 56.382812 93.972656 50.769531 88.359375 50.769531 81.5 C 50.769531 74.640625 56.382812 69.03125 63.242188 69.03125 Z M 38.300781 175.027344 L 38.300781 262.320312 L 13.359375 262.320312 L 13.359375 175.027344 Z M 13.359375 162.558594 L 13.359375 112.675781 L 38.300781 112.675781 L 38.300781 162.558594 Z M 63.242188 305.964844 C 56.382812 305.964844 50.769531 300.355469 50.769531 293.496094 C 50.769531 286.636719 56.382812 281.027344 63.242188 281.027344 C 70.097656 281.027344 75.710938 286.636719 75.710938 293.496094 C 75.710938 300.355469 70.097656 305.964844 63.242188 305.964844 Z M 69.476562 262.320312 L 69.476562 112.675781 C 69.476562 105.816406 75.085938 100.207031 81.945312 100.207031 L 331.351562 100.207031 C 338.210938 100.207031 343.824219 105.816406 343.824219 112.675781 L 343.824219 262.320312 C 343.824219 269.179688 338.210938 274.789062 331.351562 274.789062 L 81.945312 274.789062 C 75.085938 274.789062 69.476562 269.179688 69.476562 262.320312 Z M 337.585938 305.964844 C 330.730469 305.964844 325.117188 300.355469 325.117188 293.496094 C 325.117188 286.636719 330.730469 281.027344 337.585938 281.027344 C 344.445312 281.027344 350.058594 286.636719 350.058594 293.496094 C 350.058594 300.355469 344.445312 305.964844 337.585938 305.964844 Z M 337.585938 93.972656 C 330.730469 93.972656 325.117188 88.359375 325.117188 81.5 C 325.117188 74.640625 330.730469 69.03125 337.585938 69.03125 C 344.445312 69.03125 350.058594 74.640625 350.058594 81.5 C 350.058594 88.359375 344.445312 93.972656 337.585938 93.972656 Z M 337.585938 93.972656 " fill-opacity="1" fill-rule="nonzero"/></g><path fill="#071952" d="M 269 143.851562 L 262.765625 143.851562 L 262.765625 231.144531 L 269 231.144531 C 286.210938 231.144531 300.175781 217.175781 300.175781 199.96875 L 300.175781 175.027344 C 300.175781 157.820312 286.210938 143.851562 269 143.851562 Z M 269 143.851562 " fill-opacity="1" fill-rule="nonzero"/><path fill="#071952" d="M 81.945312 112.675781 L 81.945312 262.320312 L 331.351562 262.320312 L 331.351562 112.675781 Z M 125.59375 181.261719 L 138.0625 181.261719 C 151.84375 181.261719 163.003906 192.425781 163.003906 206.203125 L 163.003906 218.675781 C 163.003906 232.453125 151.84375 243.613281 138.0625 243.613281 L 125.59375 243.613281 C 111.8125 243.613281 100.652344 232.453125 100.652344 218.675781 C 100.652344 215.246094 103.457031 212.4375 106.886719 212.4375 C 110.316406 212.4375 113.121094 215.246094 113.121094 218.675781 C 113.121094 225.53125 118.734375 231.144531 125.59375 231.144531 L 138.0625 231.144531 C 144.921875 231.144531 150.53125 225.53125 150.53125 218.675781 L 150.53125 206.203125 C 150.53125 199.34375 144.921875 193.734375 138.0625 193.734375 L 125.59375 193.734375 C 111.8125 193.734375 100.652344 182.574219 100.652344 168.792969 L 100.652344 156.324219 C 100.652344 142.542969 111.8125 131.382812 125.59375 131.382812 L 138.0625 131.382812 C 151.84375 131.382812 163.003906 142.542969 163.003906 156.324219 C 163.003906 159.75 160.199219 162.558594 156.769531 162.558594 C 153.339844 162.558594 150.53125 159.75 150.53125 156.324219 C 150.53125 149.464844 144.921875 143.851562 138.0625 143.851562 L 125.59375 143.851562 C 118.734375 143.851562 113.121094 149.464844 113.121094 156.324219 L 113.121094 168.792969 C 113.121094 175.652344 118.734375 181.261719 125.59375 181.261719 Z M 200.414062 181.261719 L 212.882812 181.261719 C 226.664062 181.261719 237.824219 192.425781 237.824219 206.203125 L 237.824219 218.675781 C 237.824219 232.453125 226.664062 243.613281 212.882812 243.613281 L 200.414062 243.613281 C 186.632812 243.613281 175.472656 232.453125 175.472656 218.675781 C 175.472656 215.246094 178.28125 212.4375 181.707031 212.4375 C 185.136719 212.4375 187.945312 215.246094 187.945312 218.675781 C 187.945312 225.53125 193.554688 231.144531 200.414062 231.144531 L 212.882812 231.144531 C 219.742188 231.144531 225.355469 225.53125 225.355469 218.675781 L 225.355469 206.203125 C 225.355469 199.34375 219.742188 193.734375 212.882812 193.734375 L 200.414062 193.734375 C 186.632812 193.734375 175.472656 182.574219 175.472656 168.792969 L 175.472656 156.324219 C 175.472656 142.542969 186.632812 131.382812 200.414062 131.382812 L 212.882812 131.382812 C 226.664062 131.382812 237.824219 142.542969 237.824219 156.324219 C 237.824219 159.75 235.019531 162.558594 231.589844 162.558594 C 228.160156 162.558594 225.355469 159.75 225.355469 156.324219 C 225.355469 149.464844 219.742188 143.851562 212.882812 143.851562 L 200.414062 143.851562 C 193.554688 143.851562 187.945312 149.464844 187.945312 156.324219 L 187.945312 168.792969 C 187.945312 175.652344 193.554688 181.261719 200.414062 181.261719 Z M 312.648438 199.96875 C 312.648438 224.035156 293.070312 243.613281 269 243.613281 L 262.765625 243.613281 C 255.90625 243.613281 250.296875 238.003906 250.296875 231.144531 L 250.296875 143.851562 C 250.296875 136.992188 255.90625 131.382812 262.765625 131.382812 L 269 131.382812 C 293.070312 131.382812 312.648438 150.960938 312.648438 175.027344 Z M 312.648438 199.96875 " fill-opacity="1" fill-rule="nonzero"/></svg>