<svg xmlns="http://www.w3.org/2000/svg" xmlns:xlink="http://www.w3.org/1999/xlink" width="500" zoomAndPan="magnify" viewBox="0 0 375 374.999991" height="500" preserveAspectRatio="xMidYMid meet" version="1.0"><path fill="#071952" d="M 108.597656 278.417969 L 86.292969 278.417969 L 86.292969 95.023438 C 86.292969 95.023438 108.523438 95.023438 108.597656 95.023438 C 114.347656 95.023438 117.957031 88.542969 114.902344 83.648438 L 65.335938 4.34375 C 62.617188 -0.00390625 55.445312 -0.00390625 52.722656 4.34375 C 52.722656 4.34375 3.386719 83.28125 3.160156 83.648438 C 0.0976562 88.546875 3.714844 95.023438 9.464844 95.023438 L 31.769531 95.023438 L 31.769531 278.417969 L 9.464844 278.417969 C 6.765625 278.417969 4.269531 279.882812 2.964844 282.246094 C 1.652344 284.613281 1.730469 287.5 3.15625 289.792969 C 3.15625 289.792969 52.546875 368.816406 52.722656 369.09375 C 55.597656 373.695312 62.46875 373.683594 65.335938 369.097656 L 114.902344 289.792969 C 116.332031 287.5 116.40625 284.613281 115.097656 282.246094 C 113.789062 279.882812 111.296875 278.417969 108.597656 278.417969 Z M 108.597656 278.417969 " fill-opacity="1" fill-rule="nonzero"/><path fill="#071952" d="M 370.277344 309.285156 C 370.277344 309.285156 291.230469 259.878906 290.972656 259.71875 C 286.074219 256.65625 279.597656 260.289062 279.597656 266.023438 L 279.597656 288.328125 L 215.160156 288.328125 C 215.160156 288.328125 215.160156 266.128906 215.160156 266.023438 C 215.160156 260.28125 208.65625 256.664062 203.785156 259.71875 C 203.785156 259.71875 124.746094 309.121094 124.484375 309.28125 C 119.875 312.160156 119.890625 319.023438 124.480469 321.898438 C 124.480469 321.898438 203.367188 371.203125 203.785156 371.460938 C 208.671875 374.515625 215.160156 370.902344 215.160156 365.15625 L 215.160156 342.851562 L 279.597656 342.851562 C 279.597656 342.851562 279.597656 365.03125 279.597656 365.15625 C 279.597656 370.871094 286.164062 374.46875 290.972656 371.460938 C 290.972656 371.460938 370.050781 322.039062 370.277344 321.898438 C 374.878906 319.019531 374.882812 312.160156 370.277344 309.285156 Z M 370.277344 309.285156 " fill-opacity="1" fill-rule="nonzero"/><path fill="#071952" d="M 254.8125 250.488281 L 354.121094 193.15625 C 356.421875 191.832031 357.835938 189.378906 357.835938 186.71875 L 357.835938 72.054688 L 254.8125 131.53125 Z M 254.8125 250.488281 " fill-opacity="1" fill-rule="nonzero"/><path fill="#071952" d="M 350.402344 59.179688 L 251.097656 1.847656 C 248.792969 0.519531 245.964844 0.519531 243.660156 1.847656 L 144.359375 59.179688 L 247.378906 118.652344 Z M 350.402344 59.179688 " fill-opacity="1" fill-rule="nonzero"/><path fill="#071952" d="M 140.644531 193.15625 L 239.945312 250.488281 L 239.945312 131.53125 L 136.925781 72.054688 L 136.925781 186.71875 C 136.925781 189.378906 138.34375 191.832031 140.644531 193.15625 Z M 140.644531 193.15625 " fill-opacity="1" fill-rule="nonzero"/></svg>