<svg xmlns="http://www.w3.org/2000/svg" xmlns:xlink="http://www.w3.org/1999/xlink" width="500" zoomAndPan="magnify" viewBox="0 0 375 374.999991" height="500" preserveAspectRatio="xMidYMid meet" version="1.0"><path fill="#071952" d="M 334.296875 54.714844 C 260.097656 54.714844 196.441406 4.804688 195.773438 4.269531 C 195.191406 3.804688 194.574219 3.390625 193.921875 3.027344 C 193.265625 2.667969 192.589844 2.363281 191.882812 2.113281 C 191.179688 1.867188 190.460938 1.679688 189.722656 1.554688 C 188.988281 1.429688 188.246094 1.367188 187.5 1.367188 C 186.753906 1.367188 186.011719 1.429688 185.277344 1.554688 C 184.539062 1.679688 183.820312 1.867188 183.117188 2.113281 C 182.410156 2.363281 181.734375 2.667969 181.078125 3.027344 C 180.425781 3.390625 179.808594 3.804688 179.226562 4.269531 C 178.558594 4.804688 115.167969 54.714844 40.703125 54.714844 C 39.828125 54.71875 38.960938 54.804688 38.101562 54.976562 C 37.242188 55.152344 36.410156 55.40625 35.601562 55.742188 C 34.792969 56.078125 34.027344 56.488281 33.296875 56.976562 C 32.570312 57.464844 31.898438 58.015625 31.277344 58.636719 C 30.660156 59.253906 30.105469 59.929688 29.617188 60.65625 C 29.132812 61.382812 28.71875 62.152344 28.382812 62.960938 C 28.046875 63.769531 27.792969 64.601562 27.621094 65.460938 C 27.449219 66.316406 27.359375 67.183594 27.359375 68.058594 L 27.359375 188.167969 C 27.359375 277.714844 63.523438 321.085938 182.027344 373.800781 C 182.886719 374.195312 183.777344 374.492188 184.699219 374.695312 C 185.621094 374.898438 186.554688 375 187.5 375 C 188.445312 375 189.378906 374.898438 190.300781 374.695312 C 191.222656 374.492188 192.113281 374.195312 192.972656 373.800781 C 311.476562 321.085938 347.640625 277.714844 347.640625 188.167969 L 347.640625 68.058594 C 347.640625 67.183594 347.550781 66.316406 347.378906 65.460938 C 347.207031 64.601562 346.953125 63.769531 346.617188 62.960938 C 346.28125 62.152344 345.867188 61.382812 345.382812 60.65625 C 344.894531 59.929688 344.339844 59.253906 343.722656 58.636719 C 343.101562 58.015625 342.429688 57.464844 341.703125 56.976562 C 340.972656 56.488281 340.207031 56.078125 339.398438 55.742188 C 338.589844 55.40625 337.757812 55.152344 336.898438 54.976562 C 336.039062 54.804688 335.171875 54.71875 334.296875 54.714844 Z M 187.5 294.929688 C 185.753906 294.929688 184.007812 294.886719 182.261719 294.800781 C 180.515625 294.714844 178.773438 294.585938 177.035156 294.414062 C 175.296875 294.242188 173.5625 294.03125 171.835938 293.773438 C 170.105469 293.515625 168.386719 293.21875 166.671875 292.878906 C 164.957031 292.535156 163.253906 292.152344 161.558594 291.730469 C 159.863281 291.304688 158.179688 290.839844 156.507812 290.332031 C 154.835938 289.824219 153.179688 289.277344 151.53125 288.6875 C 149.886719 288.097656 148.257812 287.46875 146.644531 286.800781 C 145.03125 286.132812 143.433594 285.425781 141.855469 284.679688 C 140.273438 283.929688 138.714844 283.144531 137.171875 282.324219 C 135.632812 281.5 134.113281 280.636719 132.613281 279.738281 C 131.113281 278.839844 129.640625 277.90625 128.1875 276.9375 C 126.734375 275.964844 125.304688 274.960938 123.902344 273.917969 C 122.5 272.878906 121.121094 271.804688 119.769531 270.695312 C 118.421875 269.585938 117.097656 268.445312 115.804688 267.273438 C 114.507812 266.097656 113.242188 264.894531 112.007812 263.660156 C 110.773438 262.421875 109.566406 261.160156 108.394531 259.863281 C 107.222656 258.570312 106.082031 257.246094 104.972656 255.894531 C 103.863281 254.546875 102.789062 253.167969 101.75 251.765625 C 100.707031 250.363281 99.703125 248.933594 98.730469 247.480469 C 97.761719 246.027344 96.824219 244.550781 95.925781 243.054688 C 95.027344 241.554688 94.167969 240.035156 93.34375 238.496094 C 92.519531 236.953125 91.734375 235.394531 90.988281 233.8125 C 90.242188 232.234375 89.535156 230.636719 88.863281 229.023438 C 88.195312 227.410156 87.566406 225.777344 86.980469 224.132812 C 86.390625 222.488281 85.84375 220.832031 85.335938 219.160156 C 84.828125 217.488281 84.363281 215.804688 83.9375 214.109375 C 83.511719 212.414062 83.128906 210.710938 82.789062 208.996094 C 82.449219 207.28125 82.148438 205.5625 81.894531 203.832031 C 81.636719 202.105469 81.421875 200.371094 81.253906 198.632812 C 81.082031 196.894531 80.953125 195.152344 80.867188 193.40625 C 80.78125 191.660156 80.738281 189.914062 80.738281 188.167969 C 80.738281 186.421875 80.78125 184.671875 80.867188 182.929688 C 80.953125 181.183594 81.082031 179.441406 81.253906 177.703125 C 81.421875 175.964844 81.636719 174.230469 81.894531 172.503906 C 82.148438 170.773438 82.449219 169.050781 82.789062 167.339844 C 83.128906 165.625 83.511719 163.921875 83.9375 162.226562 C 84.363281 160.53125 84.828125 158.847656 85.335938 157.175781 C 85.84375 155.503906 86.390625 153.84375 86.980469 152.199219 C 87.566406 150.554688 88.195312 148.925781 88.863281 147.3125 C 89.535156 145.695312 90.242188 144.101562 90.988281 142.519531 C 91.734375 140.941406 92.519531 139.382812 93.34375 137.839844 C 94.167969 136.300781 95.027344 134.78125 95.925781 133.28125 C 96.824219 131.78125 97.761719 130.304688 98.730469 128.855469 C 99.703125 127.402344 100.707031 125.972656 101.75 124.570312 C 102.789062 123.167969 103.863281 121.789062 104.972656 120.4375 C 106.082031 119.085938 107.222656 117.765625 108.394531 116.46875 C 109.566406 115.175781 110.773438 113.910156 112.007812 112.675781 C 113.242188 111.441406 114.507812 110.234375 115.804688 109.0625 C 117.097656 107.890625 118.421875 106.746094 119.769531 105.640625 C 121.121094 104.53125 122.5 103.457031 123.902344 102.414062 C 125.304688 101.375 126.734375 100.367188 128.1875 99.398438 C 129.640625 98.425781 131.113281 97.492188 132.613281 96.59375 C 134.113281 95.695312 135.632812 94.835938 137.171875 94.011719 C 138.714844 93.1875 140.273438 92.402344 141.855469 91.65625 C 143.433594 90.910156 145.03125 90.199219 146.644531 89.53125 C 148.257812 88.863281 149.886719 88.234375 151.53125 87.648438 C 153.179688 87.058594 154.835938 86.511719 156.507812 86.003906 C 158.179688 85.496094 159.863281 85.03125 161.558594 84.605469 C 163.253906 84.179688 164.957031 83.796875 166.671875 83.457031 C 168.386719 83.117188 170.105469 82.816406 171.835938 82.5625 C 173.5625 82.304688 175.296875 82.089844 177.035156 81.917969 C 178.773438 81.75 180.515625 81.621094 182.261719 81.535156 C 184.007812 81.449219 185.753906 81.40625 187.5 81.40625 C 189.246094 81.40625 190.992188 81.449219 192.738281 81.535156 C 194.484375 81.621094 196.226562 81.75 197.964844 81.917969 C 199.703125 82.089844 201.4375 82.304688 203.164062 82.5625 C 204.894531 82.816406 206.613281 83.117188 208.328125 83.457031 C 210.042969 83.796875 211.746094 84.179688 213.441406 84.605469 C 215.136719 85.03125 216.820312 85.496094 218.492188 86.003906 C 220.164062 86.511719 221.820312 87.058594 223.46875 87.648438 C 225.113281 88.234375 226.742188 88.863281 228.355469 89.53125 C 229.96875 90.199219 231.566406 90.910156 233.144531 91.65625 C 234.726562 92.402344 236.285156 93.1875 237.828125 94.011719 C 239.367188 94.835938 240.886719 95.695312 242.386719 96.59375 C 243.886719 97.492188 245.359375 98.425781 246.8125 99.398438 C 248.265625 100.367188 249.695312 101.375 251.097656 102.414062 C 252.5 103.457031 253.878906 104.53125 255.230469 105.640625 C 256.578125 106.746094 257.902344 107.890625 259.195312 109.0625 C 260.492188 110.234375 261.757812 111.441406 262.992188 112.675781 C 264.226562 113.910156 265.433594 115.175781 266.605469 116.46875 C 267.777344 117.765625 268.917969 119.085938 270.027344 120.4375 C 271.136719 121.789062 272.210938 123.167969 273.25 124.570312 C 274.292969 125.972656 275.296875 127.402344 276.269531 128.855469 C 277.238281 130.304688 278.175781 131.78125 279.074219 133.28125 C 279.96875 134.78125 280.832031 136.300781 281.65625 137.839844 C 282.480469 139.382812 283.265625 140.941406 284.011719 142.519531 C 284.757812 144.101562 285.464844 145.695312 286.132812 147.3125 C 286.804688 148.925781 287.433594 150.554688 288.019531 152.199219 C 288.609375 153.84375 289.15625 155.503906 289.664062 157.175781 C 290.171875 158.847656 290.636719 160.53125 291.0625 162.226562 C 291.488281 163.921875 291.871094 165.625 292.210938 167.339844 C 292.550781 169.050781 292.847656 170.773438 293.105469 172.503906 C 293.363281 174.230469 293.578125 175.964844 293.746094 177.703125 C 293.917969 179.441406 294.046875 181.183594 294.132812 182.929688 C 294.21875 184.671875 294.261719 186.421875 294.261719 188.167969 C 294.257812 189.914062 294.214844 191.660156 294.125 193.402344 C 294.039062 195.148438 293.90625 196.890625 293.734375 198.628906 C 293.5625 200.367188 293.34375 202.097656 293.085938 203.824219 C 292.828125 205.554688 292.527344 207.273438 292.1875 208.984375 C 291.84375 210.699219 291.460938 212.402344 291.035156 214.09375 C 290.609375 215.789062 290.140625 217.472656 289.632812 219.144531 C 289.125 220.8125 288.574219 222.472656 287.984375 224.113281 C 287.394531 225.757812 286.765625 227.386719 286.097656 229 C 285.425781 230.613281 284.71875 232.210938 283.972656 233.789062 C 283.222656 235.367188 282.4375 236.925781 281.613281 238.464844 C 280.789062 240.007812 279.929688 241.523438 279.03125 243.023438 C 278.128906 244.519531 277.195312 245.996094 276.226562 247.445312 C 275.253906 248.898438 274.25 250.328125 273.207031 251.730469 C 272.167969 253.132812 271.09375 254.507812 269.984375 255.859375 C 268.875 257.207031 267.734375 258.53125 266.5625 259.824219 C 265.390625 261.117188 264.183594 262.382812 262.949219 263.617188 C 261.714844 264.851562 260.449219 266.054688 259.15625 267.230469 C 257.863281 268.402344 256.539062 269.542969 255.191406 270.652344 C 253.839844 271.761719 252.464844 272.835938 251.0625 273.875 C 249.660156 274.914062 248.230469 275.921875 246.78125 276.890625 C 245.328125 277.863281 243.851562 278.796875 242.355469 279.695312 C 240.859375 280.59375 239.339844 281.457031 237.800781 282.28125 C 236.257812 283.105469 234.699219 283.890625 233.121094 284.636719 C 231.542969 285.386719 229.945312 286.09375 228.332031 286.765625 C 226.71875 287.433594 225.09375 288.0625 223.449219 288.652344 C 221.804688 289.242188 220.144531 289.792969 218.476562 290.300781 C 216.804688 290.808594 215.121094 291.273438 213.429688 291.703125 C 211.734375 292.128906 210.03125 292.511719 208.316406 292.855469 C 206.605469 293.195312 204.886719 293.496094 203.15625 293.753906 C 201.429688 294.011719 199.699219 294.230469 197.960938 294.402344 C 196.222656 294.574219 194.480469 294.707031 192.738281 294.792969 C 190.992188 294.882812 189.246094 294.925781 187.5 294.929688 Z M 236.96875 152.042969 C 237.589844 152.660156 238.144531 153.335938 238.628906 154.0625 C 239.117188 154.792969 239.527344 155.5625 239.863281 156.371094 C 240.199219 157.179688 240.453125 158.015625 240.625 158.875 C 240.796875 159.734375 240.878906 160.601562 240.878906 161.476562 C 240.878906 162.351562 240.796875 163.222656 240.625 164.082031 C 240.453125 164.941406 240.199219 165.773438 239.863281 166.582031 C 239.527344 167.394531 239.117188 168.164062 238.628906 168.890625 C 238.144531 169.621094 237.589844 170.292969 236.96875 170.914062 L 183.589844 224.292969 C 182.96875 224.914062 182.296875 225.464844 181.566406 225.953125 C 180.839844 226.441406 180.070312 226.851562 179.261719 227.1875 C 178.453125 227.523438 177.617188 227.777344 176.757812 227.945312 C 175.898438 228.117188 175.03125 228.203125 174.15625 228.203125 C 173.277344 228.203125 172.410156 228.117188 171.550781 227.945312 C 170.691406 227.777344 169.855469 227.523438 169.046875 227.1875 C 168.238281 226.851562 167.46875 226.441406 166.742188 225.953125 C 166.011719 225.464844 165.339844 224.914062 164.71875 224.292969 L 138.027344 197.601562 C 137.410156 196.984375 136.859375 196.308594 136.371094 195.582031 C 135.886719 194.851562 135.476562 194.082031 135.140625 193.273438 C 134.808594 192.464844 134.554688 191.632812 134.386719 190.773438 C 134.214844 189.914062 134.128906 189.046875 134.128906 188.171875 C 134.132812 187.296875 134.21875 186.429688 134.386719 185.570312 C 134.558594 184.710938 134.8125 183.878906 135.148438 183.066406 C 135.484375 182.257812 135.894531 181.492188 136.378906 180.761719 C 136.867188 180.035156 137.417969 179.363281 138.039062 178.742188 C 138.65625 178.125 139.332031 177.570312 140.058594 177.085938 C 140.789062 176.597656 141.554688 176.1875 142.363281 175.851562 C 143.171875 175.515625 144.007812 175.261719 144.867188 175.089844 C 145.722656 174.921875 146.589844 174.835938 147.46875 174.835938 C 148.34375 174.832031 149.210938 174.917969 150.070312 175.089844 C 150.925781 175.257812 151.761719 175.511719 152.570312 175.847656 C 153.378906 176.179688 154.148438 176.589844 154.878906 177.074219 C 155.605469 177.5625 156.28125 178.113281 156.898438 178.730469 L 174.15625 195.988281 L 218.101562 152.039062 C 218.71875 151.421875 219.394531 150.867188 220.121094 150.382812 C 220.851562 149.894531 221.621094 149.484375 222.429688 149.148438 C 223.238281 148.8125 224.074219 148.558594 224.933594 148.386719 C 225.792969 148.21875 226.660156 148.132812 227.535156 148.132812 C 228.410156 148.132812 229.28125 148.21875 230.140625 148.386719 C 231 148.558594 231.832031 148.8125 232.640625 149.148438 C 233.453125 149.484375 234.21875 149.894531 234.949219 150.382812 C 235.675781 150.867188 236.351562 151.421875 236.96875 152.042969 Z M 236.96875 152.042969 " fill-opacity="1" fill-rule="nonzero"/></svg>