<svg xmlns="http://www.w3.org/2000/svg" xmlns:xlink="http://www.w3.org/1999/xlink" width="500" zoomAndPan="magnify" viewBox="0 0 375 374.999991" height="500" preserveAspectRatio="xMidYMid meet" version="1.0"><defs><clipPath id="57b19c4eec"><path d="M 34 150 L 375 150 L 375 288.679688 L 34 288.679688 Z M 34 150 " clip-rule="nonzero"/></clipPath></defs><g clip-path="url(#57b19c4eec)"><path fill="#071952" d="M 348.1875 233.738281 C 348.1875 235.371094 346.867188 236.691406 345.234375 236.691406 L 302.605469 236.691406 C 301.070312 236.691406 299.800781 235.429688 299.800781 233.867188 L 299.800781 179.738281 C 299.800781 178.117188 301.121094 176.804688 302.734375 176.804688 L 345.234375 176.804688 C 346.867188 176.804688 348.1875 178.125 348.1875 179.757812 Z M 348.1875 272.363281 C 348.1875 273.015625 347.648438 273.546875 346.996094 273.546875 L 333.53125 273.546875 C 332.886719 273.546875 332.363281 273.023438 332.363281 272.382812 L 332.363281 255.347656 C 332.363281 254.703125 332.886719 254.179688 333.53125 254.179688 L 347.167969 254.179688 C 347.722656 254.179688 348.1875 254.644531 348.1875 255.226562 Z M 317.691406 272.363281 C 317.691406 273.015625 317.148438 273.546875 316.496094 273.546875 L 303.058594 273.546875 C 302.40625 273.546875 301.867188 273.015625 301.867188 272.363281 L 301.867188 255.347656 C 301.867188 254.703125 302.390625 254.179688 303.035156 254.179688 L 316.515625 254.179688 C 317.167969 254.179688 317.691406 254.703125 317.691406 255.347656 Z M 287.191406 272.363281 C 287.191406 273.015625 286.652344 273.546875 286 273.546875 L 272.5625 273.546875 C 271.902344 273.546875 271.371094 273.015625 271.371094 272.363281 L 271.371094 255.226562 C 271.371094 254.644531 271.832031 254.179688 272.390625 254.179688 L 286.042969 254.179688 C 286.679688 254.179688 287.191406 254.695312 287.191406 255.332031 Z M 268.519531 233.867188 C 268.519531 235.429688 267.257812 236.691406 265.714844 236.691406 L 223.09375 236.691406 C 221.460938 236.691406 220.140625 235.371094 220.140625 233.738281 L 220.140625 179.738281 C 220.140625 178.117188 221.453125 176.804688 223.066406 176.804688 L 265.585938 176.804688 C 267.207031 176.804688 268.519531 178.117188 268.519531 179.730469 Z M 256.695312 272.363281 C 256.695312 273.015625 256.15625 273.546875 255.503906 273.546875 L 242.054688 273.546875 C 241.40625 273.546875 240.871094 273.015625 240.871094 272.363281 L 240.871094 255.347656 C 240.871094 254.703125 241.394531 254.179688 242.039062 254.179688 L 255.539062 254.179688 C 256.179688 254.179688 256.695312 254.695312 256.695312 255.332031 Z M 226.214844 272.363281 C 226.214844 273.015625 225.675781 273.546875 225.023438 273.546875 L 211.585938 273.546875 C 210.925781 273.546875 210.390625 273.015625 210.390625 272.363281 L 210.390625 255.332031 C 210.390625 254.695312 210.90625 254.179688 211.542969 254.179688 L 225.1875 254.179688 C 225.753906 254.179688 226.214844 254.644531 226.214844 255.226562 Z M 195.710938 272.363281 C 195.710938 273.015625 195.179688 273.546875 194.527344 273.546875 L 181.078125 273.546875 C 180.425781 273.546875 179.894531 273.015625 179.894531 272.363281 L 179.894531 255.347656 C 179.894531 254.703125 180.417969 254.179688 181.0625 254.179688 L 194.570312 254.179688 C 195.203125 254.179688 195.710938 254.695312 195.710938 255.332031 Z M 165.210938 272.363281 C 165.210938 273.015625 164.679688 273.546875 164.027344 273.546875 L 150.582031 273.546875 C 149.929688 273.546875 149.398438 273.015625 149.398438 272.363281 L 149.398438 255.347656 C 149.398438 254.703125 149.921875 254.179688 150.566406 254.179688 L 164.191406 254.179688 C 164.757812 254.179688 165.210938 254.644531 165.210938 255.226562 Z M 140.492188 233.867188 L 140.492188 179.738281 C 140.492188 178.117188 141.804688 176.804688 143.425781 176.804688 L 185.917969 176.804688 C 187.550781 176.804688 188.878906 178.125 188.878906 179.757812 L 188.878906 233.738281 C 188.878906 235.371094 187.550781 236.691406 185.917969 236.691406 L 143.296875 236.691406 C 141.75 236.691406 140.492188 235.429688 140.492188 233.867188 Z M 134.714844 272.363281 C 134.714844 273.015625 134.183594 273.546875 133.523438 273.546875 L 120.085938 273.546875 C 119.433594 273.546875 118.898438 273.015625 118.898438 272.363281 L 118.898438 255.347656 C 118.898438 254.703125 119.421875 254.179688 120.066406 254.179688 L 133.546875 254.179688 C 134.191406 254.179688 134.714844 254.703125 134.714844 255.347656 Z M 109.210938 233.867188 C 109.210938 235.429688 107.949219 236.691406 106.40625 236.691406 L 63.773438 236.691406 C 62.144531 236.691406 60.824219 235.371094 60.824219 233.738281 L 60.824219 179.738281 C 60.824219 178.117188 62.136719 176.804688 63.757812 176.804688 L 106.40625 176.804688 C 107.949219 176.804688 109.210938 178.039062 109.210938 179.609375 Z M 104.234375 272.363281 C 104.234375 273.015625 103.703125 273.546875 103.050781 273.546875 L 89.605469 273.546875 C 88.953125 273.546875 88.421875 273.015625 88.421875 272.363281 L 88.421875 255.226562 C 88.421875 254.644531 88.875 254.179688 89.441406 254.179688 L 103.085938 254.179688 C 103.71875 254.179688 104.234375 254.695312 104.234375 255.332031 Z M 73.738281 272.363281 C 73.738281 273.015625 73.207031 273.546875 72.554688 273.546875 L 59.105469 273.546875 C 58.445312 273.546875 57.914062 273.015625 57.914062 272.363281 L 57.914062 255.226562 C 57.914062 254.644531 58.378906 254.179688 58.945312 254.179688 L 72.589844 254.179688 C 73.222656 254.179688 73.738281 254.695312 73.738281 255.332031 Z M 368.808594 222.421875 L 374.867188 222.421875 C 374.933594 222.421875 374.996094 222.363281 374.996094 222.292969 L 374.996094 157.402344 C 374.996094 153.765625 372.050781 150.8125 368.414062 150.8125 L 40.46875 150.8125 C 36.925781 150.8125 34.015625 153.703125 34.015625 157.273438 L 34.015625 184.914062 C 34.015625 184.980469 34.074219 185.042969 34.144531 185.042969 L 38.882812 185.042969 C 39.917969 185.042969 40.753906 185.882812 40.753906 186.914062 L 40.753906 193.160156 C 40.753906 194.191406 39.917969 195.023438 38.882812 195.023438 L 34.144531 195.023438 C 34.074219 195.023438 34.015625 195.082031 34.015625 195.152344 L 34.015625 206.675781 C 34.015625 206.742188 34.074219 206.796875 34.144531 206.796875 L 38.882812 206.796875 C 39.917969 206.796875 40.753906 207.636719 40.753906 208.667969 L 40.753906 214.914062 C 40.753906 215.941406 39.917969 216.785156 38.882812 216.785156 L 34.144531 216.785156 C 34.074219 216.785156 34.015625 216.84375 34.015625 216.914062 L 34.015625 281.804688 C 34.015625 285.441406 36.96875 288.382812 40.597656 288.382812 L 368.414062 288.382812 C 372.050781 288.382812 374.996094 285.441406 374.996094 281.804688 L 374.996094 254.285156 C 374.996094 254.214844 374.933594 254.164062 374.867188 254.164062 L 368.78125 254.164062 C 367.761719 254.164062 366.9375 253.332031 366.9375 252.308594 L 366.9375 246.046875 C 366.9375 245.015625 367.769531 244.175781 368.808594 244.175781 L 374.867188 244.175781 C 374.933594 244.175781 374.996094 244.113281 374.996094 244.046875 L 374.996094 232.53125 C 374.996094 232.460938 374.933594 232.402344 374.867188 232.402344 L 368.78125 232.402344 C 367.761719 232.402344 366.9375 231.578125 366.9375 230.554688 L 366.9375 224.292969 C 366.9375 223.253906 367.769531 222.421875 368.808594 222.421875 " fill-opacity="1" fill-rule="nonzero"/></g><path fill="#071952" d="M 17.816406 195.992188 C 17.78125 196.058594 17.761719 196.101562 17.71875 196.164062 L 23.109375 215.566406 C 23.144531 215.695312 23.332031 215.667969 23.332031 215.53125 L 23.332031 194.085938 C 23.09375 194.394531 22.773438 194.609375 22.386719 194.730469 L 17.816406 195.992188 " fill-opacity="1" fill-rule="nonzero"/><path fill="#071952" d="M 350.480469 120.058594 C 350.417969 120.015625 350.375 119.996094 350.316406 119.964844 L 344.464844 121.585938 C 343.476562 121.859375 342.457031 121.285156 342.171875 120.296875 L 340.507812 114.265625 C 340.234375 113.261719 340.816406 112.238281 341.792969 111.957031 L 347.636719 110.335938 C 347.671875 110.273438 347.691406 110.242188 347.734375 110.171875 L 330.382812 47.648438 C 329.421875 44.140625 325.792969 42.097656 322.28125 43.058594 L 6.265625 130.722656 C 2.859375 131.667969 0.832031 135.238281 1.777344 138.671875 L 9.171875 165.304688 C 9.234375 165.339844 9.269531 165.355469 9.335938 165.398438 L 13.894531 164.128906 C 14.878906 163.855469 15.917969 164.449219 16.191406 165.433594 L 17.882812 171.449219 C 18.140625 172.453125 17.558594 173.476562 16.570312 173.757812 L 11.996094 175.027344 C 11.953125 175.089844 11.9375 175.121094 11.902344 175.183594 L 14.992188 186.277344 C 15.050781 186.3125 15.085938 186.339844 15.15625 186.371094 L 19.703125 185.109375 C 20.707031 184.828125 21.746094 185.402344 22.011719 186.414062 L 23.222656 190.75 C 23.222656 190.75 23.332031 191.09375 23.332031 190.75 L 23.332031 161.246094 C 23.332031 148.898438 33.347656 138.882812 45.6875 138.882812 L 111.640625 138.882812 C 111.992188 138.882812 112.25 138.550781 112.15625 138.207031 L 110.394531 131.847656 C 109.957031 130.304688 110.878906 128.679688 112.421875 128.242188 L 153.386719 116.890625 C 154.949219 116.453125 156.578125 117.371094 157.019531 118.933594 L 162.441406 138.5 C 162.507812 138.730469 162.714844 138.882812 162.964844 138.882812 L 194.292969 138.882812 C 194.644531 138.882812 194.902344 138.550781 194.808594 138.207031 L 187.136719 110.574219 C 186.691406 109.011719 187.617188 107.382812 189.179688 106.960938 L 230.144531 95.59375 C 231.707031 95.15625 233.339844 96.082031 233.757812 97.644531 L 245.09375 138.5 C 245.164062 138.730469 245.367188 138.882812 245.609375 138.882812 L 276.964844 138.882812 C 277.316406 138.882812 277.574219 138.550781 277.480469 138.207031 L 263.894531 89.277344 C 263.476562 87.714844 264.375 86.09375 265.9375 85.648438 L 306.886719 74.304688 C 308.464844 73.855469 310.097656 74.785156 310.535156 76.34375 L 324.96875 128.382812 C 325.386719 129.941406 324.46875 131.566406 322.90625 132.011719 L 299.429688 138.515625 C 299.222656 138.574219 299.265625 138.882812 299.480469 138.882812 L 346.625 138.882812 C 346.976562 138.882812 347.234375 138.550781 347.140625 138.214844 L 346.324219 135.21875 C 346.050781 134.214844 346.632812 133.1875 347.636719 132.910156 L 353.464844 131.289062 C 353.492188 131.230469 353.515625 131.203125 353.542969 131.144531 L 350.480469 120.058594 " fill-opacity="1" fill-rule="nonzero"/></svg>