<svg xmlns="http://www.w3.org/2000/svg" xmlns:xlink="http://www.w3.org/1999/xlink" width="500" zoomAndPan="magnify" viewBox="0 0 375 374.999991" height="500" preserveAspectRatio="xMidYMid meet" version="1.0"><defs><clipPath id="76272e4497"><path d="M 78 297 L 297 297 L 297 345.75 L 78 345.75 Z M 78 297 " clip-rule="nonzero"/></clipPath><clipPath id="94c391aaa2"><path d="M 0 37.5 L 375 37.5 L 375 304 L 0 304 Z M 0 37.5 " clip-rule="nonzero"/></clipPath></defs><g clip-path="url(#76272e4497)"><path fill="#071952" d="M 295.222656 300.070312 C 294.085938 298.488281 292.261719 297.554688 290.3125 297.554688 L 84.6875 297.554688 C 82.738281 297.554688 80.914062 298.488281 79.777344 300.070312 C 78.640625 301.644531 78.324219 303.675781 78.941406 305.515625 L 85.523438 325.265625 C 89.660156 337.628906 101.1875 345.9375 114.210938 345.9375 L 260.773438 345.9375 C 273.8125 345.9375 285.339844 337.628906 289.464844 325.265625 L 296.046875 305.515625 C 296.664062 303.675781 296.359375 301.644531 295.222656 300.070312 Z M 295.222656 300.070312 " fill-opacity="1" fill-rule="nonzero"/></g><g clip-path="url(#94c391aaa2)"><path fill="#071952" d="M 350.789062 303.601562 L 24.210938 303.601562 C 10.84375 303.601562 0.0195312 292.777344 0.0195312 279.410156 L 0.0195312 61.691406 C 0.0195312 48.324219 10.84375 37.5 24.210938 37.5 L 350.789062 37.5 C 364.15625 37.5 374.980469 48.324219 374.980469 61.691406 L 374.980469 279.410156 C 374.980469 292.777344 364.15625 303.601562 350.789062 303.601562 Z M 338.695312 243.125 L 338.695312 97.976562 C 338.695312 84.613281 327.871094 73.785156 314.503906 73.785156 L 60.496094 73.785156 C 47.128906 73.785156 36.304688 84.613281 36.304688 97.976562 L 36.304688 243.125 C 36.304688 256.492188 47.128906 267.316406 60.496094 267.316406 L 314.503906 267.316406 C 327.871094 267.316406 338.695312 256.492188 338.695312 243.125 Z M 338.695312 243.125 " fill-opacity="1" fill-rule="nonzero"/></g></svg>