<svg xmlns="http://www.w3.org/2000/svg" xmlns:xlink="http://www.w3.org/1999/xlink" width="500" zoomAndPan="magnify" viewBox="0 0 375 374.999991" height="500" preserveAspectRatio="xMidYMid meet" version="1.0"><defs><clipPath id="2c66eef043"><path d="M 10 0 L 365.90625 0 L 365.90625 375 L 10 375 Z M 10 0 " clip-rule="nonzero"/></clipPath></defs><g clip-path="url(#2c66eef043)"><path fill="#071952" d="M 188.386719 0.910156 C 149.1875 0.910156 117.304688 32.789062 117.304688 71.992188 L 63.996094 71.992188 C 46.242188 71.992188 31.46875 84.351562 28.695312 102.707031 L 11.066406 334.59375 C 9.5 344.792969 12.6875 355.03125 19.742188 362.636719 C 26.460938 369.921875 36.128906 374.089844 46.222656 374.089844 L 330.550781 374.089844 C 340.644531 374.089844 350.300781 369.921875 357 362.671875 C 364.089844 355.03125 367.253906 344.8125 365.851562 335.945312 L 348.113281 102.707031 L 347.941406 101.355469 C 345.3125 84.347656 330.535156 71.992188 312.78125 71.992188 L 259.46875 71.992188 C 259.46875 32.789062 227.589844 0.910156 188.386719 0.910156 Z M 188.386719 36.449219 C 207.988281 36.449219 223.929688 52.390625 223.929688 71.992188 L 152.847656 71.992188 C 152.847656 52.390625 168.789062 36.449219 188.386719 36.449219 Z M 93.773438 146.71875 L 122.859375 146.71875 L 122.859375 217.140625 L 125.773438 213.253906 L 147.710938 185.972656 L 182.558594 185.972656 L 149.863281 224.394531 L 184.710938 279.371094 L 151.425781 279.371094 L 131.050781 244.59375 L 122.824219 252.785156 L 122.824219 279.371094 L 93.773438 279.371094 Z M 231.148438 184.273438 C 240.871094 184.273438 248.480469 187.539062 253.917969 194.09375 L 254.957031 185.972656 L 281.371094 185.972656 L 281.371094 275.832031 C 281.371094 284.058594 279.464844 291.203125 275.609375 297.28125 C 271.789062 303.339844 266.289062 308 259.019531 311.234375 C 251.769531 314.503906 243.363281 316.09375 233.820312 316.09375 C 226.980469 316.09375 220.347656 314.816406 213.933594 312.207031 C 207.519531 309.613281 202.613281 306.261719 199.21875 302.140625 L 211.398438 285.03125 C 216.800781 291.410156 223.929688 294.609375 232.78125 294.609375 C 245.664062 294.609375 252.113281 288.011719 252.113281 274.789062 L 252.113281 271.839844 C 246.53125 278.007812 239.46875 281.074219 230.976562 281.074219 C 219.585938 281.074219 210.386719 276.746094 203.347656 268.023438 C 196.328125 259.316406 192.832031 247.660156 192.832031 233.035156 L 192.832031 231.996094 C 192.832031 222.578125 194.390625 214.222656 197.480469 206.972656 C 200.609375 199.738281 205.070312 194.101562 210.878906 190.171875 C 216.691406 186.246094 223.4375 184.273438 231.148438 184.273438 Z M 238.578125 206.695312 C 233.386719 206.675781 229.34375 209.015625 226.394531 213.636719 C 223.460938 218.292969 221.984375 224.988281 221.984375 233.800781 C 221.984375 241.441406 223.445312 247.511719 226.324219 251.953125 C 229.183594 256.414062 233.214844 258.652344 238.402344 258.652344 C 244.65625 258.652344 249.234375 256.527344 252.113281 252.335938 L 252.113281 213.078125 C 249.304688 208.832031 244.796875 206.695312 238.578125 206.695312 Z M 238.578125 206.695312 " fill-opacity="1" fill-rule="nonzero"/></g></svg>