<svg xmlns="http://www.w3.org/2000/svg" xmlns:xlink="http://www.w3.org/1999/xlink" width="500" zoomAndPan="magnify" viewBox="0 0 375 374.999991" height="500" preserveAspectRatio="xMidYMid meet" version="1.0"><defs><clipPath id="1bdc0694e2"><path d="M 3 4 L 372.992188 4 L 372.992188 374.640625 L 3 374.640625 Z M 3 4 " clip-rule="nonzero"/></clipPath></defs><path fill="#071952" d="M 267.738281 275.113281 L 109.3125 275.113281 C 105.667969 275.113281 102.710938 272.140625 102.710938 268.511719 L 102.710938 110.085938 C 102.710938 106.441406 105.667969 103.484375 109.3125 103.484375 L 267.738281 103.484375 C 271.367188 103.484375 274.339844 106.441406 274.339844 110.085938 L 274.339844 268.511719 C 274.339844 272.140625 271.367188 275.113281 267.738281 275.113281 Z M 115.914062 261.910156 L 261.136719 261.910156 L 261.136719 116.6875 L 115.914062 116.6875 Z M 115.914062 261.910156 " fill-opacity="1" fill-rule="nonzero"/><g clip-path="url(#1bdc0694e2)"><path fill="#071952" d="M 366.753906 103.484375 C 370.382812 103.484375 373.355469 100.527344 373.355469 96.882812 C 373.355469 93.238281 370.382812 90.28125 366.753906 90.28125 L 327.148438 90.28125 L 327.148438 77.078125 L 366.753906 77.078125 C 370.382812 77.078125 373.355469 74.121094 373.355469 70.476562 C 373.355469 66.835938 370.382812 63.878906 366.753906 63.878906 L 327.148438 63.878906 L 327.148438 57.277344 C 327.148438 53.632812 324.175781 50.675781 320.546875 50.675781 L 313.945312 50.675781 L 313.945312 11.070312 C 313.945312 7.425781 310.976562 4.46875 307.34375 4.46875 C 303.714844 4.46875 300.742188 7.425781 300.742188 11.070312 L 300.742188 50.675781 L 287.539062 50.675781 L 287.539062 11.070312 C 287.539062 7.425781 284.570312 4.46875 280.941406 4.46875 C 277.308594 4.46875 274.339844 7.425781 274.339844 11.070312 L 274.339844 50.675781 L 261.136719 50.675781 L 261.136719 11.070312 C 261.136719 7.425781 258.164062 4.46875 254.535156 4.46875 C 250.90625 4.46875 247.933594 7.425781 247.933594 11.070312 L 247.933594 50.675781 L 234.730469 50.675781 L 234.730469 11.070312 C 234.730469 7.425781 231.761719 4.46875 228.132812 4.46875 C 224.5 4.46875 221.53125 7.425781 221.53125 11.070312 L 221.53125 50.675781 L 208.328125 50.675781 L 208.328125 11.070312 C 208.328125 7.425781 205.355469 4.46875 201.726562 4.46875 C 198.097656 4.46875 195.125 7.425781 195.125 11.070312 L 195.125 50.675781 L 181.921875 50.675781 L 181.921875 11.070312 C 181.921875 7.425781 178.964844 4.46875 175.320312 4.46875 C 171.679688 4.46875 168.722656 7.425781 168.722656 11.070312 L 168.722656 50.675781 L 155.519531 50.675781 L 155.519531 11.070312 C 155.519531 7.425781 152.5625 4.46875 148.917969 4.46875 C 145.273438 4.46875 142.316406 7.425781 142.316406 11.070312 L 142.316406 50.675781 L 129.113281 50.675781 L 129.113281 11.070312 C 129.113281 7.425781 126.15625 4.46875 122.511719 4.46875 C 118.871094 4.46875 115.914062 7.425781 115.914062 11.070312 L 115.914062 50.675781 L 102.710938 50.675781 L 102.710938 11.070312 C 102.710938 7.425781 99.753906 4.46875 96.109375 4.46875 C 92.464844 4.46875 89.507812 7.425781 89.507812 11.070312 L 89.507812 50.675781 L 76.304688 50.675781 L 76.304688 11.070312 C 76.304688 7.425781 73.347656 4.46875 69.703125 4.46875 C 66.0625 4.46875 63.105469 7.425781 63.105469 11.070312 L 63.105469 50.675781 L 56.503906 50.675781 C 52.859375 50.675781 49.902344 53.632812 49.902344 57.277344 L 49.902344 63.878906 L 10.296875 63.878906 C 6.652344 63.878906 3.695312 66.835938 3.695312 70.476562 C 3.695312 74.121094 6.652344 77.078125 10.296875 77.078125 L 49.902344 77.078125 L 49.902344 90.28125 L 10.296875 90.28125 C 6.652344 90.28125 3.695312 93.238281 3.695312 96.882812 C 3.695312 100.527344 6.652344 103.484375 10.296875 103.484375 L 49.902344 103.484375 L 49.902344 116.6875 L 10.296875 116.6875 C 6.652344 116.6875 3.695312 119.644531 3.695312 123.289062 C 3.695312 126.929688 6.652344 129.886719 10.296875 129.886719 L 49.902344 129.886719 L 49.902344 143.089844 L 10.296875 143.089844 C 6.652344 143.089844 3.695312 146.046875 3.695312 149.691406 C 3.695312 153.335938 6.652344 156.292969 10.296875 156.292969 L 49.902344 156.292969 L 49.902344 169.496094 L 10.296875 169.496094 C 6.652344 169.496094 3.695312 172.453125 3.695312 176.097656 C 3.695312 179.738281 6.652344 182.695312 10.296875 182.695312 L 49.902344 182.695312 L 49.902344 195.898438 L 10.296875 195.898438 C 6.652344 195.898438 3.695312 198.871094 3.695312 202.5 C 3.695312 206.128906 6.652344 209.101562 10.296875 209.101562 L 49.902344 209.101562 L 49.902344 222.304688 L 10.296875 222.304688 C 6.652344 222.304688 3.695312 225.273438 3.695312 228.90625 C 3.695312 232.535156 6.652344 235.503906 10.296875 235.503906 L 49.902344 235.503906 L 49.902344 248.707031 L 10.296875 248.707031 C 6.652344 248.707031 3.695312 251.679688 3.695312 255.308594 C 3.695312 258.941406 6.652344 261.910156 10.296875 261.910156 L 49.902344 261.910156 L 49.902344 275.113281 L 10.296875 275.113281 C 6.652344 275.113281 3.695312 278.082031 3.695312 281.714844 C 3.695312 285.34375 6.652344 288.3125 10.296875 288.3125 L 49.902344 288.3125 L 49.902344 301.515625 L 10.296875 301.515625 C 6.652344 301.515625 3.695312 304.488281 3.695312 308.117188 C 3.695312 311.75 6.652344 314.71875 10.296875 314.71875 L 49.902344 314.71875 L 49.902344 321.320312 C 49.902344 324.949219 52.859375 327.921875 56.503906 327.921875 L 63.105469 327.921875 L 63.105469 367.527344 C 63.105469 371.15625 66.0625 374.128906 69.703125 374.128906 C 73.347656 374.128906 76.304688 371.15625 76.304688 367.527344 L 76.304688 327.921875 L 89.507812 327.921875 L 89.507812 367.527344 C 89.507812 371.15625 92.464844 374.128906 96.109375 374.128906 C 99.753906 374.128906 102.710938 371.15625 102.710938 367.527344 L 102.710938 327.921875 L 115.914062 327.921875 L 115.914062 367.527344 C 115.914062 371.15625 118.871094 374.128906 122.511719 374.128906 C 126.15625 374.128906 129.113281 371.15625 129.113281 367.527344 L 129.113281 327.921875 L 142.316406 327.921875 L 142.316406 367.527344 C 142.316406 371.15625 145.273438 374.128906 148.917969 374.128906 C 152.5625 374.128906 155.519531 371.15625 155.519531 367.527344 L 155.519531 327.921875 L 168.722656 327.921875 L 168.722656 367.527344 C 168.722656 371.15625 171.679688 374.128906 175.320312 374.128906 C 178.964844 374.128906 181.921875 371.15625 181.921875 367.527344 L 181.921875 327.921875 L 195.125 327.921875 L 195.125 367.527344 C 195.125 371.15625 198.097656 374.128906 201.726562 374.128906 C 205.355469 374.128906 208.328125 371.15625 208.328125 367.527344 L 208.328125 327.921875 L 221.53125 327.921875 L 221.53125 367.527344 C 221.53125 371.15625 224.5 374.128906 228.132812 374.128906 C 231.761719 374.128906 234.730469 371.15625 234.730469 367.527344 L 234.730469 327.921875 L 247.933594 327.921875 L 247.933594 367.527344 C 247.933594 371.15625 250.90625 374.128906 254.535156 374.128906 C 258.164062 374.128906 261.136719 371.15625 261.136719 367.527344 L 261.136719 327.921875 L 274.339844 327.921875 L 274.339844 367.527344 C 274.339844 371.15625 277.308594 374.128906 280.941406 374.128906 C 284.570312 374.128906 287.539062 371.15625 287.539062 367.527344 L 287.539062 327.921875 L 300.742188 327.921875 L 300.742188 367.527344 C 300.742188 371.15625 303.714844 374.128906 307.34375 374.128906 C 310.976562 374.128906 313.945312 371.15625 313.945312 367.527344 L 313.945312 327.921875 L 320.546875 327.921875 C 324.175781 327.921875 327.148438 324.949219 327.148438 321.320312 L 327.148438 314.71875 L 366.753906 314.71875 C 370.382812 314.71875 373.355469 311.75 373.355469 308.117188 C 373.355469 304.488281 370.382812 301.515625 366.753906 301.515625 L 327.148438 301.515625 L 327.148438 288.3125 L 366.753906 288.3125 C 370.382812 288.3125 373.355469 285.34375 373.355469 281.714844 C 373.355469 278.082031 370.382812 275.113281 366.753906 275.113281 L 327.148438 275.113281 L 327.148438 261.910156 L 366.753906 261.910156 C 370.382812 261.910156 373.355469 258.941406 373.355469 255.308594 C 373.355469 251.679688 370.382812 248.707031 366.753906 248.707031 L 327.148438 248.707031 L 327.148438 235.503906 L 366.753906 235.503906 C 370.382812 235.503906 373.355469 232.535156 373.355469 228.90625 C 373.355469 225.273438 370.382812 222.304688 366.753906 222.304688 L 327.148438 222.304688 L 327.148438 209.101562 L 366.753906 209.101562 C 370.382812 209.101562 373.355469 206.128906 373.355469 202.5 C 373.355469 198.871094 370.382812 195.898438 366.753906 195.898438 L 327.148438 195.898438 L 327.148438 182.695312 L 366.753906 182.695312 C 370.382812 182.695312 373.355469 179.738281 373.355469 176.097656 C 373.355469 172.453125 370.382812 169.496094 366.753906 169.496094 L 327.148438 169.496094 L 327.148438 156.292969 L 366.753906 156.292969 C 370.382812 156.292969 373.355469 153.335938 373.355469 149.691406 C 373.355469 146.046875 370.382812 143.089844 366.753906 143.089844 L 327.148438 143.089844 L 327.148438 129.886719 L 366.753906 129.886719 C 370.382812 129.886719 373.355469 126.929688 373.355469 123.289062 C 373.355469 119.644531 370.382812 116.6875 366.753906 116.6875 L 327.148438 116.6875 L 327.148438 103.484375 Z M 287.539062 268.511719 C 287.539062 279.429688 278.65625 288.3125 267.738281 288.3125 L 109.3125 288.3125 C 98.394531 288.3125 89.507812 279.429688 89.507812 268.511719 L 89.507812 110.085938 C 89.507812 99.167969 98.394531 90.28125 109.3125 90.28125 L 267.738281 90.28125 C 278.65625 90.28125 287.539062 99.167969 287.539062 110.085938 Z M 287.539062 268.511719 " fill-opacity="1" fill-rule="nonzero"/></g></svg>