<svg xmlns="http://www.w3.org/2000/svg" xmlns:xlink="http://www.w3.org/1999/xlink" width="500" zoomAndPan="magnify" viewBox="0 0 375 374.999991" height="500" preserveAspectRatio="xMidYMid meet" version="1.0"><defs><clipPath id="2dd7bc704b"><path d="M 75 112 L 300 112 L 300 263 L 75 263 Z M 75 112 " clip-rule="nonzero"/></clipPath><clipPath id="87d38192ff"><path d="M 0 37.5 L 0 337.5 C 0 347.855469 8.394531 356.25 18.75 356.25 L 356.25 356.25 C 366.605469 356.25 375 347.855469 375 337.5 L 375 37.5 C 375 27.144531 366.605469 18.75 356.25 18.75 L 18.75 18.75 C 8.394531 18.75 0 27.144531 0 37.5 Z M 0 37.5 " clip-rule="nonzero"/></clipPath><clipPath id="de71d5ae49"><path d="M 0 18.75 L 150 18.75 L 150 132 L 0 132 Z M 0 18.75 " clip-rule="nonzero"/></clipPath><clipPath id="675b660d33"><path d="M 0 37.5 L 0 337.5 C 0 347.855469 8.394531 356.25 18.75 356.25 L 356.25 356.25 C 366.605469 356.25 375 347.855469 375 337.5 L 375 37.5 C 375 27.144531 366.605469 18.75 356.25 18.75 L 18.75 18.75 C 8.394531 18.75 0 27.144531 0 37.5 Z M 0 37.5 " clip-rule="nonzero"/></clipPath><clipPath id="62257c4bd5"><path d="M 225 18.75 L 375 18.75 L 375 132 L 225 132 Z M 225 18.75 " clip-rule="nonzero"/></clipPath><clipPath id="e4d66b25a9"><path d="M 0 37.5 L 0 337.5 C 0 347.855469 8.394531 356.25 18.75 356.25 L 356.25 356.25 C 366.605469 356.25 375 347.855469 375 337.5 L 375 37.5 C 375 27.144531 366.605469 18.75 356.25 18.75 L 18.75 18.75 C 8.394531 18.75 0 27.144531 0 37.5 Z M 0 37.5 " clip-rule="nonzero"/></clipPath><clipPath id="d4937219d9"><path d="M 0 243 L 150 243 L 150 356.25 L 0 356.25 Z M 0 243 " clip-rule="nonzero"/></clipPath><clipPath id="9169928111"><path d="M 0 37.5 L 0 337.5 C 0 347.855469 8.394531 356.25 18.75 356.25 L 356.25 356.25 C 366.605469 356.25 375 347.855469 375 337.5 L 375 37.5 C 375 27.144531 366.605469 18.75 356.25 18.75 L 18.75 18.75 C 8.394531 18.75 0 27.144531 0 37.5 Z M 0 37.5 " clip-rule="nonzero"/></clipPath><clipPath id="187c028f44"><path d="M 225 243 L 375 243 L 375 356.25 L 225 356.25 Z M 225 243 " clip-rule="nonzero"/></clipPath><clipPath id="84faa6f1a4"><path d="M 0 37.5 L 0 337.5 C 0 347.855469 8.394531 356.25 18.75 356.25 L 356.25 356.25 C 366.605469 356.25 375 347.855469 375 337.5 L 375 37.5 C 375 27.144531 366.605469 18.75 356.25 18.75 L 18.75 18.75 C 8.394531 18.75 0 27.144531 0 37.5 Z M 0 37.5 " clip-rule="nonzero"/></clipPath></defs><g clip-path="url(#2dd7bc704b)"><g clip-path="url(#87d38192ff)"><path fill="#071952" d="M 75 131.25 L 75 243.75 C 75 244.363281 75.03125 244.976562 75.089844 245.585938 C 75.152344 246.199219 75.242188 246.804688 75.359375 247.40625 C 75.480469 248.011719 75.628906 248.605469 75.808594 249.191406 C 75.984375 249.78125 76.191406 250.359375 76.425781 250.925781 C 76.664062 251.492188 76.925781 252.046875 77.214844 252.589844 C 77.503906 253.128906 77.820312 253.65625 78.160156 254.167969 C 78.5 254.675781 78.867188 255.171875 79.257812 255.644531 C 79.644531 256.121094 80.058594 256.574219 80.492188 257.007812 C 80.925781 257.441406 81.378906 257.855469 81.855469 258.242188 C 82.328125 258.632812 82.824219 259 83.332031 259.339844 C 83.84375 259.679688 84.371094 259.996094 84.910156 260.285156 C 85.453125 260.574219 86.007812 260.835938 86.574219 261.074219 C 87.140625 261.308594 87.71875 261.515625 88.308594 261.691406 C 88.894531 261.871094 89.488281 262.019531 90.09375 262.140625 C 90.695312 262.257812 91.300781 262.347656 91.914062 262.410156 C 92.523438 262.46875 93.136719 262.5 93.75 262.5 L 281.25 262.5 C 281.863281 262.5 282.476562 262.46875 283.085938 262.410156 C 283.699219 262.347656 284.304688 262.257812 284.90625 262.140625 C 285.511719 262.019531 286.105469 261.871094 286.691406 261.691406 C 287.28125 261.515625 287.859375 261.308594 288.425781 261.074219 C 288.992188 260.835938 289.546875 260.574219 290.089844 260.285156 C 290.628906 259.996094 291.15625 259.679688 291.667969 259.339844 C 292.175781 259 292.671875 258.632812 293.144531 258.242188 C 293.621094 257.855469 294.074219 257.441406 294.507812 257.007812 C 294.941406 256.574219 295.355469 256.121094 295.742188 255.644531 C 296.132812 255.171875 296.5 254.675781 296.839844 254.167969 C 297.179688 253.65625 297.496094 253.128906 297.785156 252.589844 C 298.074219 252.046875 298.335938 251.492188 298.574219 250.925781 C 298.808594 250.359375 299.015625 249.78125 299.191406 249.191406 C 299.371094 248.605469 299.519531 248.011719 299.640625 247.40625 C 299.757812 246.804688 299.847656 246.199219 299.910156 245.585938 C 299.96875 244.976562 300 244.363281 300 243.75 L 300 131.25 C 300 130.636719 299.96875 130.023438 299.910156 129.414062 C 299.847656 128.800781 299.757812 128.195312 299.640625 127.59375 C 299.519531 126.988281 299.371094 126.394531 299.191406 125.808594 C 299.015625 125.21875 298.808594 124.640625 298.574219 124.074219 C 298.335938 123.507812 298.074219 122.953125 297.785156 122.410156 C 297.496094 121.871094 297.179688 121.34375 296.839844 120.832031 C 296.5 120.324219 296.132812 119.828125 295.742188 119.355469 C 295.355469 118.878906 294.941406 118.425781 294.507812 117.992188 C 294.074219 117.558594 293.621094 117.144531 293.144531 116.757812 C 292.671875 116.367188 292.175781 116 291.667969 115.660156 C 291.15625 115.320312 290.628906 115.003906 290.089844 114.714844 C 289.546875 114.425781 288.992188 114.164062 288.425781 113.925781 C 287.859375 113.691406 287.28125 113.484375 286.691406 113.308594 C 286.105469 113.128906 285.511719 112.980469 284.90625 112.859375 C 284.304688 112.742188 283.699219 112.652344 283.085938 112.589844 C 282.476562 112.53125 281.863281 112.5 281.25 112.5 L 93.75 112.5 C 93.136719 112.5 92.523438 112.53125 91.914062 112.589844 C 91.300781 112.652344 90.695312 112.742188 90.09375 112.859375 C 89.488281 112.980469 88.894531 113.128906 88.308594 113.308594 C 87.71875 113.484375 87.140625 113.691406 86.574219 113.925781 C 86.007812 114.164062 85.453125 114.425781 84.910156 114.714844 C 84.371094 115.003906 83.84375 115.320312 83.332031 115.660156 C 82.824219 116 82.328125 116.367188 81.855469 116.757812 C 81.378906 117.144531 80.925781 117.558594 80.492188 117.992188 C 80.058594 118.425781 79.644531 118.878906 79.257812 119.355469 C 78.867188 119.828125 78.5 120.324219 78.160156 120.832031 C 77.820312 121.34375 77.503906 121.871094 77.214844 122.410156 C 76.925781 122.953125 76.664062 123.507812 76.425781 124.074219 C 76.191406 124.640625 75.984375 125.21875 75.808594 125.808594 C 75.628906 126.394531 75.480469 126.988281 75.359375 127.59375 C 75.242188 128.195312 75.152344 128.800781 75.089844 129.414062 C 75.03125 130.023438 75 130.636719 75 131.25 Z M 75 131.25 " fill-opacity="1" fill-rule="nonzero"/></g></g><g clip-path="url(#de71d5ae49)"><g clip-path="url(#675b660d33)"><path fill="#071952" d="M 0 112.5 L 0 37.5 C 0 36.886719 0.03125 36.273438 0.0898438 35.664062 C 0.152344 35.050781 0.242188 34.445312 0.359375 33.84375 C 0.480469 33.238281 0.628906 32.644531 0.808594 32.058594 C 0.984375 31.46875 1.191406 30.890625 1.425781 30.324219 C 1.664062 29.757812 1.925781 29.203125 2.214844 28.660156 C 2.503906 28.121094 2.820312 27.59375 3.160156 27.082031 C 3.5 26.574219 3.867188 26.078125 4.257812 25.605469 C 4.644531 25.128906 5.058594 24.675781 5.492188 24.242188 C 5.925781 23.808594 6.378906 23.394531 6.855469 23.007812 C 7.328125 22.617188 7.824219 22.25 8.332031 21.910156 C 8.84375 21.570312 9.371094 21.253906 9.910156 20.964844 C 10.453125 20.675781 11.007812 20.414062 11.574219 20.175781 C 12.140625 19.941406 12.71875 19.734375 13.308594 19.558594 C 13.894531 19.378906 14.488281 19.230469 15.09375 19.109375 C 15.695312 18.992188 16.300781 18.902344 16.914062 18.839844 C 17.523438 18.78125 18.136719 18.75 18.75 18.75 L 131.25 18.75 C 131.863281 18.75 132.476562 18.78125 133.085938 18.839844 C 133.699219 18.902344 134.304688 18.992188 134.90625 19.109375 C 135.511719 19.230469 136.105469 19.378906 136.691406 19.558594 C 137.28125 19.734375 137.859375 19.941406 138.425781 20.175781 C 138.992188 20.414062 139.546875 20.675781 140.089844 20.964844 C 140.628906 21.253906 141.15625 21.570312 141.667969 21.910156 C 142.175781 22.25 142.671875 22.617188 143.144531 23.007812 C 143.621094 23.394531 144.074219 23.808594 144.507812 24.242188 C 144.941406 24.675781 145.355469 25.128906 145.742188 25.605469 C 146.132812 26.078125 146.5 26.574219 146.839844 27.082031 C 147.179688 27.59375 147.496094 28.121094 147.785156 28.660156 C 148.074219 29.203125 148.335938 29.757812 148.574219 30.324219 C 148.808594 30.890625 149.015625 31.46875 149.191406 32.058594 C 149.371094 32.644531 149.519531 33.238281 149.640625 33.84375 C 149.757812 34.445312 149.847656 35.050781 149.910156 35.664062 C 149.96875 36.273438 150 36.886719 150 37.5 C 150 38.113281 149.96875 38.726562 149.910156 39.335938 C 149.847656 39.949219 149.757812 40.554688 149.640625 41.15625 C 149.519531 41.761719 149.371094 42.355469 149.191406 42.941406 C 149.015625 43.53125 148.808594 44.109375 148.574219 44.675781 C 148.335938 45.242188 148.074219 45.796875 147.785156 46.339844 C 147.496094 46.878906 147.179688 47.40625 146.839844 47.917969 C 146.5 48.425781 146.132812 48.921875 145.742188 49.394531 C 145.355469 49.871094 144.941406 50.324219 144.507812 50.757812 C 144.074219 51.191406 143.621094 51.605469 143.144531 51.992188 C 142.671875 52.382812 142.175781 52.75 141.667969 53.089844 C 141.15625 53.429688 140.628906 53.746094 140.089844 54.035156 C 139.546875 54.324219 138.992188 54.585938 138.425781 54.824219 C 137.859375 55.058594 137.28125 55.265625 136.691406 55.441406 C 136.105469 55.621094 135.511719 55.769531 134.90625 55.890625 C 134.304688 56.007812 133.699219 56.097656 133.085938 56.160156 C 132.476562 56.21875 131.863281 56.25 131.25 56.25 L 37.5 56.25 L 37.5 112.5 C 37.5 113.113281 37.46875 113.726562 37.410156 114.335938 C 37.347656 114.949219 37.257812 115.554688 37.140625 116.15625 C 37.019531 116.761719 36.871094 117.355469 36.691406 117.941406 C 36.515625 118.53125 36.308594 119.109375 36.074219 119.675781 C 35.835938 120.242188 35.574219 120.796875 35.285156 121.339844 C 34.996094 121.878906 34.679688 122.40625 34.339844 122.917969 C 34 123.425781 33.632812 123.921875 33.242188 124.394531 C 32.855469 124.871094 32.441406 125.324219 32.007812 125.757812 C 31.574219 126.191406 31.121094 126.605469 30.644531 126.992188 C 30.171875 127.382812 29.675781 127.75 29.167969 128.089844 C 28.65625 128.429688 28.128906 128.746094 27.589844 129.035156 C 27.046875 129.324219 26.492188 129.585938 25.925781 129.824219 C 25.359375 130.058594 24.78125 130.265625 24.191406 130.441406 C 23.605469 130.621094 23.011719 130.769531 22.40625 130.890625 C 21.804688 131.007812 21.199219 131.097656 20.585938 131.160156 C 19.976562 131.21875 19.363281 131.25 18.75 131.25 C 18.136719 131.25 17.523438 131.21875 16.914062 131.160156 C 16.300781 131.097656 15.695312 131.007812 15.09375 130.890625 C 14.488281 130.769531 13.894531 130.621094 13.308594 130.441406 C 12.71875 130.265625 12.140625 130.058594 11.574219 129.824219 C 11.007812 129.585938 10.453125 129.324219 9.910156 129.035156 C 9.371094 128.746094 8.84375 128.429688 8.332031 128.089844 C 7.824219 127.75 7.328125 127.382812 6.855469 126.992188 C 6.378906 126.605469 5.925781 126.191406 5.492188 125.757812 C 5.058594 125.324219 4.644531 124.871094 4.257812 124.394531 C 3.867188 123.921875 3.5 123.425781 3.160156 122.917969 C 2.820312 122.40625 2.503906 121.878906 2.214844 121.339844 C 1.925781 120.796875 1.664062 120.242188 1.425781 119.675781 C 1.191406 119.109375 0.984375 118.53125 0.808594 117.941406 C 0.628906 117.355469 0.480469 116.761719 0.359375 116.15625 C 0.242188 115.554688 0.152344 114.949219 0.0898438 114.335938 C 0.03125 113.726562 0 113.113281 0 112.5 Z M 0 112.5 " fill-opacity="1" fill-rule="nonzero"/></g></g><g clip-path="url(#62257c4bd5)"><g clip-path="url(#e4d66b25a9)"><path fill="#071952" d="M 356.25 18.75 L 243.75 18.75 C 243.136719 18.75 242.523438 18.78125 241.914062 18.839844 C 241.300781 18.902344 240.695312 18.992188 240.09375 19.109375 C 239.488281 19.230469 238.894531 19.378906 238.308594 19.558594 C 237.71875 19.734375 237.140625 19.941406 236.574219 20.175781 C 236.007812 20.414062 235.453125 20.675781 234.910156 20.964844 C 234.371094 21.253906 233.84375 21.570312 233.332031 21.910156 C 232.824219 22.25 232.328125 22.617188 231.855469 23.007812 C 231.378906 23.394531 230.925781 23.808594 230.492188 24.242188 C 230.058594 24.675781 229.644531 25.128906 229.257812 25.605469 C 228.867188 26.078125 228.5 26.574219 228.160156 27.082031 C 227.820312 27.59375 227.503906 28.121094 227.214844 28.660156 C 226.925781 29.203125 226.664062 29.757812 226.425781 30.324219 C 226.191406 30.890625 225.984375 31.46875 225.808594 32.058594 C 225.628906 32.644531 225.480469 33.238281 225.359375 33.84375 C 225.242188 34.445312 225.152344 35.050781 225.089844 35.664062 C 225.03125 36.273438 225 36.886719 225 37.5 C 225 38.113281 225.03125 38.726562 225.089844 39.335938 C 225.152344 39.949219 225.242188 40.554688 225.359375 41.15625 C 225.480469 41.761719 225.628906 42.355469 225.808594 42.941406 C 225.984375 43.53125 226.191406 44.109375 226.425781 44.675781 C 226.664062 45.242188 226.925781 45.796875 227.214844 46.339844 C 227.503906 46.878906 227.820312 47.40625 228.160156 47.917969 C 228.5 48.425781 228.867188 48.921875 229.257812 49.394531 C 229.644531 49.871094 230.058594 50.324219 230.492188 50.757812 C 230.925781 51.191406 231.378906 51.605469 231.855469 51.992188 C 232.328125 52.382812 232.824219 52.75 233.332031 53.089844 C 233.84375 53.429688 234.371094 53.746094 234.910156 54.035156 C 235.453125 54.324219 236.007812 54.585938 236.574219 54.824219 C 237.140625 55.058594 237.71875 55.265625 238.308594 55.441406 C 238.894531 55.621094 239.488281 55.769531 240.09375 55.890625 C 240.695312 56.007812 241.300781 56.097656 241.914062 56.160156 C 242.523438 56.21875 243.136719 56.25 243.75 56.25 L 337.5 56.25 L 337.5 112.5 C 337.5 113.113281 337.53125 113.726562 337.589844 114.335938 C 337.652344 114.949219 337.742188 115.554688 337.859375 116.15625 C 337.980469 116.761719 338.128906 117.355469 338.308594 117.941406 C 338.484375 118.53125 338.691406 119.109375 338.925781 119.675781 C 339.164062 120.242188 339.425781 120.796875 339.714844 121.339844 C 340.003906 121.878906 340.320312 122.40625 340.660156 122.917969 C 341 123.425781 341.367188 123.921875 341.757812 124.394531 C 342.144531 124.871094 342.558594 125.324219 342.992188 125.757812 C 343.425781 126.191406 343.878906 126.605469 344.355469 126.992188 C 344.828125 127.382812 345.324219 127.75 345.832031 128.089844 C 346.34375 128.429688 346.871094 128.746094 347.410156 129.035156 C 347.953125 129.324219 348.507812 129.585938 349.074219 129.824219 C 349.640625 130.058594 350.21875 130.265625 350.808594 130.441406 C 351.394531 130.621094 351.988281 130.769531 352.59375 130.890625 C 353.195312 131.007812 353.800781 131.097656 354.414062 131.160156 C 355.023438 131.21875 355.636719 131.25 356.25 131.25 C 356.863281 131.25 357.476562 131.21875 358.085938 131.160156 C 358.699219 131.097656 359.304688 131.007812 359.90625 130.890625 C 360.511719 130.769531 361.105469 130.621094 361.691406 130.441406 C 362.28125 130.265625 362.859375 130.058594 363.425781 129.824219 C 363.992188 129.585938 364.546875 129.324219 365.089844 129.035156 C 365.628906 128.746094 366.15625 128.429688 366.667969 128.089844 C 367.175781 127.75 367.671875 127.382812 368.144531 126.992188 C 368.621094 126.605469 369.074219 126.191406 369.507812 125.757812 C 369.941406 125.324219 370.355469 124.871094 370.742188 124.394531 C 371.132812 123.921875 371.5 123.425781 371.839844 122.917969 C 372.179688 122.40625 372.496094 121.878906 372.785156 121.339844 C 373.074219 120.796875 373.335938 120.242188 373.574219 119.675781 C 373.808594 119.109375 374.015625 118.53125 374.191406 117.941406 C 374.371094 117.355469 374.519531 116.761719 374.640625 116.15625 C 374.757812 115.554688 374.847656 114.949219 374.910156 114.335938 C 374.96875 113.726562 375 113.113281 375 112.5 L 375 37.5 C 375 36.886719 374.96875 36.273438 374.910156 35.664062 C 374.847656 35.050781 374.757812 34.445312 374.640625 33.84375 C 374.519531 33.238281 374.371094 32.644531 374.191406 32.058594 C 374.015625 31.46875 373.808594 30.890625 373.574219 30.324219 C 373.335938 29.757812 373.074219 29.203125 372.785156 28.660156 C 372.496094 28.121094 372.179688 27.59375 371.839844 27.082031 C 371.5 26.574219 371.132812 26.078125 370.742188 25.605469 C 370.355469 25.128906 369.941406 24.675781 369.507812 24.242188 C 369.074219 23.808594 368.621094 23.394531 368.144531 23.007812 C 367.671875 22.617188 367.175781 22.25 366.667969 21.910156 C 366.15625 21.570312 365.628906 21.253906 365.089844 20.964844 C 364.546875 20.675781 363.992188 20.414062 363.425781 20.175781 C 362.859375 19.941406 362.28125 19.734375 361.691406 19.558594 C 361.105469 19.378906 360.511719 19.230469 359.90625 19.109375 C 359.304688 18.992188 358.699219 18.902344 358.085938 18.839844 C 357.476562 18.78125 356.863281 18.75 356.25 18.75 Z M 356.25 18.75 " fill-opacity="1" fill-rule="nonzero"/></g></g><g clip-path="url(#d4937219d9)"><g clip-path="url(#9169928111)"><path fill="#071952" d="M 18.75 356.25 L 131.25 356.25 C 131.863281 356.25 132.476562 356.21875 133.085938 356.160156 C 133.699219 356.097656 134.304688 356.007812 134.90625 355.890625 C 135.511719 355.769531 136.105469 355.621094 136.691406 355.441406 C 137.28125 355.265625 137.859375 355.058594 138.425781 354.824219 C 138.992188 354.585938 139.546875 354.324219 140.089844 354.035156 C 140.628906 353.746094 141.15625 353.429688 141.667969 353.089844 C 142.175781 352.75 142.671875 352.382812 143.144531 351.992188 C 143.621094 351.605469 144.074219 351.191406 144.507812 350.757812 C 144.941406 350.324219 145.355469 349.871094 145.742188 349.394531 C 146.132812 348.921875 146.5 348.425781 146.839844 347.917969 C 147.179688 347.40625 147.496094 346.878906 147.785156 346.339844 C 148.074219 345.796875 148.335938 345.242188 148.574219 344.675781 C 148.808594 344.109375 149.015625 343.53125 149.191406 342.941406 C 149.371094 342.355469 149.519531 341.761719 149.640625 341.15625 C 149.757812 340.554688 149.847656 339.949219 149.910156 339.335938 C 149.96875 338.726562 150 338.113281 150 337.5 C 150 336.886719 149.96875 336.273438 149.910156 335.664062 C 149.847656 335.050781 149.757812 334.445312 149.640625 333.84375 C 149.519531 333.238281 149.371094 332.644531 149.191406 332.058594 C 149.015625 331.46875 148.808594 330.890625 148.574219 330.324219 C 148.335938 329.757812 148.074219 329.203125 147.785156 328.660156 C 147.496094 328.121094 147.179688 327.59375 146.839844 327.082031 C 146.5 326.574219 146.132812 326.078125 145.742188 325.605469 C 145.355469 325.128906 144.941406 324.675781 144.507812 324.242188 C 144.074219 323.808594 143.621094 323.394531 143.144531 323.007812 C 142.671875 322.617188 142.175781 322.25 141.667969 321.910156 C 141.15625 321.570312 140.628906 321.253906 140.089844 320.964844 C 139.546875 320.675781 138.992188 320.414062 138.425781 320.175781 C 137.859375 319.941406 137.28125 319.734375 136.691406 319.558594 C 136.105469 319.378906 135.511719 319.230469 134.90625 319.109375 C 134.304688 318.992188 133.699219 318.902344 133.085938 318.839844 C 132.476562 318.78125 131.863281 318.75 131.25 318.75 L 37.5 318.75 L 37.5 262.5 C 37.5 261.886719 37.46875 261.273438 37.410156 260.664062 C 37.347656 260.050781 37.257812 259.445312 37.140625 258.84375 C 37.019531 258.238281 36.871094 257.644531 36.691406 257.058594 C 36.515625 256.46875 36.308594 255.890625 36.074219 255.324219 C 35.835938 254.757812 35.574219 254.203125 35.285156 253.660156 C 34.996094 253.121094 34.679688 252.59375 34.339844 252.082031 C 34 251.574219 33.632812 251.078125 33.242188 250.605469 C 32.855469 250.128906 32.441406 249.675781 32.007812 249.242188 C 31.574219 248.808594 31.121094 248.394531 30.644531 248.007812 C 30.171875 247.617188 29.675781 247.25 29.167969 246.910156 C 28.65625 246.570312 28.128906 246.253906 27.589844 245.964844 C 27.046875 245.675781 26.492188 245.414062 25.925781 245.175781 C 25.359375 244.941406 24.78125 244.734375 24.191406 244.558594 C 23.605469 244.378906 23.011719 244.230469 22.40625 244.109375 C 21.804688 243.992188 21.199219 243.902344 20.585938 243.839844 C 19.976562 243.78125 19.363281 243.75 18.75 243.75 C 18.136719 243.75 17.523438 243.78125 16.914062 243.839844 C 16.300781 243.902344 15.695312 243.992188 15.09375 244.109375 C 14.488281 244.230469 13.894531 244.378906 13.308594 244.558594 C 12.71875 244.734375 12.140625 244.941406 11.574219 245.175781 C 11.007812 245.414062 10.453125 245.675781 9.910156 245.964844 C 9.371094 246.253906 8.84375 246.570312 8.332031 246.910156 C 7.824219 247.25 7.328125 247.617188 6.855469 248.007812 C 6.378906 248.394531 5.925781 248.808594 5.492188 249.242188 C 5.058594 249.675781 4.644531 250.128906 4.257812 250.605469 C 3.867188 251.078125 3.5 251.574219 3.160156 252.082031 C 2.820312 252.59375 2.503906 253.121094 2.214844 253.660156 C 1.925781 254.203125 1.664062 254.757812 1.425781 255.324219 C 1.191406 255.890625 0.984375 256.46875 0.808594 257.058594 C 0.628906 257.644531 0.480469 258.238281 0.359375 258.84375 C 0.242188 259.445312 0.152344 260.050781 0.0898438 260.664062 C 0.03125 261.273438 0 261.886719 0 262.5 L 0 337.5 C 0 338.113281 0.03125 338.726562 0.0898438 339.335938 C 0.152344 339.949219 0.242188 340.554688 0.359375 341.15625 C 0.480469 341.761719 0.628906 342.355469 0.808594 342.941406 C 0.984375 343.53125 1.191406 344.109375 1.425781 344.675781 C 1.664062 345.242188 1.925781 345.796875 2.214844 346.339844 C 2.503906 346.878906 2.820312 347.40625 3.160156 347.917969 C 3.5 348.425781 3.867188 348.921875 4.257812 349.394531 C 4.644531 349.871094 5.058594 350.324219 5.492188 350.757812 C 5.925781 351.191406 6.378906 351.605469 6.855469 351.992188 C 7.328125 352.382812 7.824219 352.75 8.332031 353.089844 C 8.84375 353.429688 9.371094 353.746094 9.910156 354.035156 C 10.453125 354.324219 11.007812 354.585938 11.574219 354.824219 C 12.140625 355.058594 12.71875 355.265625 13.308594 355.441406 C 13.894531 355.621094 14.488281 355.769531 15.09375 355.890625 C 15.695312 356.007812 16.300781 356.097656 16.914062 356.160156 C 17.523438 356.21875 18.136719 356.25 18.75 356.25 Z M 18.75 356.25 " fill-opacity="1" fill-rule="nonzero"/></g></g><g clip-path="url(#187c028f44)"><g clip-path="url(#84faa6f1a4)"><path fill="#071952" d="M 356.25 243.75 C 355.636719 243.75 355.023438 243.78125 354.414062 243.839844 C 353.800781 243.902344 353.195312 243.992188 352.59375 244.109375 C 351.988281 244.230469 351.394531 244.378906 350.808594 244.558594 C 350.21875 244.734375 349.640625 244.941406 349.074219 245.175781 C 348.507812 245.414062 347.953125 245.675781 347.410156 245.964844 C 346.871094 246.253906 346.34375 246.570312 345.832031 246.910156 C 345.324219 247.25 344.828125 247.617188 344.355469 248.007812 C 343.878906 248.394531 343.425781 248.808594 342.992188 249.242188 C 342.558594 249.675781 342.144531 250.128906 341.757812 250.605469 C 341.367188 251.078125 341 251.574219 340.660156 252.082031 C 340.320312 252.59375 340.003906 253.121094 339.714844 253.660156 C 339.425781 254.203125 339.164062 254.757812 338.925781 255.324219 C 338.691406 255.890625 338.484375 256.46875 338.308594 257.058594 C 338.128906 257.644531 337.980469 258.238281 337.859375 258.84375 C 337.742188 259.445312 337.652344 260.050781 337.589844 260.664062 C 337.53125 261.273438 337.5 261.886719 337.5 262.5 L 337.5 318.75 L 243.75 318.75 C 243.136719 318.75 242.523438 318.78125 241.914062 318.839844 C 241.300781 318.902344 240.695312 318.992188 240.09375 319.109375 C 239.488281 319.230469 238.894531 319.378906 238.308594 319.558594 C 237.71875 319.734375 237.140625 319.941406 236.574219 320.175781 C 236.007812 320.414062 235.453125 320.675781 234.910156 320.964844 C 234.371094 321.253906 233.84375 321.570312 233.332031 321.910156 C 232.824219 322.25 232.328125 322.617188 231.855469 323.007812 C 231.378906 323.394531 230.925781 323.808594 230.492188 324.242188 C 230.058594 324.675781 229.644531 325.128906 229.257812 325.605469 C 228.867188 326.078125 228.5 326.574219 228.160156 327.082031 C 227.820312 327.59375 227.503906 328.121094 227.214844 328.660156 C 226.925781 329.203125 226.664062 329.757812 226.425781 330.324219 C 226.191406 330.890625 225.984375 331.46875 225.808594 332.058594 C 225.628906 332.644531 225.480469 333.238281 225.359375 333.84375 C 225.242188 334.445312 225.152344 335.050781 225.089844 335.664062 C 225.03125 336.273438 225 336.886719 225 337.5 C 225 338.113281 225.03125 338.726562 225.089844 339.335938 C 225.152344 339.949219 225.242188 340.554688 225.359375 341.15625 C 225.480469 341.761719 225.628906 342.355469 225.808594 342.941406 C 225.984375 343.53125 226.191406 344.109375 226.425781 344.675781 C 226.664062 345.242188 226.925781 345.796875 227.214844 346.339844 C 227.503906 346.878906 227.820312 347.40625 228.160156 347.917969 C 228.5 348.425781 228.867188 348.921875 229.257812 349.394531 C 229.644531 349.871094 230.058594 350.324219 230.492188 350.757812 C 230.925781 351.191406 231.378906 351.605469 231.855469 351.992188 C 232.328125 352.382812 232.824219 352.75 233.332031 353.089844 C 233.84375 353.429688 234.371094 353.746094 234.910156 354.035156 C 235.453125 354.324219 236.007812 354.585938 236.574219 354.824219 C 237.140625 355.058594 237.71875 355.265625 238.308594 355.441406 C 238.894531 355.621094 239.488281 355.769531 240.09375 355.890625 C 240.695312 356.007812 241.300781 356.097656 241.914062 356.160156 C 242.523438 356.21875 243.136719 356.25 243.75 356.25 L 356.25 356.25 C 356.863281 356.25 357.476562 356.21875 358.085938 356.160156 C 358.699219 356.097656 359.304688 356.007812 359.90625 355.890625 C 360.511719 355.769531 361.105469 355.621094 361.691406 355.441406 C 362.28125 355.265625 362.859375 355.058594 363.425781 354.824219 C 363.992188 354.585938 364.546875 354.324219 365.089844 354.035156 C 365.628906 353.746094 366.15625 353.429688 366.667969 353.089844 C 367.175781 352.75 367.671875 352.382812 368.144531 351.992188 C 368.621094 351.605469 369.074219 351.191406 369.507812 350.757812 C 369.941406 350.324219 370.355469 349.871094 370.742188 349.394531 C 371.132812 348.921875 371.5 348.425781 371.839844 347.917969 C 372.179688 347.40625 372.496094 346.878906 372.785156 346.339844 C 373.074219 345.796875 373.335938 345.242188 373.574219 344.675781 C 373.808594 344.109375 374.015625 343.53125 374.191406 342.941406 C 374.371094 342.355469 374.519531 341.761719 374.640625 341.15625 C 374.757812 340.554688 374.847656 339.949219 374.910156 339.335938 C 374.96875 338.726562 375 338.113281 375 337.5 L 375 262.5 C 375 261.886719 374.96875 261.273438 374.910156 260.664062 C 374.847656 260.050781 374.757812 259.445312 374.640625 258.84375 C 374.519531 258.238281 374.371094 257.644531 374.191406 257.058594 C 374.015625 256.46875 373.808594 255.890625 373.574219 255.324219 C 373.335938 254.757812 373.074219 254.203125 372.785156 253.660156 C 372.496094 253.121094 372.179688 252.59375 371.839844 252.082031 C 371.5 251.574219 371.132812 251.078125 370.742188 250.605469 C 370.355469 250.128906 369.941406 249.675781 369.507812 249.242188 C 369.074219 248.808594 368.621094 248.394531 368.144531 248.007812 C 367.671875 247.617188 367.175781 247.25 366.667969 246.910156 C 366.15625 246.570312 365.628906 246.253906 365.089844 245.964844 C 364.546875 245.675781 363.992188 245.414062 363.425781 245.175781 C 362.859375 244.941406 362.28125 244.734375 361.691406 244.558594 C 361.105469 244.378906 360.511719 244.230469 359.90625 244.109375 C 359.304688 243.992188 358.699219 243.902344 358.085938 243.839844 C 357.476562 243.78125 356.863281 243.75 356.25 243.75 Z M 356.25 243.75 " fill-opacity="1" fill-rule="nonzero"/></g></g></svg>