<svg xmlns="http://www.w3.org/2000/svg" xmlns:xlink="http://www.w3.org/1999/xlink" width="500" zoomAndPan="magnify" viewBox="0 0 375 374.999991" height="500" preserveAspectRatio="xMidYMid meet" version="1.0"><path fill="#071952" d="M 360.871094 83.570312 L 360.871094 291.5 C 360.871094 302.988281 351.578125 312.28125 340.089844 312.28125 L 215.34375 312.28125 C 216.121094 327.832031 221.214844 342.804688 230.253906 355.324219 L 277.6875 355.324219 C 283.042969 355.324219 287.367188 359.648438 287.367188 365.003906 C 287.367188 370.359375 283.042969 374.683594 277.6875 374.683594 L 97.507812 374.683594 C 92.152344 374.683594 87.828125 370.359375 87.828125 365.003906 C 87.828125 359.648438 92.152344 355.324219 97.507812 355.324219 L 144.941406 355.324219 C 153.972656 342.804688 159.074219 327.835938 159.851562 312.28125 L 35.105469 312.28125 C 23.617188 312.28125 14.324219 302.988281 14.324219 291.5 L 14.324219 83.570312 C 14.324219 72.082031 23.617188 62.789062 35.105469 62.789062 L 57.753906 62.789062 C 12.042969 157.113281 80.878906 269.300781 187.59375 269.300781 C 294.3125 269.300781 363.183594 157.1875 317.433594 62.796875 L 340.082031 62.796875 C 351.570312 62.796875 360.863281 72.089844 360.863281 83.578125 Z M 360.871094 83.570312 " fill-opacity="1" fill-rule="nonzero"/><path fill="#071952" d="M 146.007812 157.0625 C 159.78125 157.0625 170.984375 142.746094 170.984375 125.15625 C 170.984375 107.566406 159.78125 93.246094 146.007812 93.246094 C 132.238281 93.246094 121.03125 107.5625 121.03125 125.15625 C 121.03125 142.753906 132.230469 157.0625 146.007812 157.0625 Z M 146.007812 157.0625 " fill-opacity="1" fill-rule="nonzero"/><path fill="#071952" d="M 187.59375 0.386719 C 118.691406 0.386719 62.832031 56.25 62.832031 125.152344 C 62.832031 194.054688 118.691406 249.914062 187.59375 249.914062 C 256.496094 249.914062 312.359375 194.054688 312.359375 125.152344 C 312.359375 56.25 256.503906 0.386719 187.59375 0.386719 Z M 120.3125 51.464844 C 158.671875 16.382812 216.523438 16.382812 254.890625 51.464844 C 258.832031 55.070312 259.105469 61.195312 255.5 65.140625 C 251.894531 69.082031 245.769531 69.355469 241.824219 65.75 C 211.417969 37.945312 163.785156 37.945312 133.378906 65.75 C 129.433594 69.363281 123.308594 69.089844 119.699219 65.140625 C 116.09375 61.195312 116.367188 55.070312 120.3125 51.464844 Z M 146.007812 73.878906 C 170.457031 73.878906 190.347656 96.878906 190.347656 125.152344 C 190.347656 153.421875 170.457031 176.421875 146.007812 176.421875 C 121.5625 176.421875 101.671875 153.421875 101.671875 125.152344 C 101.671875 96.878906 121.5625 73.878906 146.007812 73.878906 Z M 254.882812 198.839844 C 216.519531 233.917969 158.675781 233.917969 120.304688 198.839844 C 116.363281 195.226562 116.089844 189.105469 119.695312 185.164062 C 123.300781 181.214844 129.425781 180.945312 133.371094 184.550781 C 163.777344 212.355469 211.414062 212.355469 241.820312 184.550781 C 245.761719 180.953125 251.890625 181.21875 255.496094 185.164062 C 259.101562 189.105469 258.828125 195.226562 254.882812 198.839844 Z M 236.121094 115.472656 C 273.175781 115.472656 283.285156 150.390625 263.027344 167.613281 C 242.089844 185.414062 198.714844 175.265625 198.714844 145.945312 C 198.714844 140.59375 203.050781 136.265625 208.394531 136.265625 C 213.738281 136.265625 218.074219 140.601562 218.074219 145.945312 C 218.074219 151.199219 225.484375 157.058594 236.121094 157.058594 C 260.019531 157.058594 259.84375 134.828125 236.121094 134.828125 C 199.066406 134.828125 188.953125 99.910156 209.210938 82.683594 C 230.148438 64.882812 273.523438 75.03125 273.523438 104.351562 C 273.523438 109.703125 269.1875 114.03125 263.84375 114.03125 C 258.5 114.03125 254.167969 109.695312 254.167969 104.351562 C 254.167969 99.097656 246.753906 93.238281 236.121094 93.238281 C 212.335938 93.238281 212.335938 115.464844 236.121094 115.464844 Z M 236.121094 115.472656 " fill-opacity="1" fill-rule="nonzero"/></svg>