<svg xmlns="http://www.w3.org/2000/svg" xmlns:xlink="http://www.w3.org/1999/xlink" width="500" zoomAndPan="magnify" viewBox="0 0 375 374.999991" height="500" preserveAspectRatio="xMidYMid meet" version="1.0"><defs><clipPath id="bdc4574d71"><path d="M 0 56.25 L 375 56.25 L 375 318.75 L 0 318.75 Z M 0 56.25 " clip-rule="nonzero"/></clipPath></defs><g clip-path="url(#bdc4574d71)"><path fill="#071952" d="M 75 281.25 L 75 300 C 75 305.15625 79.21875 309.375 84.375 309.375 L 121.875 309.375 C 127.03125 309.375 131.25 305.15625 131.25 300 L 131.25 281.25 L 140.625 281.25 L 140.625 300 C 140.625 305.15625 144.84375 309.375 150 309.375 L 178.125 309.375 L 178.125 281.25 L 196.875 281.25 L 196.875 309.375 L 215.625 309.375 L 215.625 281.25 L 234.375 281.25 L 234.375 309.375 L 253.125 309.375 L 253.125 281.25 L 271.875 281.25 L 271.875 309.375 L 300 309.375 C 305.15625 309.375 309.375 305.15625 309.375 300 L 309.375 281.25 L 328.125 281.25 C 330.65625 281.25 333 280.21875 334.78125 278.53125 L 372.28125 241.03125 C 374.0625 239.25 375 236.90625 375 234.375 L 375 121.875 C 375 119.34375 373.96875 117 372.28125 115.21875 L 334.78125 77.71875 C 333 75.9375 330.65625 75 328.125 75 L 56.25 75 L 56.25 65.625 C 56.25 60.46875 52.03125 56.25 46.875 56.25 L 9.375 56.25 C 4.21875 56.25 0 60.46875 0 65.625 C 0 70.78125 4.21875 75 9.375 75 L 37.5 75 L 37.5 93.75 L 28.125 93.75 C 22.96875 93.75 18.75 97.96875 18.75 103.125 C 18.75 108.28125 22.96875 112.5 28.125 112.5 L 37.5 112.5 L 37.5 121.875 L 18.75 121.875 C 13.59375 121.875 9.375 126.09375 9.375 131.25 L 9.375 168.75 C 9.375 173.90625 13.59375 178.125 18.75 178.125 L 37.5 178.125 L 37.5 187.5 L 28.125 187.5 C 22.96875 187.5 18.75 191.71875 18.75 196.875 C 18.75 202.03125 22.96875 206.25 28.125 206.25 L 37.5 206.25 L 37.5 215.625 L 18.75 215.625 C 13.59375 215.625 9.375 219.84375 9.375 225 L 9.375 253.125 C 9.375 258.28125 13.59375 262.5 18.75 262.5 L 37.5 262.5 L 37.5 309.375 C 37.5 314.53125 41.71875 318.75 46.875 318.75 C 52.03125 318.75 56.25 314.53125 56.25 309.375 L 56.25 281.25 Z M 262.5 103.125 C 221.0625 103.125 187.5 136.6875 187.5 178.125 C 187.5 219.5625 221.0625 253.125 262.5 253.125 C 303.9375 253.125 337.5 219.5625 337.5 178.125 C 337.5 136.6875 303.9375 103.125 262.5 103.125 Z M 337.5 225 C 342.65625 225 346.875 229.21875 346.875 234.375 C 346.875 239.53125 342.65625 243.75 337.5 243.75 C 332.34375 243.75 328.125 239.53125 328.125 234.375 C 328.125 229.21875 332.34375 225 337.5 225 Z M 121.875 196.875 L 121.875 234.375 C 121.875 239.53125 126.09375 243.75 131.25 243.75 C 136.40625 243.75 140.625 239.53125 140.625 234.375 L 140.625 196.875 C 140.625 191.71875 136.40625 187.5 131.25 187.5 C 126.09375 187.5 121.875 191.71875 121.875 196.875 Z M 150 196.875 L 150 234.375 C 150 239.53125 154.21875 243.75 159.375 243.75 C 164.53125 243.75 168.75 239.53125 168.75 234.375 L 168.75 196.875 C 168.75 191.71875 164.53125 187.5 159.375 187.5 C 154.21875 187.5 150 191.71875 150 196.875 Z M 112.5 196.875 C 112.5 191.71875 108.28125 187.5 103.125 187.5 L 75 187.5 C 69.84375 187.5 65.625 191.71875 65.625 196.875 L 65.625 234.375 C 65.625 239.53125 69.84375 243.75 75 243.75 L 103.125 243.75 C 108.28125 243.75 112.5 239.53125 112.5 234.375 Z M 275.71875 202.96875 C 278.15625 206.90625 281.4375 210.75 285.5625 213.09375 C 291 216.1875 296.15625 218.15625 300.75 219.375 C 291.75 227.71875 280.03125 233.15625 267.09375 234.1875 C 265.125 230.8125 262.5 224.625 262.5 215.625 C 262.5 213.46875 263.53125 211.40625 264.5625 209.625 C 265.40625 208.21875 266.34375 206.90625 267.09375 205.875 C 270.1875 205.40625 273.09375 204.375 275.71875 202.96875 Z M 216.1875 210.1875 C 218.15625 206.8125 222.1875 201.46875 229.96875 196.96875 C 231.84375 195.9375 234.09375 195.75 236.15625 195.75 C 237.84375 195.75 239.4375 195.9375 240.65625 196.03125 C 242.625 198.375 244.875 200.4375 247.5 202.03125 C 245.34375 206.15625 243.65625 210.9375 243.65625 215.625 C 243.65625 221.90625 244.5 227.34375 245.8125 231.84375 C 233.625 228.09375 223.21875 220.3125 216.09375 210.09375 Z M 93.65625 206.34375 L 93.65625 225.09375 L 84.28125 225.09375 L 84.28125 206.34375 Z M 317.25 165.65625 C 318.1875 169.6875 318.65625 173.90625 318.65625 178.21875 C 318.65625 186.84375 316.6875 195 313.21875 202.3125 C 309.375 202.3125 302.625 201.46875 294.84375 196.96875 C 292.96875 195.9375 291.75 193.96875 290.71875 192.1875 C 289.875 190.78125 289.21875 189.28125 288.75 188.15625 C 289.78125 185.34375 290.4375 182.34375 290.53125 179.25 C 295.125 179.0625 300.1875 178.125 304.3125 175.78125 C 309.75 172.6875 313.96875 169.125 317.34375 165.75 Z M 211.59375 154.125 C 215.4375 154.125 222.1875 154.96875 229.96875 159.46875 C 231.84375 160.5 233.0625 162.46875 234.09375 164.25 C 234.9375 165.65625 235.59375 167.15625 236.0625 168.28125 C 235.03125 171.09375 234.375 174.09375 234.28125 177.1875 C 229.6875 177.375 224.625 178.3125 220.5 180.65625 C 215.0625 183.75 210.84375 187.3125 207.46875 190.6875 C 206.53125 186.65625 206.0625 182.4375 206.0625 178.125 C 206.0625 169.5 208.03125 161.34375 211.5 154.03125 Z M 262.40625 168.84375 C 267.5625 168.84375 271.78125 173.0625 271.78125 178.21875 C 271.78125 183.375 267.5625 187.59375 262.40625 187.59375 C 257.25 187.59375 253.03125 183.375 253.03125 178.21875 C 253.03125 173.0625 257.25 168.84375 262.40625 168.84375 Z M 112.5 121.875 C 112.5 116.71875 108.28125 112.5 103.125 112.5 L 75 112.5 C 69.84375 112.5 65.625 116.71875 65.625 121.875 L 65.625 159.375 C 65.625 164.53125 69.84375 168.75 75 168.75 L 103.125 168.75 C 108.28125 168.75 112.5 164.53125 112.5 159.375 Z M 121.875 121.875 L 121.875 159.375 C 121.875 164.53125 126.09375 168.75 131.25 168.75 C 136.40625 168.75 140.625 164.53125 140.625 159.375 L 140.625 121.875 C 140.625 116.71875 136.40625 112.5 131.25 112.5 C 126.09375 112.5 121.875 116.71875 121.875 121.875 Z M 150 121.875 L 150 159.375 C 150 164.53125 154.21875 168.75 159.375 168.75 C 164.53125 168.75 168.75 164.53125 168.75 159.375 L 168.75 121.875 C 168.75 116.71875 164.53125 112.5 159.375 112.5 C 154.21875 112.5 150 116.71875 150 121.875 Z M 279.09375 124.40625 C 291.28125 128.15625 301.6875 135.9375 308.8125 146.15625 C 306.84375 149.53125 302.8125 154.875 295.03125 159.375 C 293.15625 160.40625 290.90625 160.59375 288.84375 160.59375 C 287.15625 160.59375 285.5625 160.40625 284.34375 160.3125 C 282.375 157.96875 280.125 155.90625 277.5 154.3125 C 279.65625 150.1875 281.34375 145.40625 281.34375 140.71875 C 281.34375 134.4375 280.5 129 279.1875 124.5 Z M 257.90625 122.0625 C 259.875 125.4375 262.5 131.625 262.5 140.625 C 262.5 142.78125 261.46875 144.84375 260.4375 146.625 C 259.59375 148.03125 258.65625 149.34375 257.90625 150.375 C 254.8125 150.84375 251.90625 151.875 249.28125 153.28125 C 246.84375 149.34375 243.5625 145.5 239.4375 143.15625 C 234 140.0625 228.84375 138.09375 224.25 136.875 C 233.25 128.53125 244.96875 123.09375 257.90625 122.0625 Z M 93.75 131.25 L 93.75 150 L 84.375 150 L 84.375 131.25 Z M 337.5 112.5 C 342.65625 112.5 346.875 116.71875 346.875 121.875 C 346.875 127.03125 342.65625 131.25 337.5 131.25 C 332.34375 131.25 328.125 127.03125 328.125 121.875 C 328.125 116.71875 332.34375 112.5 337.5 112.5 Z M 337.5 112.5 " fill-opacity="1" fill-rule="evenodd"/></g></svg>