<svg xmlns="http://www.w3.org/2000/svg" xmlns:xlink="http://www.w3.org/1999/xlink" width="500" zoomAndPan="magnify" viewBox="0 0 375 374.999991" height="500" preserveAspectRatio="xMidYMid meet" version="1.0"><defs><clipPath id="6c70b391c7"><path d="M 25 59.511719 L 350 59.511719 L 350 276 L 25 276 Z M 25 59.511719 " clip-rule="nonzero"/></clipPath><clipPath id="b849339cb7"><path d="M -5.324219 125.511719 L -5.324219 249.488281 C -5.324219 285.9375 24.222656 315.488281 60.675781 315.488281 L 314.324219 315.488281 C 350.777344 315.488281 380.324219 285.9375 380.324219 249.488281 L 380.324219 125.511719 C 380.324219 89.0625 350.777344 59.511719 314.324219 59.511719 L 60.675781 59.511719 C 24.222656 59.511719 -5.324219 89.0625 -5.324219 125.511719 Z M -5.324219 125.511719 " clip-rule="nonzero"/></clipPath><clipPath id="e6c9ca72be"><path d="M 0 280 L 375 280 L 375 315.261719 L 0 315.261719 Z M 0 280 " clip-rule="nonzero"/></clipPath><clipPath id="580017ff31"><path d="M -5.324219 125.511719 L -5.324219 249.488281 C -5.324219 285.9375 24.222656 315.488281 60.675781 315.488281 L 314.324219 315.488281 C 350.777344 315.488281 380.324219 285.9375 380.324219 249.488281 L 380.324219 125.511719 C 380.324219 89.0625 350.777344 59.511719 314.324219 59.511719 L 60.675781 59.511719 C 24.222656 59.511719 -5.324219 89.0625 -5.324219 125.511719 Z M -5.324219 125.511719 " clip-rule="nonzero"/></clipPath><clipPath id="6f9a5f6d23"><path d="M 42.09375 68.675781 L 332 68.675781 L 332 267.652344 L 42.09375 267.652344 Z M 42.09375 68.675781 " clip-rule="nonzero"/></clipPath><clipPath id="2b55fd8600"><path d="M 59.34375 68.675781 L 314.351562 68.675781 C 318.925781 68.675781 323.3125 70.496094 326.546875 73.730469 C 329.785156 76.964844 331.601562 81.351562 331.601562 85.925781 L 331.601562 250.402344 C 331.601562 254.976562 329.785156 259.363281 326.546875 262.597656 C 323.3125 265.835938 318.925781 267.652344 314.351562 267.652344 L 59.34375 267.652344 C 54.765625 267.652344 50.378906 265.835938 47.144531 262.597656 C 43.910156 259.363281 42.09375 254.976562 42.09375 250.402344 L 42.09375 85.925781 C 42.09375 81.351562 43.910156 76.964844 47.144531 73.730469 C 50.378906 70.496094 54.765625 68.675781 59.34375 68.675781 Z M 59.34375 68.675781 " clip-rule="nonzero"/></clipPath><clipPath id="2bc6aa117b"><path d="M 82.753906 93.148438 L 291 93.148438 L 291 243.148438 L 82.753906 243.148438 Z M 82.753906 93.148438 " clip-rule="nonzero"/></clipPath></defs><g clip-path="url(#6c70b391c7)"><g clip-path="url(#b849339cb7)"><path fill="#071952" d="M 55.519531 275.648438 L 319.769531 275.648438 C 336.394531 275.648438 349.921875 262.121094 349.921875 245.496094 L 349.921875 90.09375 C 349.921875 73.46875 336.394531 59.941406 319.769531 59.941406 L 55.519531 59.941406 C 38.890625 59.941406 25.367188 73.46875 25.367188 90.09375 L 25.367188 245.496094 C 25.367188 262.121094 38.890625 275.648438 55.519531 275.648438 Z M 280.785156 136.425781 L 238.121094 222.292969 C 237.066406 224.414062 234.929688 225.640625 232.714844 225.640625 C 231.8125 225.640625 230.898438 225.4375 230.035156 225.011719 C 227.054688 223.53125 225.835938 219.910156 227.320312 216.925781 L 269.980469 131.058594 C 271.460938 128.074219 275.074219 126.851562 278.066406 128.339844 C 281.050781 129.820312 282.265625 133.441406 280.785156 136.425781 Z M 214.371094 132.132812 L 171.714844 218.007812 C 170.660156 220.132812 168.527344 221.359375 166.308594 221.359375 C 165.40625 221.359375 164.492188 221.15625 163.628906 220.730469 C 160.648438 219.25 159.429688 215.628906 160.914062 212.644531 L 203.570312 126.765625 C 205.054688 123.785156 208.664062 122.5625 211.65625 124.050781 C 214.636719 125.527344 215.851562 129.144531 214.371094 132.132812 Z M 94.5 212.640625 L 137.15625 126.765625 C 138.636719 123.78125 142.25 122.5625 145.242188 124.046875 C 148.222656 125.527344 149.441406 129.144531 147.957031 132.132812 L 105.296875 218.007812 C 104.242188 220.132812 102.113281 221.359375 99.890625 221.359375 C 98.992188 221.359375 98.078125 221.15625 97.214844 220.730469 C 94.234375 219.246094 93.019531 215.628906 94.5 212.640625 Z M 94.5 212.640625 " fill-opacity="1" fill-rule="nonzero"/></g></g><g clip-path="url(#e6c9ca72be)"><g clip-path="url(#580017ff31)"><path fill="#071952" d="M 378.9375 282.851562 C 377.792969 281.398438 376.050781 280.554688 374.203125 280.554688 L 219.289062 280.554688 C 217.6875 280.554688 216.15625 281.1875 215.023438 282.316406 L 211.40625 285.933594 L 163.878906 285.933594 L 160.261719 282.316406 C 159.132812 281.1875 157.597656 280.554688 156 280.554688 L 1.082031 280.554688 C -0.761719 280.554688 -2.507812 281.398438 -3.652344 282.851562 C -4.796875 284.300781 -5.214844 286.195312 -4.78125 287.992188 L 0.609375 310.433594 C 1.261719 313.144531 3.683594 315.054688 6.46875 315.054688 L 368.816406 315.054688 C 371.605469 315.054688 374.027344 313.144531 374.675781 310.433594 L 380.066406 287.992188 C 380.5 286.195312 380.082031 284.300781 378.9375 282.851562 Z M 378.9375 282.851562 " fill-opacity="1" fill-rule="nonzero"/></g></g><g clip-path="url(#6f9a5f6d23)"><g clip-path="url(#2b55fd8600)"><path fill="#071952" d="M 42.09375 68.675781 L 331.226562 68.675781 L 331.226562 267.652344 L 42.09375 267.652344 Z M 42.09375 68.675781 " fill-opacity="1" fill-rule="nonzero"/></g></g><g clip-path="url(#2bc6aa117b)"><path fill="#071952" d="M 186.839844 275.570312 C 129.355469 275.570312 82.753906 228.96875 82.753906 171.484375 C 82.753906 114 129.355469 67.398438 186.839844 67.398438 C 244.324219 67.398438 290.925781 114 290.925781 171.484375 C 290.925781 228.96875 244.324219 275.570312 186.839844 275.570312 Z M 186.839844 275.570312 " fill-opacity="1" fill-rule="nonzero"/></g><path fill="#ffffff" d="M 242.101562 219.175781 C 229.230469 240.375 197.441406 231.289062 184.570312 231.289062 C 171.699219 231.289062 142.9375 243.398438 130.066406 221.445312 C 117.195312 199.496094 141.417969 163.914062 186.839844 163.914062 C 231.5 163.914062 254.96875 197.980469 242.101562 219.175781 Z M 164.660156 150.933594 C 175.558594 148.003906 181.449219 134.664062 177.816406 121.140625 C 174.179688 107.613281 162.398438 99.027344 151.496094 101.957031 C 140.59375 104.882812 134.703125 118.226562 138.335938 131.75 C 141.972656 145.273438 153.757812 153.867188 164.660156 150.933594 Z M 205.996094 150.933594 C 216.894531 153.863281 228.679688 145.273438 232.316406 131.75 C 235.957031 118.226562 230.066406 104.882812 219.160156 101.957031 C 208.261719 99.027344 196.476562 107.613281 192.839844 121.140625 C 189.203125 134.664062 195.09375 148.003906 205.996094 150.933594 Z M 254.96875 140.449219 C 244.9375 140.449219 236.800781 148.582031 236.800781 158.613281 C 236.800781 168.648438 244.9375 176.78125 254.96875 176.78125 C 265 176.78125 273.136719 168.648438 273.136719 158.613281 C 273.136719 148.582031 265 140.449219 254.96875 140.449219 Z M 136.878906 160.890625 C 136.878906 150.855469 128.746094 142.722656 118.714844 142.722656 C 108.679688 142.722656 100.546875 150.855469 100.546875 160.890625 C 100.546875 170.921875 108.679688 179.054688 118.714844 179.054688 C 128.746094 179.054688 136.878906 170.921875 136.878906 160.890625 Z M 136.878906 160.890625 " fill-opacity="1" fill-rule="nonzero"/><path fill="#ffffff" d="M 241.539062 191.410156 C 246.613281 200.773438 247.101562 210.945312 242.101562 219.175781 C 229.230469 240.375 197.441406 231.289062 184.570312 231.289062 C 171.699219 231.289062 142.9375 243.398438 130.066406 221.445312 C 129.867188 221.105469 129.671875 220.753906 129.488281 220.410156 C 136.085938 225.226562 147.472656 230.480469 162.992188 226.367188 C 188.730469 219.554688 208.410156 229.394531 224.308594 224.097656 C 239.40625 219.066406 247.472656 209.222656 241.539062 191.410156 Z M 269.332031 147.496094 C 271.660156 154.019531 271.355469 163.089844 263.296875 168.460938 C 252.710938 175.515625 243.1875 169.785156 238.785156 166.875 C 241.789062 172.753906 247.90625 176.785156 254.96875 176.785156 C 265 176.785156 273.136719 168.652344 273.136719 158.621094 C 273.136719 154.425781 271.710938 150.570312 269.332031 147.496094 Z M 136.878906 160.890625 C 136.878906 156.695312 135.457031 152.839844 133.070312 149.765625 C 135.402344 156.289062 135.09375 165.359375 127.035156 170.730469 C 116.453125 177.785156 106.929688 172.054688 102.523438 169.144531 C 105.53125 175.023438 111.648438 179.054688 118.707031 179.054688 C 128.746094 179.054688 136.878906 170.921875 136.878906 160.890625 Z M 164.660156 150.933594 C 175.558594 148.003906 181.449219 134.664062 177.816406 121.140625 C 177.003906 118.109375 175.777344 115.332031 174.25 112.871094 C 177.183594 121.980469 177.367188 134.253906 168.679688 141.210938 C 159.753906 148.347656 148.421875 144.78125 143.980469 142.925781 C 149.367188 149.566406 157.21875 152.933594 164.660156 150.933594 Z M 205.996094 150.933594 C 216.894531 153.863281 228.679688 145.273438 232.316406 131.75 C 234.371094 124.121094 233.386719 116.554688 230.191406 110.875 C 231.953125 117.359375 232.332031 127.261719 223.9375 137.421875 C 213.269531 150.332031 200.945312 145.761719 195.285156 142.539062 C 197.757812 146.660156 201.433594 149.710938 205.996094 150.933594 Z M 205.996094 150.933594 " fill-opacity="1" fill-rule="nonzero"/><path fill="#ffffff" d="M 186.839844 163.914062 C 207.652344 163.914062 223.863281 171.316406 233.9375 181.359375 C 223.65625 172.96875 206.582031 162.007812 165.648438 172.242188 C 136.355469 179.566406 128.375 196.574219 126.636719 208.875 C 126.371094 188.089844 149.40625 163.914062 186.839844 163.914062 Z M 204.632812 109.789062 C 212.75 104.0625 221.460938 104.957031 226.796875 106.402344 C 224.675781 104.296875 222.101562 102.746094 219.164062 101.957031 C 208.265625 99.027344 196.480469 107.613281 192.84375 121.140625 C 191.785156 125.0625 191.539062 128.976562 191.980469 132.617188 C 193.359375 125.617188 196.683594 115.398438 204.632812 109.789062 Z M 254.96875 140.449219 C 244.9375 140.449219 236.800781 148.582031 236.800781 158.613281 C 236.800781 160.507812 237.09375 162.339844 237.632812 164.050781 C 237.6875 158.386719 239.203125 149.148438 247.78125 144.605469 C 255.398438 140.570312 262.484375 142.640625 267.003906 145 C 263.796875 142.175781 259.585938 140.449219 254.96875 140.449219 Z M 140.261719 136.980469 C 138.800781 128.335938 138.082031 113.9375 147.855469 108.273438 C 156.484375 103.28125 163.746094 104.277344 168.832031 106.53125 C 163.796875 102.234375 157.507812 100.335938 151.492188 101.953125 C 140.589844 104.878906 134.699219 118.21875 138.332031 131.746094 C 138.832031 133.589844 139.484375 135.339844 140.261719 136.980469 Z M 118.714844 142.722656 C 108.679688 142.722656 100.546875 150.855469 100.546875 160.890625 C 100.546875 163.871094 101.269531 166.679688 102.542969 169.164062 C 101.832031 162.296875 102.589844 152.339844 111.523438 147.640625 C 117.683594 144.402344 123.003906 144.078125 127.078125 144.765625 C 124.574219 143.460938 121.730469 142.722656 118.714844 142.722656 Z M 118.714844 142.722656 " fill-opacity="1" fill-rule="nonzero"/><path fill="#ffffff" d="M 160.96875 178.726562 C 161.359375 179.699219 160.890625 180.800781 159.917969 181.1875 C 143.292969 187.914062 139.136719 203.953125 139.09375 204.109375 C 138.878906 204.972656 138.105469 205.550781 137.257812 205.550781 C 137.105469 205.550781 136.953125 205.53125 136.804688 205.496094 C 135.789062 205.246094 135.171875 204.226562 135.417969 203.207031 C 135.597656 202.472656 140.027344 185.148438 158.5 177.679688 C 159.472656 177.289062 160.574219 177.757812 160.96875 178.726562 Z M 134.683594 132.734375 C 130.511719 117.210938 137.609375 101.765625 150.511719 98.300781 C 152.246094 97.835938 154.039062 97.601562 155.84375 97.601562 L 155.84375 101.382812 L 155.84375 97.601562 C 167.363281 97.601562 177.898438 106.875 181.46875 120.160156 C 185.640625 135.683594 178.539062 151.125 165.640625 154.59375 C 163.902344 155.058594 162.109375 155.292969 160.308594 155.292969 C 148.792969 155.292969 138.253906 146.019531 134.683594 132.734375 Z M 138.335938 131.75 C 141.492188 143.488281 150.785156 151.507812 160.308594 151.507812 C 161.757812 151.507812 163.214844 151.320312 164.65625 150.933594 C 175.554688 148 181.445312 134.664062 177.8125 121.140625 C 174.660156 109.402344 165.367188 101.382812 155.84375 101.382812 C 154.394531 101.382812 152.933594 101.570312 151.496094 101.957031 C 140.589844 104.882812 134.699219 118.226562 138.335938 131.75 Z M 190.503906 141.539062 C 187.671875 135.121094 187.203125 127.53125 189.183594 120.15625 C 192.753906 106.875 203.292969 97.59375 214.808594 97.59375 C 216.609375 97.59375 218.40625 97.832031 220.140625 98.296875 C 233.039062 101.761719 240.140625 117.210938 235.96875 132.726562 C 232.398438 146.007812 221.859375 155.289062 210.34375 155.289062 C 208.542969 155.289062 206.746094 155.054688 205.011719 154.589844 C 198.613281 152.871094 193.460938 148.238281 190.503906 141.539062 Z M 205.996094 150.933594 C 207.4375 151.324219 208.894531 151.507812 210.34375 151.507812 C 219.871094 151.507812 229.160156 143.488281 232.3125 131.75 C 235.953125 118.226562 230.0625 104.882812 219.15625 101.957031 C 217.714844 101.566406 216.257812 101.382812 214.808594 101.382812 C 205.28125 101.382812 195.992188 109.402344 192.839844 121.140625 C 189.203125 134.664062 195.09375 148.003906 205.996094 150.933594 Z M 276.921875 158.613281 C 276.921875 170.71875 267.074219 180.570312 254.96875 180.570312 C 242.863281 180.570312 233.015625 170.71875 233.015625 158.613281 C 233.015625 146.507812 242.863281 136.660156 254.96875 136.660156 C 267.074219 136.664062 276.921875 146.515625 276.921875 158.613281 Z M 273.136719 158.613281 C 273.136719 148.582031 265 140.449219 254.96875 140.449219 C 244.9375 140.449219 236.800781 148.582031 236.800781 158.613281 C 236.800781 168.648438 244.9375 176.78125 254.96875 176.78125 C 265 176.78125 273.136719 168.652344 273.136719 158.613281 Z M 118.714844 182.839844 C 106.605469 182.839844 96.757812 172.992188 96.757812 160.886719 C 96.757812 148.777344 106.605469 138.929688 118.714844 138.929688 C 130.820312 138.929688 140.667969 148.777344 140.667969 160.886719 C 140.667969 172.992188 130.820312 182.839844 118.714844 182.839844 Z M 136.878906 160.890625 C 136.878906 150.855469 128.746094 142.722656 118.714844 142.722656 C 108.679688 142.722656 100.546875 150.855469 100.546875 160.890625 C 100.546875 170.921875 108.679688 179.054688 118.714844 179.054688 C 128.746094 179.054688 136.878906 170.921875 136.878906 160.890625 Z M 244.542969 189.015625 C 250.75 200.042969 251.035156 211.753906 245.339844 221.144531 C 238.855469 231.820312 227.546875 237.011719 210.761719 237.011719 C 204.714844 237.011719 198.921875 236.382812 193.8125 235.824219 C 190.121094 235.421875 186.929688 235.074219 184.570312 235.074219 C 181.917969 235.074219 178.136719 235.714844 174.132812 236.390625 C 168.542969 237.335938 162.207031 238.410156 155.78125 238.410156 C 142.214844 238.410156 132.734375 233.488281 126.800781 223.363281 C 121.050781 213.554688 121.546875 201.3125 128.160156 189.777344 C 133.015625 181.304688 140.6875 174.066406 150.351562 168.84375 C 160.90625 163.140625 173.527344 160.132812 186.839844 160.132812 C 217.398438 160.132812 236.683594 175.050781 244.542969 189.015625 Z M 186.839844 163.914062 C 141.421875 163.914062 117.199219 199.492188 130.066406 221.445312 C 136.183594 231.886719 145.894531 234.621094 155.78125 234.621094 C 166.691406 234.621094 177.816406 231.289062 184.566406 231.289062 C 190.507812 231.289062 200.476562 233.222656 210.757812 233.222656 C 222.75 233.222656 235.167969 230.589844 242.097656 219.175781 C 254.96875 197.980469 231.5 163.914062 186.839844 163.914062 Z M 186.839844 163.914062 " fill-opacity="1" fill-rule="nonzero"/></svg>