<svg xmlns="http://www.w3.org/2000/svg" xmlns:xlink="http://www.w3.org/1999/xlink" width="500" zoomAndPan="magnify" viewBox="0 0 375 374.999991" height="500" preserveAspectRatio="xMidYMid meet" version="1.0"><defs><clipPath id="c65ae51c6e"><path d="M 107 109 L 375 109 L 375 361.359375 L 107 361.359375 Z M 107 109 " clip-rule="nonzero"/></clipPath><clipPath id="82bb8f17f3"><path d="M 0 13.359375 L 322 13.359375 L 322 309 L 0 309 Z M 0 13.359375 " clip-rule="nonzero"/></clipPath></defs><g clip-path="url(#c65ae51c6e)"><path fill="#071952" d="M 348.214844 109.554688 L 348.214844 214.285156 C 348.214844 215.382812 348.1875 216.476562 348.132812 217.570312 C 348.078125 218.667969 348 219.757812 347.890625 220.847656 C 347.785156 221.941406 347.648438 223.027344 347.488281 224.113281 C 347.328125 225.195312 347.140625 226.273438 346.925781 227.351562 C 346.714844 228.425781 346.472656 229.492188 346.207031 230.558594 C 345.941406 231.621094 345.648438 232.675781 345.332031 233.722656 C 345.011719 234.773438 344.667969 235.8125 344.300781 236.84375 C 343.929688 237.878906 343.535156 238.898438 343.117188 239.910156 C 342.699219 240.925781 342.253906 241.925781 341.785156 242.917969 C 341.316406 243.90625 340.824219 244.886719 340.308594 245.851562 C 339.789062 246.820312 339.25 247.773438 338.6875 248.710938 C 338.125 249.652344 337.539062 250.578125 336.929688 251.488281 C 336.320312 252.398438 335.6875 253.296875 335.035156 254.175781 C 334.382812 255.054688 333.710938 255.921875 333.015625 256.765625 C 332.320312 257.613281 331.601562 258.445312 330.867188 259.257812 C 330.132812 260.066406 329.375 260.863281 328.601562 261.636719 C 327.824219 262.410156 327.03125 263.167969 326.21875 263.902344 C 325.410156 264.640625 324.578125 265.355469 323.730469 266.050781 C 322.882812 266.746094 322.019531 267.417969 321.140625 268.070312 C 320.261719 268.726562 319.363281 269.355469 318.453125 269.964844 C 317.542969 270.574219 316.617188 271.160156 315.675781 271.722656 C 314.738281 272.285156 313.785156 272.828125 312.816406 273.34375 C 311.851562 273.859375 310.871094 274.351562 309.882812 274.820312 C 308.890625 275.289062 307.886719 275.734375 306.875 276.152344 C 305.863281 276.570312 304.839844 276.964844 303.808594 277.335938 C 302.777344 277.703125 301.738281 278.046875 300.6875 278.367188 C 299.640625 278.683594 298.585938 278.976562 297.519531 279.242188 C 296.457031 279.507812 295.390625 279.75 294.3125 279.964844 C 293.238281 280.175781 292.160156 280.363281 291.074219 280.523438 C 289.992188 280.6875 288.902344 280.820312 287.8125 280.925781 C 286.722656 281.035156 285.628906 281.117188 284.535156 281.167969 C 283.441406 281.222656 282.347656 281.25 281.25 281.25 L 107.144531 281.25 L 107.144531 294.644531 C 107.148438 295.957031 107.214844 297.269531 107.347656 298.578125 C 107.480469 299.886719 107.675781 301.183594 107.933594 302.472656 C 108.195312 303.761719 108.515625 305.035156 108.898438 306.292969 C 109.285156 307.550781 109.726562 308.785156 110.234375 310 C 110.738281 311.214844 111.300781 312.398438 111.921875 313.558594 C 112.542969 314.71875 113.21875 315.84375 113.949219 316.9375 C 114.683594 318.027344 115.464844 319.082031 116.300781 320.101562 C 117.132812 321.117188 118.015625 322.089844 118.945312 323.019531 C 119.875 323.949219 120.847656 324.832031 121.863281 325.664062 C 122.878906 326.5 123.933594 327.28125 125.027344 328.011719 C 126.121094 328.746094 127.246094 329.421875 128.40625 330.042969 C 129.5625 330.664062 130.75 331.226562 131.964844 331.730469 C 133.179688 332.234375 134.414062 332.679688 135.671875 333.066406 C 136.929688 333.449219 138.203125 333.769531 139.492188 334.03125 C 140.78125 334.289062 142.078125 334.484375 143.386719 334.617188 C 144.695312 334.75 146.007812 334.816406 147.320312 334.820312 L 301.742188 334.820312 C 303.863281 334.847656 305.871094 335.339844 307.769531 336.292969 L 355.582031 360.132812 C 357.476562 361.089844 359.484375 361.578125 361.605469 361.605469 C 364.164062 361.605469 366.527344 360.9375 368.707031 359.597656 C 369.671875 358.996094 370.542969 358.28125 371.328125 357.453125 C 372.109375 356.628906 372.777344 355.71875 373.328125 354.722656 C 373.878906 353.726562 374.296875 352.675781 374.578125 351.574219 C 374.863281 350.472656 375.003906 349.351562 375 348.214844 L 375 147.320312 C 374.996094 145.261719 374.832031 143.214844 374.511719 141.179688 C 374.1875 139.144531 373.714844 137.144531 373.085938 135.183594 C 372.457031 133.222656 371.683594 131.320312 370.761719 129.476562 C 369.84375 127.632812 368.785156 125.871094 367.59375 124.191406 C 366.402344 122.511719 365.089844 120.929688 363.65625 119.453125 C 362.21875 117.972656 360.679688 116.613281 359.035156 115.371094 C 357.394531 114.132812 355.664062 113.023438 353.847656 112.046875 C 352.035156 111.070312 350.15625 110.242188 348.214844 109.554688 Z M 348.214844 109.554688 " fill-opacity="1" fill-rule="nonzero"/></g><g clip-path="url(#82bb8f17f3)"><path fill="#071952" d="M 321.429688 214.285156 L 321.429688 53.570312 C 321.429688 52.253906 321.363281 50.941406 321.234375 49.632812 C 321.105469 48.324219 320.914062 47.023438 320.65625 45.734375 C 320.398438 44.441406 320.082031 43.167969 319.699219 41.90625 C 319.316406 40.648438 318.875 39.410156 318.371094 38.195312 C 317.867188 36.980469 317.304688 35.792969 316.683594 34.632812 C 316.0625 33.472656 315.386719 32.34375 314.65625 31.25 C 313.925781 30.15625 313.144531 29.101562 312.308594 28.082031 C 311.472656 27.066406 310.589844 26.089844 309.660156 25.160156 C 308.730469 24.230469 307.757812 23.347656 306.738281 22.511719 C 305.722656 21.679688 304.667969 20.894531 303.570312 20.164062 C 302.476562 19.433594 301.351562 18.757812 300.191406 18.136719 C 299.03125 17.515625 297.839844 16.953125 296.625 16.453125 C 295.410156 15.949219 294.171875 15.503906 292.914062 15.121094 C 291.652344 14.742188 290.378906 14.421875 289.089844 14.164062 C 287.796875 13.90625 286.496094 13.714844 285.1875 13.585938 C 283.878906 13.457031 282.566406 13.394531 281.25 13.394531 L 40.179688 13.394531 C 38.863281 13.394531 37.550781 13.457031 36.242188 13.585938 C 34.929688 13.714844 33.628906 13.90625 32.339844 14.164062 C 31.050781 14.421875 29.773438 14.742188 28.515625 15.121094 C 27.257812 15.503906 26.019531 15.949219 24.804688 16.453125 C 23.585938 16.953125 22.398438 17.515625 21.238281 18.136719 C 20.078125 18.757812 18.949219 19.433594 17.855469 20.164062 C 16.761719 20.894531 15.707031 21.679688 14.691406 22.511719 C 13.671875 23.347656 12.699219 24.230469 11.769531 25.160156 C 10.835938 26.089844 9.953125 27.066406 9.121094 28.082031 C 8.285156 29.101562 7.503906 30.15625 6.769531 31.25 C 6.039062 32.34375 5.363281 33.472656 4.746094 34.632812 C 4.125 35.792969 3.5625 36.980469 3.058594 38.195312 C 2.554688 39.410156 2.113281 40.648438 1.730469 41.910156 C 1.347656 43.167969 1.027344 44.441406 0.773438 45.734375 C 0.515625 47.023438 0.324219 48.324219 0.195312 49.632812 C 0.0664062 50.941406 0 52.253906 0 53.570312 L 0 294.644531 C 0 295.90625 0.175781 297.140625 0.523438 298.355469 C 0.871094 299.566406 1.382812 300.707031 2.054688 301.777344 C 2.726562 302.84375 3.53125 303.796875 4.472656 304.636719 C 5.414062 305.480469 6.453125 306.171875 7.589844 306.71875 C 8.730469 307.265625 9.917969 307.644531 11.164062 307.855469 C 12.40625 308.0625 13.65625 308.097656 14.910156 307.953125 C 16.164062 307.8125 17.375 307.496094 18.539062 307.011719 C 19.703125 306.527344 20.777344 305.890625 21.761719 305.101562 L 81.386719 257.398438 C 82.574219 256.449219 83.878906 255.726562 85.3125 255.222656 C 86.742188 254.71875 88.214844 254.464844 89.730469 254.464844 L 281.25 254.464844 C 282.566406 254.464844 283.878906 254.398438 285.1875 254.269531 C 286.496094 254.140625 287.796875 253.949219 289.089844 253.691406 C 290.378906 253.433594 291.652344 253.117188 292.914062 252.734375 C 294.171875 252.351562 295.410156 251.910156 296.625 251.40625 C 297.839844 250.902344 299.03125 250.339844 300.191406 249.71875 C 301.351562 249.101562 302.476562 248.425781 303.570312 247.691406 C 304.667969 246.960938 305.722656 246.179688 306.738281 245.34375 C 307.757812 244.507812 308.730469 243.625 309.660156 242.695312 C 310.589844 241.765625 311.472656 240.792969 312.308594 239.773438 C 313.144531 238.757812 313.925781 237.703125 314.65625 236.609375 C 315.386719 235.511719 316.0625 234.386719 316.683594 233.226562 C 317.304688 232.066406 317.867188 230.878906 318.371094 229.660156 C 318.875 228.445312 319.316406 227.207031 319.699219 225.949219 C 320.082031 224.691406 320.398438 223.414062 320.65625 222.125 C 320.914062 220.832031 321.105469 219.535156 321.234375 218.222656 C 321.363281 216.914062 321.429688 215.601562 321.429688 214.285156 Z M 173.035156 192.589844 C 172.425781 194.273438 171.488281 195.746094 170.226562 197.011719 C 168.960938 198.277344 167.484375 199.210938 165.804688 199.820312 C 164.183594 200.535156 162.484375 200.890625 160.714844 200.890625 C 158.941406 200.890625 157.246094 200.535156 155.625 199.820312 C 153.941406 199.210938 152.46875 198.277344 151.203125 197.011719 C 149.9375 195.746094 149 194.273438 148.394531 192.589844 C 147.699219 190.964844 147.34375 189.265625 147.320312 187.5 C 147.347656 185.726562 147.695312 184.019531 148.367188 182.378906 C 149.035156 180.738281 149.984375 179.273438 151.207031 177.992188 C 152.515625 176.800781 153.992188 175.863281 155.625 175.179688 C 157.242188 174.441406 158.9375 174.074219 160.714844 174.074219 C 162.492188 174.074219 164.1875 174.441406 165.804688 175.179688 C 167.4375 175.863281 168.910156 176.800781 170.222656 177.992188 C 171.457031 179.269531 172.410156 180.726562 173.082031 182.371094 C 173.75 184.015625 174.09375 185.726562 174.105469 187.5 C 174.085938 189.265625 173.730469 190.964844 173.035156 192.589844 Z M 175.59375 145.714844 C 174.851562 146.160156 174.277344 146.765625 173.871094 147.527344 C 173.464844 148.292969 173.285156 149.109375 173.332031 149.972656 C 173.332031 150.851562 173.246094 151.722656 173.074219 152.585938 C 172.902344 153.449219 172.648438 154.285156 172.3125 155.097656 C 171.972656 155.910156 171.5625 156.683594 171.074219 157.414062 C 170.585938 158.144531 170.03125 158.820312 169.40625 159.445312 C 168.785156 160.066406 168.109375 160.621094 167.378906 161.109375 C 166.648438 161.597656 165.875 162.011719 165.0625 162.347656 C 164.25 162.683594 163.414062 162.9375 162.550781 163.109375 C 161.6875 163.28125 160.816406 163.367188 159.9375 163.367188 C 159.058594 163.367188 158.1875 163.28125 157.324219 163.109375 C 156.460938 162.9375 155.625 162.683594 154.8125 162.347656 C 154 162.011719 153.226562 161.597656 152.496094 161.109375 C 151.765625 160.621094 151.089844 160.066406 150.46875 159.445312 C 149.84375 158.820312 149.289062 158.144531 148.800781 157.414062 C 148.3125 156.683594 147.902344 155.910156 147.5625 155.097656 C 147.226562 154.285156 146.972656 153.449219 146.800781 152.585938 C 146.628906 151.722656 146.542969 150.851562 146.542969 149.972656 C 146.523438 148.445312 146.613281 146.925781 146.8125 145.410156 C 147.015625 143.894531 147.328125 142.402344 147.75 140.933594 C 148.171875 139.464844 148.695312 138.035156 149.328125 136.644531 C 149.960938 135.253906 150.695312 133.914062 151.523438 132.632812 C 152.351562 131.347656 153.273438 130.132812 154.28125 128.984375 C 155.289062 127.839844 156.378906 126.769531 157.542969 125.785156 C 158.710938 124.796875 159.945312 123.902344 161.242188 123.09375 C 162.542969 122.289062 163.890625 121.582031 165.292969 120.976562 C 165.996094 120.6875 166.667969 120.34375 167.3125 119.945312 C 167.957031 119.546875 168.5625 119.101562 169.136719 118.605469 C 169.710938 118.109375 170.238281 117.574219 170.726562 116.992188 C 171.214844 116.414062 171.652344 115.796875 172.039062 115.148438 C 172.425781 114.496094 172.761719 113.820312 173.039062 113.117188 C 173.320312 112.410156 173.542969 111.691406 173.707031 110.949219 C 173.871094 110.210938 173.976562 109.464844 174.019531 108.707031 C 174.0625 107.953125 174.046875 107.195312 173.972656 106.445312 C 173.894531 105.691406 173.757812 104.949219 173.5625 104.214844 C 173.367188 103.484375 173.113281 102.773438 172.804688 102.082031 C 172.496094 101.390625 172.132812 100.726562 171.71875 100.09375 C 171.300781 99.460938 170.839844 98.867188 170.328125 98.304688 C 169.816406 97.746094 169.265625 97.234375 168.671875 96.761719 C 168.078125 96.292969 167.449219 95.871094 166.789062 95.5 C 166.128906 95.132812 165.441406 94.816406 164.730469 94.554688 C 164.019531 94.296875 163.292969 94.09375 162.550781 93.949219 C 161.722656 93.800781 160.886719 93.722656 160.046875 93.71875 C 159.203125 93.714844 158.367188 93.785156 157.539062 93.925781 C 156.710938 94.070312 155.898438 94.28125 155.105469 94.566406 C 154.316406 94.851562 153.554688 95.207031 152.824219 95.625 C 152.09375 96.042969 151.40625 96.523438 150.761719 97.0625 C 150.117188 97.601562 149.523438 98.195312 148.980469 98.839844 C 148.441406 99.484375 147.960938 100.167969 147.539062 100.898438 C 147.117188 101.628906 146.765625 102.386719 146.476562 103.179688 C 146.175781 104 145.800781 104.785156 145.34375 105.53125 C 144.890625 106.277344 144.367188 106.976562 143.777344 107.621094 C 143.1875 108.265625 142.539062 108.847656 141.835938 109.363281 C 141.132812 109.882812 140.382812 110.328125 139.59375 110.699219 C 138.800781 111.070312 137.980469 111.363281 137.132812 111.574219 C 136.28125 111.785156 135.421875 111.910156 134.546875 111.953125 C 133.675781 111.996094 132.804688 111.953125 131.941406 111.824219 C 131.074219 111.695312 130.230469 111.484375 129.40625 111.191406 C 128.582031 110.898438 127.796875 110.527344 127.042969 110.082031 C 126.292969 109.632812 125.59375 109.117188 124.941406 108.53125 C 124.292969 107.945312 123.707031 107.304688 123.179688 106.605469 C 122.65625 105.90625 122.207031 105.160156 121.828125 104.371094 C 121.449219 103.582031 121.148438 102.765625 120.933594 101.917969 C 120.714844 101.074219 120.578125 100.210938 120.53125 99.339844 C 120.480469 98.464844 120.515625 97.597656 120.636719 96.730469 C 120.757812 95.863281 120.960938 95.019531 121.246094 94.191406 C 121.527344 93.390625 121.835938 92.601562 122.167969 91.816406 C 122.503906 91.035156 122.859375 90.265625 123.238281 89.507812 C 123.621094 88.746094 124.023438 88 124.449219 87.265625 C 124.878906 86.53125 125.328125 85.808594 125.796875 85.101562 C 126.269531 84.398438 126.761719 83.707031 127.277344 83.03125 C 127.792969 82.355469 128.328125 81.695312 128.882812 81.050781 C 129.441406 80.410156 130.015625 79.785156 130.609375 79.179688 C 131.203125 78.570312 131.816406 77.984375 132.449219 77.414062 C 133.082031 76.847656 133.730469 76.296875 134.394531 75.769531 C 135.058594 75.242188 135.742188 74.734375 136.4375 74.25 C 137.132812 73.761719 137.84375 73.300781 138.570312 72.859375 C 139.296875 72.417969 140.035156 71.996094 140.789062 71.601562 C 141.539062 71.207031 142.300781 70.835938 143.078125 70.484375 C 143.851562 70.136719 144.636719 69.8125 145.433594 69.515625 C 146.226562 69.214844 147.03125 68.941406 147.84375 68.691406 C 148.65625 68.441406 149.476562 68.21875 150.300781 68.019531 C 151.125 67.820312 151.957031 67.648438 152.796875 67.503906 C 153.632812 67.355469 154.472656 67.234375 155.316406 67.140625 C 156.160156 67.046875 157.007812 66.976562 157.855469 66.9375 C 158.703125 66.894531 159.554688 66.878906 160.402344 66.890625 C 161.253906 66.902344 162.101562 66.9375 162.949219 67.003906 C 163.796875 67.066406 164.640625 67.15625 165.480469 67.273438 C 166.324219 67.390625 167.160156 67.53125 167.992188 67.699219 C 168.824219 67.867188 169.652344 68.0625 170.472656 68.28125 C 171.292969 68.503906 172.105469 68.75 172.910156 69.019531 C 173.714844 69.289062 174.511719 69.585938 175.300781 69.90625 C 176.085938 70.222656 176.863281 70.570312 177.628906 70.9375 C 178.394531 71.304688 179.148438 71.695312 179.890625 72.113281 C 180.628906 72.527344 181.359375 72.964844 182.070312 73.425781 C 182.785156 73.886719 183.484375 74.367188 184.167969 74.871094 C 184.851562 75.375 185.519531 75.898438 186.171875 76.445312 C 186.824219 76.992188 187.457031 77.554688 188.074219 78.140625 C 188.6875 78.726562 189.285156 79.328125 189.863281 79.953125 C 190.445312 80.574219 191.003906 81.214844 191.542969 81.871094 C 192.082031 82.527344 192.597656 83.199219 193.09375 83.886719 C 193.59375 84.578125 194.066406 85.28125 194.519531 86 C 194.972656 86.71875 195.402344 87.449219 195.8125 88.195312 C 196.21875 88.941406 196.605469 89.699219 196.964844 90.46875 C 197.324219 91.238281 197.660156 92.015625 197.972656 92.808594 C 198.285156 93.597656 198.574219 94.394531 198.835938 95.203125 C 199.097656 96.011719 199.335938 96.828125 199.546875 97.648438 C 199.757812 98.472656 199.941406 99.300781 200.101562 100.136719 C 200.261719 100.96875 200.398438 101.808594 200.503906 102.652344 C 200.613281 103.496094 200.695312 104.339844 200.75 105.1875 C 200.804688 106.035156 200.835938 106.882812 200.835938 107.734375 C 200.839844 108.582031 200.816406 109.429688 200.765625 110.28125 C 200.714844 111.128906 200.636719 111.972656 200.535156 112.816406 C 200.433594 113.660156 200.304688 114.5 200.148438 115.335938 C 199.992188 116.167969 199.8125 117 199.605469 117.824219 C 199.398438 118.648438 199.167969 119.464844 198.910156 120.273438 C 198.652344 121.082031 198.371094 121.882812 198.0625 122.675781 C 197.753906 123.46875 197.421875 124.25 197.066406 125.023438 C 196.710938 125.792969 196.332031 126.550781 195.929688 127.300781 C 195.527344 128.046875 195.101562 128.78125 194.652344 129.503906 C 194.203125 130.226562 193.730469 130.933594 193.238281 131.625 C 192.746094 132.316406 192.230469 132.992188 191.695312 133.652344 C 191.160156 134.3125 190.605469 134.953125 190.03125 135.578125 C 189.457031 136.207031 188.863281 136.8125 188.25 137.402344 C 187.636719 137.988281 187.007812 138.558594 186.359375 139.109375 C 185.710938 139.65625 185.046875 140.1875 184.367188 140.695312 C 183.683594 141.203125 182.988281 141.6875 182.277344 142.152344 C 181.566406 142.617188 180.839844 143.058594 180.101562 143.480469 C 179.363281 143.898438 178.613281 144.296875 177.847656 144.667969 C 177.085938 145.039062 176.3125 145.390625 175.527344 145.714844 Z M 175.59375 145.714844 " fill-opacity="1" fill-rule="nonzero"/></g></svg>