<svg xmlns="http://www.w3.org/2000/svg" xmlns:xlink="http://www.w3.org/1999/xlink" width="500" zoomAndPan="magnify" viewBox="0 0 375 374.999991" height="500" preserveAspectRatio="xMidYMid meet" version="1.0"><path fill="#071952" d="M 187.5 0 C 184.429688 0 181.363281 0.0742188 178.300781 0.226562 C 175.234375 0.375 172.175781 0.601562 169.121094 0.902344 C 166.066406 1.203125 163.023438 1.578125 159.988281 2.03125 C 156.953125 2.480469 153.929688 3.003906 150.921875 3.601562 C 147.910156 4.203125 144.917969 4.875 141.941406 5.617188 C 138.964844 6.363281 136.007812 7.183594 133.070312 8.074219 C 130.136719 8.964844 127.222656 9.925781 124.332031 10.960938 C 121.445312 11.996094 118.582031 13.097656 115.746094 14.273438 C 112.910156 15.445312 110.105469 16.691406 107.332031 18.003906 C 104.558594 19.3125 101.820312 20.691406 99.113281 22.140625 C 96.40625 23.585938 93.738281 25.097656 91.105469 26.675781 C 88.472656 28.253906 85.882812 29.894531 83.332031 31.597656 C 80.777344 33.304688 78.269531 35.070312 75.804688 36.898438 C 73.339844 38.726562 70.921875 40.613281 68.550781 42.558594 C 66.179688 44.507812 63.855469 46.511719 61.582031 48.570312 C 59.308594 50.632812 57.085938 52.746094 54.917969 54.917969 C 52.746094 57.085938 50.632812 59.308594 48.570312 61.582031 C 46.511719 63.855469 44.507812 66.179688 42.558594 68.550781 C 40.613281 70.921875 38.726562 73.339844 36.898438 75.804688 C 35.070312 78.269531 33.304688 80.777344 31.597656 83.332031 C 29.894531 85.882812 28.253906 88.472656 26.675781 91.105469 C 25.097656 93.738281 23.585938 96.40625 22.140625 99.113281 C 20.691406 101.820312 19.3125 104.558594 18.003906 107.332031 C 16.691406 110.105469 15.445312 112.910156 14.273438 115.746094 C 13.097656 118.582031 11.996094 121.445312 10.960938 124.332031 C 9.925781 127.222656 8.964844 130.136719 8.074219 133.070312 C 7.183594 136.007812 6.363281 138.964844 5.617188 141.941406 C 4.875 144.917969 4.203125 147.910156 3.601562 150.921875 C 3.003906 153.929688 2.480469 156.953125 2.03125 159.988281 C 1.578125 163.023438 1.203125 166.066406 0.902344 169.121094 C 0.601562 172.175781 0.375 175.234375 0.226562 178.300781 C 0.0742188 181.363281 0 184.429688 0 187.5 C 0 190.570312 0.0742188 193.636719 0.226562 196.699219 C 0.375 199.765625 0.601562 202.824219 0.902344 205.878906 C 1.203125 208.933594 1.578125 211.976562 2.03125 215.011719 C 2.480469 218.046875 3.003906 221.070312 3.601562 224.078125 C 4.203125 227.089844 4.875 230.082031 5.617188 233.058594 C 6.363281 236.035156 7.183594 238.992188 8.074219 241.929688 C 8.964844 244.863281 9.925781 247.777344 10.960938 250.667969 C 11.996094 253.554688 13.097656 256.417969 14.273438 259.253906 C 15.445312 262.089844 16.691406 264.890625 18.003906 267.667969 C 19.3125 270.441406 20.691406 273.179688 22.140625 275.886719 C 23.585938 278.59375 25.097656 281.261719 26.675781 283.894531 C 28.253906 286.527344 29.894531 289.117188 31.597656 291.667969 C 33.304688 294.222656 35.070312 296.730469 36.898438 299.195312 C 38.726562 301.660156 40.613281 304.078125 42.558594 306.449219 C 44.507812 308.820312 46.511719 311.144531 48.570312 313.417969 C 50.632812 315.691406 52.746094 317.914062 54.917969 320.082031 C 57.085938 322.253906 59.308594 324.367188 61.582031 326.429688 C 63.855469 328.488281 66.179688 330.492188 68.550781 332.4375 C 70.921875 334.386719 73.339844 336.273438 75.804688 338.101562 C 78.269531 339.929688 80.777344 341.695312 83.332031 343.402344 C 85.882812 345.105469 88.472656 346.746094 91.105469 348.324219 C 93.738281 349.902344 96.40625 351.414062 99.113281 352.859375 C 101.820312 354.308594 104.558594 355.6875 107.332031 356.996094 C 110.105469 358.308594 112.910156 359.554688 115.746094 360.726562 C 118.582031 361.902344 121.445312 363.003906 124.332031 364.039062 C 127.222656 365.074219 130.136719 366.035156 133.070312 366.925781 C 136.007812 367.816406 138.964844 368.636719 141.941406 369.378906 C 144.917969 370.125 147.910156 370.796875 150.921875 371.398438 C 153.929688 371.996094 156.953125 372.519531 159.988281 372.96875 C 163.023438 373.421875 166.066406 373.796875 169.121094 374.097656 C 172.175781 374.398438 175.234375 374.625 178.300781 374.773438 C 181.363281 374.925781 184.429688 375 187.5 375 C 190.570312 375 193.636719 374.925781 196.699219 374.773438 C 199.765625 374.625 202.824219 374.398438 205.878906 374.097656 C 208.933594 373.796875 211.976562 373.421875 215.011719 372.96875 C 218.046875 372.519531 221.070312 371.996094 224.078125 371.398438 C 227.089844 370.796875 230.082031 370.125 233.058594 369.378906 C 236.035156 368.636719 238.992188 367.816406 241.929688 366.925781 C 244.863281 366.035156 247.777344 365.074219 250.667969 364.039062 C 253.554688 363.003906 256.417969 361.902344 259.253906 360.726562 C 262.089844 359.554688 264.890625 358.308594 267.667969 356.996094 C 270.441406 355.6875 273.179688 354.308594 275.886719 352.859375 C 278.59375 351.414062 281.261719 349.902344 283.894531 348.324219 C 286.527344 346.746094 289.117188 345.105469 291.667969 343.402344 C 294.222656 341.695312 296.730469 339.929688 299.195312 338.101562 C 301.660156 336.273438 304.078125 334.386719 306.449219 332.4375 C 308.820312 330.492188 311.144531 328.488281 313.417969 326.429688 C 315.691406 324.367188 317.914062 322.253906 320.082031 320.082031 C 322.253906 317.914062 324.367188 315.691406 326.429688 313.417969 C 328.488281 311.144531 330.492188 308.820312 332.4375 306.449219 C 334.386719 304.078125 336.273438 301.660156 338.101562 299.195312 C 339.929688 296.730469 341.695312 294.222656 343.402344 291.667969 C 345.105469 289.117188 346.746094 286.527344 348.324219 283.894531 C 349.902344 281.261719 351.414062 278.59375 352.859375 275.886719 C 354.308594 273.179688 355.6875 270.441406 356.996094 267.667969 C 358.308594 264.890625 359.554688 262.089844 360.726562 259.253906 C 361.902344 256.417969 363.003906 253.554688 364.039062 250.667969 C 365.074219 247.777344 366.035156 244.863281 366.925781 241.929688 C 367.816406 238.992188 368.636719 236.035156 369.378906 233.058594 C 370.125 230.082031 370.796875 227.089844 371.398438 224.078125 C 371.996094 221.070312 372.519531 218.046875 372.96875 215.011719 C 373.421875 211.976562 373.796875 208.933594 374.097656 205.878906 C 374.398438 202.824219 374.625 199.765625 374.773438 196.699219 C 374.925781 193.636719 375 190.570312 375 187.5 C 374.996094 184.433594 374.917969 181.367188 374.765625 178.304688 C 374.609375 175.238281 374.382812 172.179688 374.078125 169.128906 C 373.773438 166.074219 373.398438 163.03125 372.945312 160 C 372.492188 156.964844 371.964844 153.941406 371.363281 150.933594 C 370.761719 147.925781 370.089844 144.933594 369.339844 141.960938 C 368.59375 138.984375 367.773438 136.03125 366.878906 133.09375 C 365.988281 130.160156 365.023438 127.25 363.988281 124.359375 C 362.953125 121.472656 361.847656 118.613281 360.671875 115.777344 C 359.496094 112.945312 358.253906 110.140625 356.941406 107.371094 C 355.625 104.597656 354.246094 101.859375 352.800781 99.152344 C 351.351562 96.449219 349.839844 93.78125 348.261719 91.152344 C 346.683594 88.519531 345.042969 85.929688 343.335938 83.378906 C 341.632812 80.828125 339.867188 78.320312 338.039062 75.859375 C 336.210938 73.394531 334.324219 70.976562 332.375 68.605469 C 330.429688 66.234375 328.425781 63.914062 326.367188 61.640625 C 324.304688 59.367188 322.191406 57.148438 320.023438 54.976562 C 317.851562 52.808594 315.632812 50.695312 313.359375 48.632812 C 311.085938 46.574219 308.765625 44.570312 306.394531 42.625 C 304.023438 40.675781 301.605469 38.789062 299.140625 36.960938 C 296.679688 35.132812 294.171875 33.367188 291.621094 31.664062 C 289.070312 29.957031 286.480469 28.316406 283.847656 26.738281 C 281.21875 25.160156 278.550781 23.648438 275.847656 22.199219 C 273.140625 20.753906 270.402344 19.371094 267.628906 18.058594 C 264.859375 16.746094 262.054688 15.503906 259.222656 14.328125 C 256.386719 13.152344 253.527344 12.046875 250.640625 11.011719 C 247.75 9.976562 244.839844 9.011719 241.90625 8.121094 C 238.96875 7.226562 236.015625 6.40625 233.039062 5.660156 C 230.066406 4.910156 227.074219 4.238281 224.066406 3.636719 C 221.058594 3.035156 218.035156 2.507812 215 2.054688 C 211.96875 1.601562 208.925781 1.226562 205.871094 0.921875 C 202.820312 0.617188 199.761719 0.390625 196.695312 0.234375 C 193.632812 0.0820312 190.566406 0.00390625 187.5 0 Z M 295.996094 86.769531 L 211.320312 316.609375 C 211.113281 317.160156 210.835938 317.671875 210.480469 318.144531 C 210.128906 318.617188 209.714844 319.027344 209.238281 319.378906 C 208.765625 319.726562 208.253906 320.003906 207.699219 320.203125 C 207.144531 320.402344 206.570312 320.519531 205.984375 320.550781 L 205.644531 320.550781 C 205.082031 320.550781 204.535156 320.476562 203.992188 320.324219 C 203.453125 320.167969 202.945312 319.945312 202.46875 319.652344 C 201.988281 319.355469 201.5625 319 201.183594 318.585938 C 200.804688 318.171875 200.488281 317.714844 200.238281 317.214844 L 163.949219 244.632812 C 163.519531 243.78125 163.308594 242.878906 163.308594 241.921875 C 163.308594 240.96875 163.519531 240.066406 163.949219 239.214844 L 192.121094 182.867188 L 135.773438 211.039062 C 134.921875 211.46875 134.019531 211.679688 133.066406 211.679688 C 132.109375 211.679688 131.207031 211.46875 130.355469 211.039062 L 57.773438 174.75 C 57.246094 174.484375 56.769531 174.152344 56.339844 173.746094 C 55.910156 173.34375 55.546875 172.886719 55.253906 172.375 C 54.957031 171.867188 54.742188 171.324219 54.601562 170.75 C 54.464844 170.175781 54.414062 169.597656 54.445312 169.007812 C 54.480469 168.417969 54.597656 167.847656 54.796875 167.292969 C 54.996094 166.738281 55.269531 166.222656 55.621094 165.75 C 55.972656 165.273438 56.382812 164.859375 56.855469 164.507812 C 57.324219 164.152344 57.839844 163.875 58.390625 163.667969 L 288.230469 78.992188 C 288.773438 78.792969 289.332031 78.671875 289.90625 78.632812 C 290.484375 78.59375 291.054688 78.636719 291.617188 78.761719 C 292.183594 78.882812 292.71875 79.085938 293.222656 79.363281 C 293.730469 79.640625 294.1875 79.980469 294.597656 80.390625 C 295.003906 80.800781 295.347656 81.257812 295.625 81.761719 C 295.902344 82.269531 296.105469 82.804688 296.226562 83.371094 C 296.351562 83.933594 296.394531 84.503906 296.355469 85.082031 C 296.316406 85.65625 296.195312 86.214844 295.996094 86.757812 Z M 295.996094 86.769531 " fill-opacity="1" fill-rule="nonzero"/></svg>