<svg xmlns="http://www.w3.org/2000/svg" xmlns:xlink="http://www.w3.org/1999/xlink" width="500" zoomAndPan="magnify" viewBox="0 0 375 374.999991" height="500" preserveAspectRatio="xMidYMid meet" version="1.0"><defs><filter x="0%" y="0%" width="100%" height="100%" id="a3396607d6"><feColorMatrix values="0 0 0 0 1 0 0 0 0 1 0 0 0 0 1 0 0 0 1 0" color-interpolation-filters="sRGB"/></filter><clipPath id="e8cfd8e511"><path d="M 0 4.183594 L 375 4.183594 L 375 370.933594 L 0 370.933594 Z M 0 4.183594 " clip-rule="nonzero"/></clipPath><mask id="1f31f30500"><g filter="url(#a3396607d6)"><rect x="-37.5" width="450" fill="#000000" y="-37.499999" height="449.999989" fill-opacity="0.2"/></g></mask><clipPath id="3ecd4aec6f"><rect x="0" width="375" y="0" height="367"/></clipPath></defs><g clip-path="url(#e8cfd8e511)"><g mask="url(#1f31f30500)"><g transform="matrix(1, 0, 0, 1, 0, 4)"><g clip-path="url(#3ecd4aec6f)"><path fill="#c3e421" d="M 311.914062 55.792969 C 313.9375 57.820312 315.910156 59.890625 317.832031 62.015625 C 319.757812 64.136719 321.625 66.304688 323.441406 68.515625 C 325.257812 70.730469 327.019531 72.988281 328.726562 75.285156 C 330.433594 77.585938 332.082031 79.925781 333.671875 82.308594 C 335.261719 84.6875 336.792969 87.105469 338.265625 89.5625 C 339.738281 92.019531 341.148438 94.507812 342.5 97.035156 C 343.847656 99.558594 345.136719 102.117188 346.359375 104.707031 C 347.582031 107.292969 348.742188 109.910156 349.839844 112.554688 C 350.933594 115.203125 351.964844 117.871094 352.929688 120.570312 C 353.894531 123.265625 354.792969 125.984375 355.625 128.722656 C 356.453125 131.460938 357.21875 134.222656 357.914062 137 C 358.609375 139.777344 359.238281 142.570312 359.796875 145.378906 C 360.355469 148.1875 360.84375 151.007812 361.265625 153.839844 C 361.683594 156.671875 362.035156 159.511719 362.316406 162.363281 C 362.597656 165.210938 362.804688 168.066406 362.945312 170.925781 C 363.085938 173.785156 363.15625 176.648438 363.15625 179.511719 C 363.15625 182.375 363.085938 185.238281 362.945312 188.097656 C 362.804688 190.957031 362.597656 193.8125 362.316406 196.660156 C 362.035156 199.511719 361.683594 202.351562 361.265625 205.183594 C 360.84375 208.015625 360.355469 210.835938 359.796875 213.644531 C 359.238281 216.453125 358.609375 219.246094 357.914062 222.023438 C 357.21875 224.800781 356.453125 227.5625 355.625 230.300781 C 354.792969 233.039062 353.894531 235.757812 352.929688 238.453125 C 351.964844 241.152344 350.933594 243.820312 349.839844 246.46875 C 348.742188 249.113281 347.582031 251.730469 346.359375 254.316406 C 345.136719 256.90625 343.847656 259.464844 342.5 261.988281 C 341.148438 264.515625 339.738281 267.003906 338.265625 269.460938 C 336.792969 271.917969 335.261719 274.335938 333.671875 276.714844 C 332.082031 279.097656 330.433594 281.4375 328.726562 283.738281 C 327.019531 286.035156 325.257812 288.292969 323.441406 290.507812 C 321.625 292.71875 319.757812 294.886719 317.832031 297.007812 C 315.910156 299.132812 313.9375 301.203125 311.914062 303.230469 C 309.886719 305.253906 307.8125 307.226562 305.691406 309.152344 C 303.570312 311.074219 301.402344 312.945312 299.191406 314.761719 C 296.976562 316.578125 294.71875 318.335938 292.421875 320.042969 C 290.121094 321.75 287.78125 323.398438 285.398438 324.988281 C 283.019531 326.578125 280.601562 328.109375 278.144531 329.582031 C 275.6875 331.054688 273.195312 332.464844 270.671875 333.816406 C 268.144531 335.164062 265.589844 336.453125 263 337.675781 C 260.414062 338.902344 257.796875 340.0625 255.148438 341.15625 C 252.503906 342.253906 249.835938 343.28125 247.136719 344.246094 C 244.441406 345.210938 241.722656 346.109375 238.984375 346.941406 C 236.242188 347.773438 233.484375 348.535156 230.707031 349.230469 C 227.929688 349.925781 225.136719 350.554688 222.328125 351.113281 C 219.519531 351.671875 216.699219 352.160156 213.867188 352.582031 C 211.035156 353 208.195312 353.351562 205.34375 353.632812 C 202.496094 353.914062 199.640625 354.125 196.78125 354.265625 C 193.917969 354.40625 191.058594 354.476562 188.195312 354.476562 C 185.332031 354.476562 182.46875 354.40625 179.609375 354.265625 C 176.75 354.125 173.894531 353.914062 171.046875 353.632812 C 168.195312 353.351562 165.355469 353 162.523438 352.582031 C 159.691406 352.160156 156.871094 351.671875 154.0625 351.113281 C 151.253906 350.554688 148.460938 349.925781 145.683594 349.230469 C 142.90625 348.535156 140.144531 347.773438 137.40625 346.941406 C 134.664062 346.109375 131.949219 345.210938 129.25 344.246094 C 126.554688 343.28125 123.886719 342.253906 121.238281 341.15625 C 118.59375 340.0625 115.976562 338.902344 113.386719 337.675781 C 110.800781 336.453125 108.242188 335.164062 105.71875 333.816406 C 103.191406 332.464844 100.703125 331.054688 98.246094 329.582031 C 95.789062 328.109375 93.371094 326.578125 90.992188 324.988281 C 88.609375 323.398438 86.269531 321.75 83.96875 320.042969 C 81.667969 318.335938 79.414062 316.578125 77.199219 314.761719 C 74.984375 312.945312 72.820312 311.074219 70.695312 309.152344 C 68.574219 307.226562 66.503906 305.253906 64.476562 303.230469 C 62.453125 301.203125 60.480469 299.132812 58.554688 297.007812 C 56.632812 294.886719 54.761719 292.71875 52.945312 290.507812 C 51.128906 288.292969 49.367188 286.035156 47.664062 283.738281 C 45.957031 281.4375 44.308594 279.097656 42.71875 276.714844 C 41.128906 274.335938 39.597656 271.917969 38.125 269.460938 C 36.652344 267.003906 35.242188 264.515625 33.890625 261.988281 C 32.542969 259.464844 31.253906 256.90625 30.03125 254.316406 C 28.804688 251.730469 27.644531 249.113281 26.550781 246.46875 C 25.453125 243.820312 24.425781 241.152344 23.460938 238.453125 C 22.496094 235.757812 21.597656 233.039062 20.765625 230.300781 C 19.933594 227.5625 19.171875 224.800781 18.476562 222.023438 C 17.78125 219.246094 17.152344 216.453125 16.59375 213.644531 C 16.035156 210.835938 15.546875 208.015625 15.125 205.183594 C 14.707031 202.351562 14.355469 199.511719 14.074219 196.660156 C 13.792969 193.8125 13.582031 190.957031 13.441406 188.097656 C 13.300781 185.238281 13.230469 182.375 13.230469 179.511719 C 13.230469 176.648438 13.300781 173.785156 13.441406 170.925781 C 13.582031 168.066406 13.792969 165.210938 14.074219 162.363281 C 14.355469 159.511719 14.707031 156.671875 15.125 153.839844 C 15.546875 151.007812 16.035156 148.1875 16.59375 145.378906 C 17.152344 142.570312 17.78125 139.777344 18.476562 137 C 19.171875 134.222656 19.933594 131.460938 20.765625 128.722656 C 21.597656 125.984375 22.496094 123.265625 23.460938 120.570312 C 24.425781 117.871094 25.453125 115.203125 26.550781 112.554688 C 27.644531 109.910156 28.804688 107.292969 30.03125 104.707031 C 31.253906 102.117188 32.542969 99.558594 33.890625 97.035156 C 35.242188 94.507812 36.652344 92.019531 38.125 89.5625 C 39.597656 87.105469 41.128906 84.6875 42.71875 82.308594 C 44.308594 79.925781 45.957031 77.585938 47.664062 75.285156 C 49.367188 72.988281 51.128906 70.730469 52.945312 68.515625 C 54.761719 66.304688 56.632812 64.136719 58.554688 62.015625 C 60.480469 59.890625 62.453125 57.820312 64.476562 55.792969 C 66.503906 53.769531 68.574219 51.796875 70.695312 49.871094 C 72.820312 47.949219 74.984375 46.082031 77.199219 44.261719 C 79.414062 42.445312 81.667969 40.6875 83.96875 38.980469 C 86.269531 37.273438 88.609375 35.625 90.992188 34.035156 C 93.371094 32.445312 95.789062 30.914062 98.246094 29.441406 C 100.703125 27.96875 103.191406 26.558594 105.71875 25.207031 C 108.242188 23.859375 110.800781 22.570312 113.386719 21.347656 C 115.976562 20.121094 118.59375 18.960938 121.238281 17.867188 C 123.882812 16.769531 126.554688 15.742188 129.25 14.777344 C 131.949219 13.8125 134.664062 12.914062 137.40625 12.082031 C 140.144531 11.25 142.90625 10.488281 145.683594 9.792969 C 148.460938 9.097656 151.253906 8.46875 154.0625 7.910156 C 156.871094 7.351562 159.691406 6.863281 162.523438 6.441406 C 165.355469 6.023438 168.195312 5.671875 171.046875 5.390625 C 173.894531 5.109375 176.75 4.898438 179.609375 4.757812 C 182.46875 4.617188 185.332031 4.546875 188.195312 4.546875 C 191.058594 4.546875 193.917969 4.617188 196.78125 4.757812 C 199.640625 4.898438 202.496094 5.109375 205.34375 5.390625 C 208.195312 5.671875 211.035156 6.023438 213.867188 6.441406 C 216.699219 6.863281 219.519531 7.351562 222.328125 7.910156 C 225.136719 8.46875 227.929688 9.097656 230.707031 9.792969 C 233.484375 10.488281 236.242188 11.25 238.984375 12.082031 C 241.722656 12.914062 244.441406 13.8125 247.136719 14.777344 C 249.835938 15.742188 252.503906 16.769531 255.148438 17.867188 C 257.796875 18.960938 260.414062 20.121094 263 21.347656 C 265.589844 22.570312 268.144531 23.859375 270.671875 25.207031 C 273.195312 26.558594 275.6875 27.96875 278.144531 29.441406 C 280.601562 30.914062 283.019531 32.445312 285.398438 34.035156 C 287.78125 35.625 290.121094 37.273438 292.421875 38.980469 C 294.71875 40.6875 296.976562 42.445312 299.191406 44.261719 C 301.402344 46.082031 303.570312 47.949219 305.691406 49.871094 C 307.8125 51.796875 309.886719 53.769531 311.914062 55.792969 Z M 311.914062 55.792969 " fill-opacity="1" fill-rule="nonzero"/></g></g></g></g><path fill="#ffffff" d="M 314.8125 182.851562 C 309.792969 179.265625 304.363281 176.492188 298.515625 174.527344 C 287.800781 170.351562 283.957031 171.21875 279.78125 168.152344 C 275.066406 164.683594 270.78125 156.816406 272.820312 137.460938 C 297.296875 120.390625 305.269531 88.410156 292.679688 63.9375 C 283.40625 45.917969 252.667969 43.222656 218.023438 39.136719 C 209.828125 38.167969 202.90625 37.753906 197.925781 37.5625 C 177.351562 83.800781 181.042969 126 202.332031 140.847656 C 206.664062 143.867188 214.40625 147.625 227.46875 147.035156 C 226.484375 155.3125 225.503906 163.585938 224.519531 171.863281 C 220.863281 175.394531 214.421875 179.273438 203.085938 181.898438 C 177.230469 187.886719 166.070312 208.574219 160.351562 246.953125 C 154.636719 285.335938 151.371094 361.230469 151.371094 361.230469 L 347.808594 345.898438 C 347.808594 345.898438 340.660156 200.816406 314.8125 182.851562 Z M 314.8125 182.851562 " fill-opacity="1" fill-rule="nonzero"/><path fill="#071952" d="M 151.375 362.105469 C 151.253906 362.105469 151.140625 362.082031 151.03125 362.035156 C 150.917969 361.988281 150.824219 361.921875 150.742188 361.835938 C 150.660156 361.75 150.597656 361.652344 150.554688 361.539062 C 150.511719 361.425781 150.492188 361.3125 150.5 361.191406 C 150.53125 360.433594 153.832031 284.8125 159.488281 246.824219 C 165.59375 205.828125 178.167969 186.769531 202.890625 181.046875 C 212.210938 178.886719 219.207031 175.660156 223.691406 171.445312 L 226.480469 147.945312 C 216.605469 148.234375 208.316406 146.082031 201.832031 141.558594 C 179.21875 125.792969 177.238281 81.902344 197.125 37.203125 C 197.199219 37.039062 197.3125 36.910156 197.464844 36.8125 C 197.617188 36.71875 197.78125 36.675781 197.960938 36.683594 C 204.664062 36.949219 211.449219 37.480469 218.128906 38.265625 C 251.027344 42.113281 283.796875 44.75 293.460938 63.539062 C 306.480469 88.847656 297.957031 120.761719 273.648438 137.945312 C 272.105469 153.140625 274.339844 163.066406 280.296875 167.445312 C 284.246094 170.347656 288.160156 169.554688 298.828125 173.710938 C 304.746094 175.691406 310.238281 178.5 315.308594 182.132812 C 341.210938 200.132812 348.386719 339.910156 348.679688 345.851562 C 348.691406 346.089844 348.621094 346.296875 348.464844 346.472656 C 348.308594 346.652344 348.109375 346.75 347.875 346.769531 C 250.65625 354.355469 151.460938 362.105469 151.375 362.105469 Z M 228.339844 147.136719 C 225.132812 174.136719 225.464844 172.171875 225.128906 172.492188 C 220.425781 177.03125 213.078125 180.484375 203.289062 182.75 C 190.664062 185.675781 181.648438 192.023438 174.910156 202.746094 C 168.574219 212.824219 164.222656 226.914062 161.222656 247.082031 C 155.929688 282.613281 152.699219 351.234375 152.292969 360.285156 L 346.890625 345.09375 C 345.410156 317.546875 337.019531 199.355469 314.316406 183.570312 C 309.371094 180.050781 304.023438 177.316406 298.273438 175.367188 C 287.472656 171.167969 283.632812 172.066406 279.261719 168.855469 C 272.71875 164.046875 270.253906 153.449219 271.953125 137.367188 C 271.980469 137.101562 272.101562 136.894531 272.320312 136.742188 C 296.164062 120.117188 304.585938 88.988281 291.902344 64.339844 C 283.3125 47.632812 255.40625 44.378906 223.097656 40.613281 C 215.378906 39.707031 208.714844 38.882812 198.488281 38.457031 C 179.191406 82.207031 180.996094 124.898438 202.835938 140.125 C 209.222656 144.578125 217.496094 146.609375 227.429688 146.164062 C 227.558594 146.15625 227.683594 146.179688 227.800781 146.226562 C 227.917969 146.277344 228.023438 146.347656 228.109375 146.441406 C 228.195312 146.535156 228.261719 146.640625 228.300781 146.761719 C 228.339844 146.886719 228.351562 147.007812 228.339844 147.136719 Z M 228.339844 147.136719 " fill-opacity="1" fill-rule="nonzero"/><path fill="#c3e421" d="M 200.980469 140.863281 C 200.980469 140.863281 179 151.683594 200.980469 174.003906 C 200.980469 174.003906 166.078125 191.695312 157.90625 227.082031 C 149.734375 262.46875 148.515625 361.957031 148.515625 361.957031 L 358.382812 361.957031 C 358.382812 361.957031 355.523438 225.3125 323.675781 188.976562 C 325.605469 188.503906 327.394531 187.722656 329.054688 186.636719 C 338.949219 180.101562 339.558594 164.273438 338.105469 156.3125 C 335.289062 140.894531 319.839844 128.136719 299.453125 124.054688 C 292.589844 131.699219 283.246094 135.515625 273.253906 136.304688 C 273.253906 136.304688 269.160156 163.871094 283.050781 168.898438 C 296.941406 173.929688 258.371094 186.132812 241.890625 199.394531 C 241.890625 199.394531 228.230469 186.792969 226.640625 177.132812 C 225.046875 167.476562 226.570312 147.804688 226.570312 147.804688 C 226.570312 147.804688 212.277344 148.757812 200.980469 140.863281 Z M 200.980469 140.863281 " fill-opacity="1" fill-rule="nonzero"/><path fill="#c3e421" d="M 241.890625 208.027344 C 241.890625 208.027344 236.84375 193.875 255.625 184.890625 C 274.40625 175.910156 280.34375 173.460938 275.46875 158.21875 L 299.71875 171.28125 L 295.910156 185.164062 L 279.460938 199.394531 L 254.8125 208.027344 Z M 241.890625 208.027344 " fill-opacity="1" fill-rule="nonzero"/><path fill="#ffffff" d="M 179.875 346.773438 L 179.855469 346.773438 C 179.613281 346.765625 179.410156 346.675781 179.242188 346.503906 C 179.074219 346.328125 178.992188 346.121094 179 345.878906 L 181.390625 234.277344 C 181.394531 234.039062 181.480469 233.835938 181.652344 233.671875 C 181.824219 233.503906 182.027344 233.421875 182.265625 233.421875 L 182.285156 233.421875 C 182.527344 233.425781 182.730469 233.515625 182.898438 233.691406 C 183.0625 233.867188 183.144531 234.074219 183.140625 234.316406 L 180.75 345.917969 C 180.742188 346.15625 180.65625 346.355469 180.484375 346.523438 C 180.316406 346.6875 180.113281 346.773438 179.875 346.773438 Z M 179.875 346.773438 " fill-opacity="1" fill-rule="nonzero"/><path fill="#ffffff" d="M 272.617188 202.660156 C 272.421875 202.660156 272.246094 202.601562 272.089844 202.480469 C 271.933594 202.359375 271.828125 202.203125 271.777344 202.015625 C 271.726562 201.824219 271.738281 201.636719 271.8125 201.453125 C 271.886719 201.273438 272.011719 201.128906 272.179688 201.03125 C 278.007812 197.777344 284.046875 194.972656 290.289062 192.621094 C 304.058594 187.445312 315.363281 185.933594 323.898438 188.125 C 324.132812 188.183594 324.308594 188.316406 324.433594 188.527344 C 324.554688 188.734375 324.585938 188.957031 324.527344 189.191406 C 324.464844 189.425781 324.332031 189.601562 324.125 189.726562 C 323.914062 189.847656 323.695312 189.878906 323.460938 189.820312 C 303.894531 184.792969 273.367188 202.367188 273.0625 202.542969 C 272.925781 202.621094 272.777344 202.664062 272.617188 202.660156 Z M 272.617188 202.660156 " fill-opacity="1" fill-rule="nonzero"/><path fill="#071952" d="M 253.976562 85.378906 C 253.738281 85.378906 253.53125 85.296875 253.363281 85.128906 C 252.25 83.984375 251.003906 83.007812 249.625 82.207031 C 248.246094 81.402344 246.78125 80.800781 245.234375 80.398438 C 243.691406 79.996094 242.121094 79.808594 240.523438 79.835938 C 238.925781 79.867188 237.363281 80.109375 235.832031 80.570312 C 235.609375 80.644531 235.390625 80.628906 235.175781 80.527344 C 234.960938 80.421875 234.8125 80.257812 234.734375 80.035156 C 234.652344 79.8125 234.660156 79.59375 234.761719 79.375 C 234.859375 79.160156 235.019531 79.007812 235.242188 78.921875 C 236.925781 78.410156 238.648438 78.132812 240.410156 78.089844 C 242.167969 78.050781 243.902344 78.25 245.609375 78.6875 C 247.316406 79.125 248.929688 79.785156 250.453125 80.664062 C 251.980469 81.546875 253.355469 82.617188 254.585938 83.878906 C 254.710938 84.003906 254.792969 84.152344 254.828125 84.328125 C 254.867188 84.5 254.851562 84.667969 254.785156 84.835938 C 254.714844 85 254.609375 85.128906 254.460938 85.230469 C 254.316406 85.328125 254.152344 85.378906 253.976562 85.378906 Z M 253.976562 85.378906 " fill-opacity="1" fill-rule="nonzero"/><path fill="#071952" d="M 245.082031 93.507812 C 245.082031 93.820312 245.050781 94.132812 244.992188 94.441406 C 244.929688 94.75 244.839844 95.050781 244.71875 95.339844 C 244.597656 95.632812 244.449219 95.90625 244.273438 96.167969 C 244.101562 96.429688 243.902344 96.671875 243.679688 96.894531 C 243.457031 97.117188 243.214844 97.316406 242.953125 97.492188 C 242.691406 97.664062 242.414062 97.8125 242.125 97.933594 C 241.835938 98.054688 241.535156 98.144531 241.226562 98.207031 C 240.917969 98.269531 240.605469 98.296875 240.292969 98.296875 C 239.976562 98.296875 239.664062 98.269531 239.355469 98.207031 C 239.046875 98.144531 238.75 98.054688 238.457031 97.933594 C 238.167969 97.8125 237.890625 97.664062 237.628906 97.492188 C 237.367188 97.316406 237.125 97.117188 236.902344 96.894531 C 236.679688 96.671875 236.480469 96.429688 236.308594 96.167969 C 236.132812 95.90625 235.984375 95.632812 235.863281 95.339844 C 235.742188 95.050781 235.652344 94.75 235.59375 94.441406 C 235.53125 94.132812 235.5 93.820312 235.5 93.507812 C 235.5 93.191406 235.53125 92.878906 235.59375 92.574219 C 235.652344 92.265625 235.742188 91.964844 235.863281 91.671875 C 235.984375 91.382812 236.132812 91.105469 236.308594 90.84375 C 236.480469 90.582031 236.679688 90.339844 236.902344 90.117188 C 237.125 89.898438 237.367188 89.699219 237.628906 89.523438 C 237.890625 89.347656 238.167969 89.199219 238.457031 89.082031 C 238.75 88.960938 239.046875 88.867188 239.355469 88.808594 C 239.664062 88.746094 239.976562 88.714844 240.292969 88.714844 C 240.605469 88.714844 240.917969 88.746094 241.226562 88.808594 C 241.535156 88.867188 241.835938 88.960938 242.125 89.082031 C 242.414062 89.199219 242.691406 89.347656 242.953125 89.523438 C 243.214844 89.699219 243.457031 89.898438 243.679688 90.117188 C 243.902344 90.339844 244.101562 90.582031 244.273438 90.84375 C 244.449219 91.105469 244.597656 91.382812 244.71875 91.671875 C 244.839844 91.964844 244.929688 92.265625 244.992188 92.574219 C 245.050781 92.878906 245.082031 93.191406 245.082031 93.507812 Z M 245.082031 93.507812 " fill-opacity="1" fill-rule="nonzero"/><path fill="#071952" d="M 211.28125 82.742188 C 211.101562 82.742188 210.9375 82.691406 210.789062 82.589844 C 210.210938 82.195312 209.609375 81.84375 208.980469 81.539062 C 208.351562 81.230469 207.703125 80.972656 207.035156 80.761719 C 206.371094 80.550781 205.691406 80.390625 205 80.28125 C 204.3125 80.167969 203.617188 80.109375 202.917969 80.101562 C 202.21875 80.09375 201.519531 80.136719 200.828125 80.230469 C 200.136719 80.324219 199.453125 80.46875 198.78125 80.664062 C 198.109375 80.859375 197.457031 81.101562 196.820312 81.390625 C 196.183594 81.683594 195.574219 82.019531 194.988281 82.398438 C 194.785156 82.53125 194.566406 82.570312 194.328125 82.523438 C 194.09375 82.472656 193.910156 82.34375 193.777344 82.144531 C 193.644531 81.941406 193.605469 81.722656 193.65625 81.484375 C 193.703125 81.25 193.832031 81.0625 194.035156 80.933594 C 194.691406 80.503906 195.378906 80.128906 196.09375 79.800781 C 196.804688 79.472656 197.539062 79.203125 198.292969 78.984375 C 199.050781 78.765625 199.816406 78.601562 200.59375 78.496094 C 201.371094 78.390625 202.152344 78.34375 202.9375 78.351562 C 203.722656 78.363281 204.503906 78.429688 205.277344 78.550781 C 206.054688 78.675781 206.816406 78.859375 207.566406 79.09375 C 208.3125 79.332031 209.042969 79.621094 209.746094 79.964844 C 210.453125 80.308594 211.128906 80.703125 211.777344 81.144531 C 211.9375 81.253906 212.046875 81.398438 212.109375 81.578125 C 212.171875 81.761719 212.175781 81.941406 212.121094 82.125 C 212.0625 82.308594 211.957031 82.457031 211.800781 82.570312 C 211.648438 82.683594 211.472656 82.742188 211.28125 82.742188 Z M 211.28125 82.742188 " fill-opacity="1" fill-rule="nonzero"/><path fill="#071952" d="M 208.363281 93.015625 C 208.363281 93.332031 208.332031 93.640625 208.269531 93.949219 C 208.207031 94.257812 208.117188 94.558594 207.996094 94.851562 C 207.878906 95.140625 207.730469 95.417969 207.554688 95.679688 C 207.378906 95.941406 207.179688 96.183594 206.957031 96.402344 C 206.734375 96.625 206.496094 96.824219 206.234375 97 C 205.972656 97.175781 205.695312 97.324219 205.40625 97.441406 C 205.113281 97.5625 204.8125 97.652344 204.503906 97.714844 C 204.195312 97.777344 203.886719 97.808594 203.570312 97.808594 C 203.257812 97.808594 202.945312 97.777344 202.636719 97.714844 C 202.328125 97.652344 202.027344 97.5625 201.738281 97.441406 C 201.445312 97.324219 201.171875 97.175781 200.910156 97 C 200.648438 96.824219 200.40625 96.625 200.183594 96.402344 C 199.960938 96.183594 199.761719 95.941406 199.585938 95.679688 C 199.410156 95.417969 199.265625 95.140625 199.144531 94.851562 C 199.023438 94.558594 198.933594 94.257812 198.871094 93.949219 C 198.808594 93.640625 198.78125 93.332031 198.78125 93.015625 C 198.78125 92.703125 198.808594 92.390625 198.871094 92.082031 C 198.933594 91.773438 199.023438 91.472656 199.144531 91.183594 C 199.265625 90.890625 199.410156 90.617188 199.585938 90.355469 C 199.761719 90.09375 199.960938 89.851562 200.183594 89.628906 C 200.40625 89.40625 200.648438 89.207031 200.910156 89.03125 C 201.171875 88.859375 201.445312 88.710938 201.738281 88.589844 C 202.027344 88.46875 202.328125 88.378906 202.636719 88.316406 C 202.945312 88.253906 203.257812 88.226562 203.570312 88.226562 C 203.886719 88.226562 204.195312 88.253906 204.503906 88.316406 C 204.8125 88.378906 205.113281 88.46875 205.40625 88.589844 C 205.695312 88.710938 205.972656 88.859375 206.234375 89.03125 C 206.496094 89.207031 206.734375 89.40625 206.957031 89.628906 C 207.179688 89.851562 207.378906 90.09375 207.554688 90.355469 C 207.730469 90.617188 207.878906 90.890625 207.996094 91.183594 C 208.117188 91.472656 208.207031 91.773438 208.269531 92.082031 C 208.332031 92.390625 208.363281 92.703125 208.363281 93.015625 Z M 208.363281 93.015625 " fill-opacity="1" fill-rule="nonzero"/><path fill="#071952" d="M 215.347656 104.542969 C 214.1875 102.582031 217.636719 94.5 219.171875 91.117188 C 219.269531 90.886719 219.429688 90.730469 219.660156 90.636719 C 219.890625 90.546875 220.117188 90.554688 220.34375 90.65625 C 220.566406 90.757812 220.71875 90.925781 220.804688 91.15625 C 220.886719 91.390625 220.875 91.617188 220.765625 91.839844 C 218.542969 96.734375 216.445312 102.652344 216.859375 103.667969 C 217.320312 104.441406 220.390625 104.84375 222.949219 104.71875 C 223.1875 104.710938 223.398438 104.785156 223.578125 104.945312 C 223.757812 105.109375 223.851562 105.308594 223.863281 105.550781 C 223.875 105.792969 223.800781 106.003906 223.640625 106.183594 C 223.476562 106.363281 223.277344 106.457031 223.035156 106.46875 C 220.8125 106.574219 216.476562 106.449219 215.347656 104.542969 Z M 215.347656 104.542969 " fill-opacity="1" fill-rule="nonzero"/><path fill="#c3e421" d="M 248.640625 107.6875 C 248.640625 107.957031 248.597656 108.222656 248.515625 108.484375 C 248.429688 108.75 248.300781 109.003906 248.132812 109.253906 C 247.964844 109.503906 247.757812 109.738281 247.511719 109.960938 C 247.269531 110.1875 246.988281 110.394531 246.675781 110.585938 C 246.363281 110.777344 246.023438 110.945312 245.65625 111.097656 C 245.289062 111.25 244.898438 111.375 244.492188 111.480469 C 244.082031 111.585938 243.660156 111.664062 243.226562 111.71875 C 242.792969 111.773438 242.351562 111.800781 241.910156 111.804688 C 241.464844 111.804688 241.027344 111.78125 240.589844 111.730469 C 240.15625 111.679688 239.734375 111.605469 239.324219 111.503906 C 238.914062 111.402344 238.523438 111.277344 238.15625 111.132812 C 237.785156 110.984375 237.445312 110.816406 237.128906 110.628906 C 236.816406 110.441406 236.535156 110.234375 236.289062 110.015625 C 236.042969 109.792969 235.832031 109.558594 235.660156 109.3125 C 235.492188 109.0625 235.359375 108.808594 235.273438 108.546875 C 235.1875 108.285156 235.140625 108.019531 235.140625 107.75 C 235.140625 107.480469 235.179688 107.214844 235.265625 106.953125 C 235.351562 106.691406 235.476562 106.433594 235.648438 106.183594 C 235.816406 105.9375 236.023438 105.699219 236.265625 105.476562 C 236.511719 105.253906 236.792969 105.042969 237.105469 104.855469 C 237.417969 104.664062 237.757812 104.492188 238.125 104.339844 C 238.492188 104.191406 238.882812 104.0625 239.289062 103.957031 C 239.699219 103.855469 240.121094 103.773438 240.554688 103.71875 C 240.988281 103.667969 241.429688 103.636719 241.871094 103.636719 C 242.316406 103.632812 242.753906 103.65625 243.1875 103.707031 C 243.625 103.757812 244.046875 103.835938 244.457031 103.933594 C 244.867188 104.035156 245.253906 104.160156 245.625 104.308594 C 245.992188 104.453125 246.335938 104.621094 246.648438 104.808594 C 246.964844 105 247.246094 105.203125 247.492188 105.425781 C 247.738281 105.648438 247.949219 105.882812 248.121094 106.128906 C 248.289062 106.375 248.417969 106.628906 248.507812 106.890625 C 248.59375 107.15625 248.640625 107.421875 248.640625 107.6875 Z M 248.640625 107.6875 " fill-opacity="1" fill-rule="nonzero"/><path fill="#c3e421" d="M 206.648438 106.96875 C 206.648438 107.238281 206.605469 107.503906 206.519531 107.765625 C 206.4375 108.03125 206.308594 108.285156 206.140625 108.535156 C 205.972656 108.78125 205.765625 109.019531 205.519531 109.242188 C 205.273438 109.46875 204.996094 109.675781 204.683594 109.867188 C 204.371094 110.058594 204.03125 110.226562 203.664062 110.378906 C 203.296875 110.527344 202.90625 110.65625 202.496094 110.761719 C 202.089844 110.867188 201.667969 110.945312 201.230469 111 C 200.796875 111.054688 200.359375 111.082031 199.914062 111.082031 C 199.472656 111.085938 199.035156 111.0625 198.597656 111.011719 C 198.164062 110.960938 197.742188 110.886719 197.332031 110.785156 C 196.921875 110.683594 196.53125 110.558594 196.164062 110.414062 C 195.792969 110.265625 195.453125 110.097656 195.136719 109.910156 C 194.824219 109.722656 194.542969 109.515625 194.296875 109.292969 C 194.046875 109.074219 193.839844 108.839844 193.667969 108.589844 C 193.496094 108.34375 193.367188 108.089844 193.28125 107.828125 C 193.191406 107.5625 193.148438 107.300781 193.148438 107.03125 C 193.144531 106.761719 193.1875 106.496094 193.273438 106.234375 C 193.359375 105.96875 193.484375 105.714844 193.652344 105.464844 C 193.824219 105.21875 194.027344 104.980469 194.273438 104.757812 C 194.519531 104.53125 194.796875 104.324219 195.109375 104.132812 C 195.421875 103.941406 195.765625 103.773438 196.132812 103.621094 C 196.5 103.472656 196.886719 103.34375 197.296875 103.238281 C 197.707031 103.132812 198.128906 103.054688 198.5625 103 C 198.996094 102.945312 199.433594 102.917969 199.878906 102.917969 C 200.320312 102.914062 200.761719 102.9375 201.195312 102.988281 C 201.628906 103.039062 202.054688 103.113281 202.464844 103.214844 C 202.871094 103.316406 203.261719 103.441406 203.632812 103.585938 C 204 103.734375 204.34375 103.902344 204.65625 104.089844 C 204.972656 104.277344 205.253906 104.484375 205.5 104.707031 C 205.746094 104.925781 205.957031 105.160156 206.125 105.410156 C 206.296875 105.65625 206.425781 105.910156 206.515625 106.171875 C 206.601562 106.4375 206.644531 106.699219 206.648438 106.96875 Z M 206.648438 106.96875 " fill-opacity="1" fill-rule="nonzero"/><path fill="#071952" d="M 287.820312 99.988281 C 288.097656 98.363281 289.667969 89.226562 284.453125 85.375 C 283.554688 84.710938 282.164062 83.652344 280.46875 83.875 C 276.386719 84.40625 274.644531 92.207031 270.175781 92.667969 C 269.632812 92.773438 269.128906 92.667969 268.671875 92.355469 C 266.761719 90.832031 270.359375 85.113281 271.003906 80.777344 C 272.363281 71.617188 262.082031 58.753906 250.796875 56.074219 C 237.921875 53.019531 230.746094 64.886719 220.378906 61.382812 C 212.207031 58.625 208.207031 48.40625 206.085938 39.945312 C 204.050781 41.480469 202.152344 43.164062 200.386719 45 C 198.621094 46.832031 197.007812 48.792969 195.554688 50.882812 C 194.097656 52.972656 192.816406 55.160156 191.707031 57.453125 C 190.597656 59.746094 189.671875 62.109375 188.9375 64.546875 C 181.84375 57.171875 180.28125 46.351562 184.855469 38.109375 C 190.433594 28.058594 202.207031 27.136719 203.023438 27.085938 C 239.421875 4.101562 284.257812 12.851562 304.078125 40.765625 C 327.253906 73.40625 308.230469 120.996094 290.988281 132.605469 C 287.992188 134.625 278.652344 140.917969 272.746094 137.457031 C 269.488281 135.550781 268.304688 131.507812 268.203125 129.855469 C 267.898438 124.964844 268.160156 114.925781 274.265625 112.222656 C 279.527344 109.898438 283.085938 110.027344 286.03125 105.519531 C 287.167969 103.78125 287.441406 102.203125 287.820312 99.988281 Z M 287.820312 99.988281 " fill-opacity="1" fill-rule="nonzero"/><path fill="#071952" d="M 279.457031 105.953125 C 279.304688 105.953125 279.160156 105.917969 279.023438 105.839844 C 278.890625 105.761719 278.785156 105.65625 278.707031 105.523438 C 278.625 105.390625 278.585938 105.246094 278.585938 105.09375 C 278.582031 104.9375 278.617188 104.792969 278.691406 104.65625 C 279.109375 104.007812 279.367188 103.296875 279.476562 102.535156 C 279.582031 101.769531 279.523438 101.015625 279.300781 100.277344 C 278.375 97.609375 275.160156 96.226562 275.128906 96.214844 C 274.789062 96.070312 274.609375 95.8125 274.59375 95.441406 C 274.582031 95.070312 274.738281 94.800781 275.070312 94.628906 L 283.046875 90.53125 C 283.261719 90.421875 283.484375 90.402344 283.714844 90.476562 C 283.945312 90.550781 284.117188 90.695312 284.226562 90.910156 C 284.339844 91.125 284.355469 91.347656 284.28125 91.578125 C 284.207031 91.808594 284.0625 91.976562 283.847656 92.089844 L 277.328125 95.4375 C 281.097656 97.886719 282.421875 101.519531 280.226562 105.5 C 280.058594 105.804688 279.804688 105.957031 279.457031 105.953125 Z M 279.457031 105.953125 " fill-opacity="1" fill-rule="nonzero"/><path fill="#071952" d="M 168.875 349.535156 L 25.417969 349.535156 C 25.042969 349.535156 24.671875 349.503906 24.300781 349.433594 C 23.933594 349.367188 23.574219 349.265625 23.222656 349.128906 C 22.875 348.996094 22.539062 348.828125 22.21875 348.632812 C 21.902344 348.4375 21.601562 348.214844 21.324219 347.960938 C 21.046875 347.710938 20.792969 347.4375 20.566406 347.136719 C 20.339844 346.839844 20.140625 346.523438 19.972656 346.191406 C 19.800781 345.855469 19.664062 345.507812 19.558594 345.148438 C 19.453125 344.789062 19.382812 344.421875 19.34375 344.050781 L 9.152344 243.601562 C 9.109375 243.179688 9.109375 242.753906 9.15625 242.332031 C 9.199219 241.90625 9.289062 241.492188 9.421875 241.085938 C 9.554688 240.679688 9.730469 240.292969 9.945312 239.921875 C 10.15625 239.554688 10.40625 239.210938 10.695312 238.894531 C 10.980469 238.578125 11.296875 238.296875 11.640625 238.042969 C 11.988281 237.792969 12.355469 237.582031 12.746094 237.410156 C 13.136719 237.234375 13.539062 237.105469 13.957031 237.015625 C 14.375 236.929688 14.796875 236.882812 15.222656 236.882812 L 160.457031 236.882812 C 160.835938 236.882812 161.214844 236.917969 161.585938 236.988281 C 161.960938 237.058594 162.320312 237.164062 162.675781 237.300781 C 163.027344 237.4375 163.367188 237.609375 163.6875 237.808594 C 164.011719 238.007812 164.3125 238.238281 164.589844 238.496094 C 164.867188 238.75 165.121094 239.03125 165.347656 239.335938 C 165.574219 239.640625 165.773438 239.960938 165.941406 240.300781 C 166.105469 240.644531 166.238281 240.996094 166.339844 241.363281 C 166.441406 241.726562 166.507812 242.097656 166.539062 242.476562 L 174.957031 342.925781 C 174.992188 343.347656 174.984375 343.765625 174.933594 344.183594 C 174.878906 344.605469 174.785156 345.011719 174.648438 345.414062 C 174.511719 345.8125 174.335938 346.191406 174.121094 346.554688 C 173.902344 346.917969 173.652344 347.253906 173.367188 347.566406 C 173.082031 347.875 172.765625 348.152344 172.421875 348.398438 C 172.078125 348.644531 171.714844 348.851562 171.328125 349.023438 C 170.941406 349.191406 170.542969 349.320312 170.128906 349.40625 C 169.714844 349.492188 169.296875 349.535156 168.875 349.535156 Z M 168.875 349.535156 " fill-opacity="1" fill-rule="nonzero"/><path fill="#071952" d="M 238.265625 361.230469 L 24.703125 361.230469 C 24.339844 361.226562 23.988281 361.164062 23.648438 361.039062 C 23.308594 360.914062 22.996094 360.738281 22.71875 360.503906 C 22.4375 360.273438 22.203125 360.003906 22.019531 359.691406 C 21.832031 359.382812 21.703125 359.046875 21.628906 358.691406 L 19.734375 346.640625 C 19.703125 346.476562 19.691406 346.3125 19.699219 346.144531 C 19.710938 345.976562 19.734375 345.816406 19.78125 345.65625 C 19.828125 345.492188 19.890625 345.339844 19.96875 345.195312 C 20.046875 345.046875 20.144531 344.914062 20.253906 344.789062 C 20.363281 344.664062 20.488281 344.554688 20.625 344.457031 C 20.757812 344.359375 20.902344 344.28125 21.058594 344.214844 C 21.210938 344.152344 21.371094 344.105469 21.535156 344.078125 C 21.699219 344.050781 21.863281 344.039062 22.03125 344.050781 L 238.230469 344.050781 C 238.582031 344.042969 238.921875 344.101562 239.25 344.230469 C 239.574219 344.355469 239.867188 344.542969 240.121094 344.785156 C 240.375 345.027344 240.570312 345.308594 240.710938 345.632812 C 240.855469 345.953125 240.929688 346.289062 240.9375 346.640625 L 240.9375 358.691406 C 240.925781 359.039062 240.851562 359.367188 240.710938 359.683594 C 240.570312 360 240.375 360.277344 240.125 360.515625 C 239.875 360.753906 239.589844 360.933594 239.265625 361.058594 C 238.945312 361.179688 238.609375 361.238281 238.265625 361.230469 Z M 238.265625 361.230469 " fill-opacity="1" fill-rule="nonzero"/><path fill="#ffffff" d="M 313.671875 312.859375 C 289.007812 306.960938 254.898438 306.140625 254.554688 306.132812 C 254.316406 306.125 254.113281 306.035156 253.945312 305.859375 C 253.777344 305.6875 253.699219 305.476562 253.703125 305.238281 C 253.710938 304.996094 253.800781 304.792969 253.972656 304.625 C 254.148438 304.457031 254.355469 304.378906 254.59375 304.382812 C 254.933594 304.390625 288.121094 305.191406 312.859375 310.871094 L 303.761719 236.988281 C 303.726562 236.746094 303.785156 236.53125 303.933594 236.339844 C 304.085938 236.148438 304.277344 236.035156 304.519531 236.007812 C 304.761719 235.976562 304.976562 236.039062 305.167969 236.1875 C 305.359375 236.339844 305.46875 236.535156 305.496094 236.777344 L 314.75 311.902344 C 314.769531 312.046875 314.753906 312.183594 314.703125 312.320312 C 314.652344 312.453125 314.570312 312.570312 314.464844 312.664062 C 314.355469 312.761719 314.230469 312.828125 314.089844 312.859375 C 313.953125 312.894531 313.8125 312.894531 313.671875 312.859375 Z M 313.671875 312.859375 " fill-opacity="1" fill-rule="nonzero"/><path fill="#ffffff" d="M 236.867188 303.285156 C 236.867188 303.285156 214.457031 300.765625 205.769531 303.914062 C 197.085938 307.0625 180.328125 318.15625 179.894531 322.613281 C 179.460938 327.066406 185.6875 325.324219 185.6875 325.324219 C 185.6875 325.324219 179.542969 330.109375 182.664062 333.074219 C 185.785156 336.039062 190.511719 333.953125 190.511719 333.953125 C 190.511719 333.953125 186.765625 337.46875 189.789062 339.671875 C 192.816406 341.878906 199.929688 339.195312 199.929688 339.195312 C 199.910156 339.492188 199.921875 339.789062 199.960938 340.082031 C 200 340.375 200.070312 340.664062 200.164062 340.945312 C 200.257812 341.222656 200.382812 341.492188 200.527344 341.75 C 200.675781 342.007812 200.847656 342.246094 201.042969 342.46875 C 201.238281 342.695312 201.453125 342.898438 201.6875 343.078125 C 201.921875 343.257812 202.171875 343.417969 202.4375 343.550781 C 202.703125 343.683594 202.976562 343.789062 203.261719 343.867188 C 203.546875 343.945312 203.839844 343.996094 204.136719 344.019531 C 208.65625 344.632812 214.925781 335.769531 222.679688 338.042969 C 230.4375 340.316406 241.277344 339.304688 245.648438 335.265625 C 250.015625 331.222656 257.15625 331.859375 257.15625 331.859375 C 257.15625 331.859375 262.851562 314.535156 254.574219 305.257812 Z M 236.867188 303.285156 " fill-opacity="1" fill-rule="nonzero"/><path fill="#071952" d="M 204.019531 344.886719 C 203.417969 344.84375 202.839844 344.703125 202.289062 344.464844 C 201.734375 344.226562 201.234375 343.90625 200.789062 343.496094 C 200.34375 343.089844 199.980469 342.617188 199.695312 342.085938 C 199.410156 341.554688 199.222656 340.992188 199.128906 340.394531 C 189.457031 343.429688 186.386719 339.164062 188.308594 335.445312 C 187.191406 335.65625 186.082031 335.609375 184.984375 335.304688 C 183.886719 335 182.910156 334.46875 182.0625 333.707031 C 179.863281 331.621094 181.109375 328.792969 183.128906 326.535156 C 180.128906 326.507812 178.796875 324.875 179.023438 322.523438 C 179.535156 317.253906 197.519531 305.972656 205.472656 303.085938 C 214.246094 299.902344 236.042969 302.308594 236.964844 302.410156 C 256.328125 304.566406 254.910156 304.316406 255.230469 304.671875 C 258.777344 308.648438 260.371094 314.671875 259.847656 322.097656 C 259.601562 325.511719 258.984375 328.855469 257.992188 332.128906 C 257.925781 332.320312 257.808594 332.472656 257.640625 332.582031 C 257.46875 332.695312 257.285156 332.742188 257.082031 332.726562 C 257.015625 332.71875 250.269531 332.179688 246.242188 335.902344 C 241.351562 340.425781 229.984375 341.09375 222.4375 338.875 C 215.085938 336.730469 209.058594 345.570312 204.019531 344.886719 Z M 200.804688 339.261719 C 200.773438 339.75 200.832031 340.226562 200.992188 340.6875 C 201.148438 341.152344 201.386719 341.566406 201.714844 341.933594 C 202.039062 342.296875 202.421875 342.585938 202.863281 342.800781 C 203.300781 343.011719 203.765625 343.128906 204.253906 343.152344 C 208.226562 343.675781 214.824219 334.828125 222.929688 337.203125 C 230.746094 339.496094 241.085938 338.289062 245.054688 334.621094 C 248.867188 331.089844 254.527344 330.902344 256.515625 330.945312 C 257.402344 327.824219 260.820312 313.953125 254.136719 306.085938 C 244.089844 304.964844 216.21875 301.050781 206.066406 304.730469 C 195.765625 308.46875 181.085938 319.394531 180.765625 322.691406 C 180.65625 323.804688 181.085938 324.164062 181.222656 324.28125 C 182.234375 325.125 184.675781 324.691406 185.453125 324.476562 C 185.652344 324.417969 185.851562 324.433594 186.039062 324.519531 C 186.230469 324.601562 186.375 324.738281 186.46875 324.921875 C 186.5625 325.109375 186.585938 325.304688 186.542969 325.507812 C 186.496094 325.710938 186.390625 325.878906 186.226562 326.007812 C 185.265625 326.761719 182.746094 329.121094 182.65625 331 C 182.625 331.578125 182.828125 332.058594 183.269531 332.433594 C 185.921875 334.953125 190.125 333.167969 190.167969 333.148438 C 190.363281 333.0625 190.5625 333.050781 190.765625 333.113281 C 190.96875 333.171875 191.128906 333.289062 191.246094 333.46875 C 191.363281 333.644531 191.410156 333.839844 191.386719 334.050781 C 191.359375 334.261719 191.273438 334.441406 191.117188 334.585938 C 190.640625 335.039062 189.417969 336.46875 189.492188 337.664062 C 189.554688 338.230469 189.824219 338.664062 190.3125 338.960938 C 192.476562 340.539062 197.769531 339.074219 199.628906 338.375 C 199.765625 338.320312 199.910156 338.308594 200.058594 338.328125 C 200.207031 338.347656 200.339844 338.40625 200.460938 338.496094 C 200.578125 338.585938 200.671875 338.699219 200.730469 338.835938 C 200.792969 338.972656 200.816406 339.113281 200.804688 339.261719 Z M 200.804688 339.261719 " fill-opacity="1" fill-rule="nonzero"/><path fill="#071952" d="M 185.691406 326.195312 C 185.492188 326.195312 185.316406 326.136719 185.160156 326.019531 C 185.003906 325.898438 184.898438 325.746094 184.847656 325.558594 C 184.792969 325.367188 184.804688 325.183594 184.875 325 C 184.949219 324.816406 185.066406 324.675781 185.234375 324.574219 L 203.589844 313.4375 C 203.796875 313.316406 204.015625 313.285156 204.246094 313.34375 C 204.480469 313.402344 204.65625 313.53125 204.78125 313.738281 C 204.90625 313.941406 204.941406 314.160156 204.882812 314.394531 C 204.828125 314.628906 204.699219 314.808594 204.496094 314.933594 C 184.929688 326.804688 186.054688 326.195312 185.691406 326.195312 Z M 185.691406 326.195312 " fill-opacity="1" fill-rule="nonzero"/><path fill="#071952" d="M 190.515625 334.828125 C 190.320312 334.828125 190.144531 334.769531 189.988281 334.652344 C 189.832031 334.53125 189.726562 334.378906 189.671875 334.191406 C 189.621094 334 189.628906 333.816406 189.703125 333.632812 C 189.773438 333.449219 189.894531 333.308594 190.0625 333.207031 L 207.808594 322.445312 C 208.015625 322.320312 208.234375 322.285156 208.46875 322.34375 C 208.703125 322.402344 208.886719 322.53125 209.011719 322.738281 C 209.136719 322.945312 209.167969 323.167969 209.113281 323.402344 C 209.054688 323.636719 208.921875 323.816406 208.714844 323.941406 C 189.773438 335.425781 190.875 334.828125 190.515625 334.828125 Z M 190.515625 334.828125 " fill-opacity="1" fill-rule="nonzero"/><path fill="#071952" d="M 199.933594 340.070312 C 199.753906 340.070312 199.589844 340.023438 199.441406 339.921875 C 199.292969 339.820312 199.1875 339.6875 199.121094 339.519531 C 199.054688 339.355469 199.039062 339.183594 199.078125 339.007812 C 199.117188 338.832031 199.203125 338.683594 199.332031 338.5625 C 199.683594 338.230469 208.011719 330.402344 213.855469 328.59375 C 214.089844 328.515625 214.3125 328.53125 214.53125 328.644531 C 214.753906 328.757812 214.898438 328.929688 214.96875 329.164062 C 215.042969 329.398438 215.019531 329.625 214.902344 329.839844 C 214.785156 330.058594 214.609375 330.199219 214.371094 330.265625 C 208.917969 331.953125 200.617188 339.753906 200.535156 339.832031 C 200.367188 339.992188 200.164062 340.070312 199.933594 340.070312 Z M 199.933594 340.070312 " fill-opacity="1" fill-rule="nonzero"/><path fill="#ffffff" d="M 305.472656 360.488281 C 296.253906 357.925781 287.46875 354.300781 279.125 349.617188 C 270.777344 344.933594 263.109375 339.328125 256.117188 332.789062 C 255.933594 332.628906 255.835938 332.421875 255.824219 332.175781 C 255.8125 331.933594 255.890625 331.71875 256.058594 331.539062 C 256.226562 331.359375 256.433594 331.269531 256.679688 331.261719 C 256.925781 331.257812 257.136719 331.339844 257.3125 331.511719 C 264.199219 337.953125 271.757812 343.480469 279.980469 348.09375 C 288.203125 352.707031 296.859375 356.277344 305.945312 358.800781 C 306.175781 358.867188 306.351562 359.003906 306.472656 359.214844 C 306.589844 359.425781 306.617188 359.644531 306.550781 359.878906 C 306.488281 360.109375 306.351562 360.285156 306.140625 360.40625 C 305.929688 360.523438 305.707031 360.550781 305.472656 360.488281 Z M 305.472656 360.488281 " fill-opacity="1" fill-rule="nonzero"/><path fill="#ffffff" d="M 328.980469 337.652344 C 328.796875 337.652344 328.632812 337.601562 328.480469 337.496094 C 328.332031 337.390625 328.222656 337.253906 328.160156 337.078125 C 322.191406 320.769531 313.375 312.738281 313.289062 312.660156 C 313.109375 312.5 313.011719 312.296875 313 312.058594 C 312.984375 311.816406 313.058594 311.605469 313.21875 311.425781 C 313.382812 311.246094 313.582031 311.148438 313.824219 311.136719 C 314.0625 311.121094 314.273438 311.195312 314.453125 311.355469 C 314.828125 311.691406 323.671875 319.726562 329.800781 336.476562 C 329.847656 336.613281 329.863281 336.75 329.847656 336.890625 C 329.828125 337.03125 329.777344 337.160156 329.695312 337.277344 C 329.617188 337.394531 329.511719 337.488281 329.386719 337.554688 C 329.257812 337.621094 329.125 337.652344 328.980469 337.652344 Z M 328.980469 337.652344 " fill-opacity="1" fill-rule="nonzero"/><path fill="#071952" d="M 206.648438 237.757812 C 206.515625 237.757812 206.386719 237.726562 206.269531 237.671875 C 206.148438 237.613281 206.046875 237.53125 205.964844 237.429688 C 205.878906 237.324219 205.824219 237.207031 205.792969 237.078125 C 205.765625 236.949219 205.765625 236.820312 205.792969 236.691406 C 209.496094 220.175781 226.378906 213.976562 226.292969 206.515625 C 226.269531 204.523438 224.996094 202.40625 222.398438 200.042969 C 208.226562 187.148438 205.878906 176.535156 205.789062 176.089844 C 205.746094 175.855469 205.789062 175.640625 205.921875 175.441406 C 206.054688 175.246094 206.238281 175.121094 206.46875 175.074219 C 206.703125 175.023438 206.917969 175.0625 207.117188 175.191406 C 207.320312 175.320312 207.445312 175.5 207.5 175.730469 C 207.523438 175.835938 209.867188 186.273438 223.578125 198.75 C 226.550781 201.460938 228.011719 203.992188 228.039062 206.5 C 228.140625 215.230469 211.121094 220.917969 207.496094 237.074219 C 207.449219 237.273438 207.347656 237.4375 207.191406 237.5625 C 207.03125 237.691406 206.851562 237.753906 206.648438 237.757812 Z M 206.648438 237.757812 " fill-opacity="1" fill-rule="nonzero"/><path fill="#071952" d="M 245.082031 267.425781 C 244.71875 267.425781 244.457031 267.261719 244.296875 266.9375 C 244.136719 266.609375 244.167969 266.304688 244.390625 266.015625 C 251.710938 256.527344 248.082031 244.878906 247.664062 220.835938 C 247.242188 196.277344 270.125 192.230469 270.355469 192.195312 C 270.59375 192.15625 270.808594 192.207031 271.003906 192.347656 C 271.203125 192.488281 271.320312 192.679688 271.359375 192.917969 C 271.398438 193.15625 271.347656 193.371094 271.207031 193.566406 C 271.066406 193.765625 270.878906 193.882812 270.640625 193.921875 C 269.753906 194.066406 249.015625 197.777344 249.414062 220.808594 C 249.835938 245.195312 253.59375 256.953125 245.777344 267.085938 C 245.601562 267.3125 245.371094 267.425781 245.082031 267.425781 Z M 245.082031 267.425781 " fill-opacity="1" fill-rule="nonzero"/><path fill="#ffffff" d="M 232.417969 50.941406 C 217.847656 50.941406 215.113281 34.675781 215.085938 34.503906 C 215.054688 34.265625 215.113281 34.054688 215.253906 33.863281 C 215.394531 33.675781 215.582031 33.5625 215.816406 33.523438 C 216.050781 33.488281 216.265625 33.539062 216.460938 33.675781 C 216.652344 33.8125 216.773438 33.996094 216.816406 34.230469 C 217.394531 37.203125 218.507812 39.960938 220.152344 42.503906 C 223.597656 47.675781 228.601562 49.871094 235.023438 49.015625 C 235.265625 48.984375 235.480469 49.039062 235.671875 49.1875 C 235.863281 49.335938 235.976562 49.527344 236.007812 49.765625 C 236.039062 50.007812 235.980469 50.222656 235.835938 50.414062 C 235.6875 50.605469 235.496094 50.71875 235.253906 50.75 C 234.3125 50.875 233.367188 50.941406 232.417969 50.941406 Z M 232.417969 50.941406 " fill-opacity="1" fill-rule="nonzero"/><path fill="#ffffff" d="M 251.910156 48.964844 C 246.808594 45.910156 242.121094 42.3125 237.851562 38.175781 C 237.765625 38.09375 237.695312 38 237.648438 37.890625 C 237.597656 37.78125 237.574219 37.664062 237.570312 37.546875 C 237.570312 37.425781 237.589844 37.3125 237.636719 37.199219 C 237.683594 37.089844 237.746094 36.992188 237.832031 36.910156 C 237.917969 36.824219 238.015625 36.761719 238.128906 36.71875 C 238.238281 36.675781 238.355469 36.652344 238.476562 36.65625 C 238.59375 36.660156 238.707031 36.6875 238.816406 36.738281 C 238.925781 36.789062 239.019531 36.859375 239.097656 36.949219 C 239.320312 37.175781 261.554688 59.425781 281.492188 53.132812 C 281.71875 53.070312 281.9375 53.09375 282.144531 53.207031 C 282.355469 53.320312 282.492188 53.488281 282.566406 53.714844 C 282.636719 53.9375 282.617188 54.15625 282.511719 54.371094 C 282.40625 54.582031 282.242188 54.726562 282.015625 54.800781 C 271.957031 57.976562 261.039062 54.417969 251.910156 48.964844 Z M 251.910156 48.964844 " fill-opacity="1" fill-rule="nonzero"/><path fill="#ffffff" d="M 207.5 233.269531 L 207.800781 233.332031 C 208.160156 233.410156 208.488281 233.550781 208.789062 233.757812 C 209.089844 233.964844 209.339844 234.222656 209.539062 234.53125 C 209.734375 234.835938 209.867188 235.167969 209.933594 235.527344 C 210 235.886719 209.996094 236.246094 209.917969 236.605469 L 208.660156 242.492188 C 208.582031 242.851562 208.441406 243.179688 208.234375 243.480469 C 208.027344 243.78125 207.769531 244.03125 207.460938 244.230469 C 207.15625 244.429688 206.820312 244.5625 206.460938 244.628906 C 206.101562 244.691406 205.746094 244.6875 205.386719 244.613281 L 205.085938 244.546875 C 204.730469 244.472656 204.402344 244.328125 204.101562 244.121094 C 203.800781 243.914062 203.550781 243.65625 203.351562 243.351562 C 203.152344 243.042969 203.019531 242.710938 202.953125 242.351562 C 202.886719 241.992188 202.894531 241.632812 202.96875 241.277344 L 204.230469 235.386719 C 204.304688 235.027344 204.449219 234.699219 204.65625 234.398438 C 204.863281 234.097656 205.121094 233.847656 205.425781 233.648438 C 205.734375 233.449219 206.066406 233.320312 206.425781 233.253906 C 206.785156 233.1875 207.144531 233.191406 207.5 233.269531 Z M 207.5 233.269531 " fill-opacity="1" fill-rule="nonzero"/><path fill="#ffffff" d="M 247.445312 260.621094 L 247.722656 260.753906 C 248.050781 260.914062 248.339844 261.128906 248.582031 261.398438 C 248.828125 261.671875 249.007812 261.980469 249.128906 262.324219 C 249.25 262.671875 249.300781 263.023438 249.28125 263.390625 C 249.261719 263.753906 249.171875 264.101562 249.015625 264.429688 L 246.40625 269.859375 C 246.246094 270.191406 246.03125 270.476562 245.761719 270.71875 C 245.488281 270.964844 245.179688 271.148438 244.835938 271.269531 C 244.488281 271.390625 244.136719 271.4375 243.769531 271.417969 C 243.40625 271.398438 243.058594 271.308594 242.730469 271.152344 L 242.453125 271.019531 C 242.121094 270.859375 241.835938 270.644531 241.59375 270.375 C 241.347656 270.101562 241.167969 269.792969 241.046875 269.449219 C 240.925781 269.101562 240.875 268.746094 240.894531 268.382812 C 240.914062 268.019531 241.003906 267.671875 241.160156 267.339844 L 243.769531 261.914062 C 243.925781 261.582031 244.140625 261.296875 244.414062 261.050781 C 244.6875 260.808594 244.996094 260.625 245.339844 260.503906 C 245.683594 260.382812 246.039062 260.332031 246.40625 260.355469 C 246.769531 260.375 247.117188 260.464844 247.445312 260.621094 Z M 247.445312 260.621094 " fill-opacity="1" fill-rule="nonzero"/><path fill="#071952" d="M 226.597656 147.121094 C 226.574219 146.878906 226.640625 146.664062 226.792969 146.476562 C 226.949219 146.289062 227.144531 146.1875 227.386719 146.164062 C 227.507812 146.152344 239.5625 144.898438 250.28125 138.546875 C 250.488281 138.425781 250.710938 138.394531 250.941406 138.453125 C 251.175781 138.511719 251.355469 138.648438 251.476562 138.855469 C 251.601562 139.0625 251.632812 139.28125 251.574219 139.515625 C 251.515625 139.75 251.378906 139.929688 251.171875 140.050781 C 243.820312 144.238281 235.949219 146.855469 227.554688 147.902344 C 227.3125 147.925781 227.101562 147.863281 226.914062 147.707031 C 226.726562 147.554688 226.625 147.359375 226.597656 147.121094 Z M 226.597656 147.121094 " fill-opacity="1" fill-rule="nonzero"/><path fill="#ffffff" d="M 105.855469 291.691406 C 105.855469 292.355469 105.824219 293.019531 105.757812 293.683594 C 105.695312 294.34375 105.597656 295.003906 105.464844 295.65625 C 105.335938 296.308594 105.175781 296.953125 104.980469 297.589844 C 104.789062 298.226562 104.566406 298.851562 104.308594 299.46875 C 104.054688 300.082031 103.769531 300.683594 103.457031 301.269531 C 103.144531 301.855469 102.800781 302.425781 102.433594 302.980469 C 102.0625 303.53125 101.667969 304.066406 101.246094 304.582031 C 100.824219 305.09375 100.375 305.589844 99.90625 306.058594 C 99.433594 306.527344 98.941406 306.976562 98.429688 307.398438 C 97.914062 307.820312 97.378906 308.214844 96.828125 308.585938 C 96.273438 308.957031 95.703125 309.296875 95.117188 309.609375 C 94.53125 309.925781 93.929688 310.207031 93.3125 310.464844 C 92.699219 310.71875 92.074219 310.941406 91.4375 311.132812 C 90.800781 311.328125 90.15625 311.488281 89.503906 311.621094 C 88.851562 311.75 88.191406 311.847656 87.53125 311.910156 C 86.867188 311.976562 86.203125 312.007812 85.539062 312.007812 C 84.875 312.007812 84.210938 311.976562 83.546875 311.910156 C 82.886719 311.847656 82.226562 311.75 81.574219 311.621094 C 80.921875 311.488281 80.277344 311.328125 79.640625 311.132812 C 79.003906 310.941406 78.378906 310.71875 77.765625 310.464844 C 77.148438 310.207031 76.546875 309.925781 75.960938 309.609375 C 75.375 309.296875 74.804688 308.957031 74.25 308.585938 C 73.699219 308.214844 73.164062 307.820312 72.648438 307.398438 C 72.136719 306.976562 71.644531 306.527344 71.171875 306.058594 C 70.703125 305.589844 70.253906 305.09375 69.832031 304.582031 C 69.410156 304.066406 69.015625 303.53125 68.644531 302.980469 C 68.277344 302.425781 67.933594 301.855469 67.621094 301.269531 C 67.308594 300.683594 67.023438 300.082031 66.769531 299.46875 C 66.511719 298.851562 66.289062 298.226562 66.097656 297.589844 C 65.902344 296.953125 65.742188 296.308594 65.613281 295.65625 C 65.480469 295.003906 65.382812 294.347656 65.320312 293.683594 C 65.253906 293.019531 65.222656 292.355469 65.222656 291.691406 C 65.222656 291.027344 65.253906 290.363281 65.320312 289.699219 C 65.382812 289.039062 65.480469 288.378906 65.613281 287.726562 C 65.742188 287.074219 65.902344 286.429688 66.097656 285.792969 C 66.289062 285.15625 66.511719 284.53125 66.769531 283.917969 C 67.023438 283.300781 67.308594 282.703125 67.621094 282.113281 C 67.933594 281.527344 68.277344 280.957031 68.644531 280.402344 C 69.015625 279.851562 69.410156 279.316406 69.832031 278.800781 C 70.253906 278.289062 70.703125 277.796875 71.171875 277.324219 C 71.644531 276.855469 72.136719 276.410156 72.648438 275.984375 C 73.164062 275.5625 73.699219 275.167969 74.25 274.796875 C 74.804688 274.429688 75.375 274.085938 75.960938 273.773438 C 76.546875 273.460938 77.148438 273.175781 77.765625 272.921875 C 78.378906 272.667969 79.003906 272.441406 79.640625 272.25 C 80.277344 272.054688 80.921875 271.894531 81.574219 271.765625 C 82.226562 271.636719 82.886719 271.539062 83.546875 271.472656 C 84.210938 271.40625 84.875 271.375 85.539062 271.375 C 86.203125 271.375 86.867188 271.40625 87.53125 271.472656 C 88.191406 271.539062 88.851562 271.636719 89.503906 271.765625 C 90.15625 271.894531 90.800781 272.054688 91.4375 272.25 C 92.074219 272.441406 92.699219 272.667969 93.3125 272.921875 C 93.929688 273.175781 94.53125 273.460938 95.117188 273.773438 C 95.703125 274.085938 96.273438 274.429688 96.828125 274.796875 C 97.378906 275.167969 97.914062 275.5625 98.429688 275.984375 C 98.941406 276.410156 99.433594 276.855469 99.90625 277.324219 C 100.375 277.796875 100.824219 278.289062 101.246094 278.800781 C 101.667969 279.316406 102.0625 279.851562 102.433594 280.402344 C 102.800781 280.957031 103.144531 281.527344 103.457031 282.113281 C 103.769531 282.703125 104.054688 283.300781 104.308594 283.917969 C 104.566406 284.53125 104.789062 285.15625 104.980469 285.792969 C 105.175781 286.429688 105.335938 287.074219 105.464844 287.726562 C 105.597656 288.378906 105.695312 289.039062 105.757812 289.699219 C 105.824219 290.363281 105.855469 291.027344 105.855469 291.691406 Z M 105.855469 291.691406 " fill-opacity="1" fill-rule="nonzero"/><path fill="#ffffff" d="M 104.050781 180.972656 C 104.050781 181.804688 104.011719 182.636719 103.929688 183.46875 C 103.847656 184.296875 103.726562 185.121094 103.5625 185.941406 C 103.398438 186.757812 103.199219 187.566406 102.957031 188.363281 C 102.714844 189.160156 102.433594 189.945312 102.113281 190.714844 C 101.792969 191.484375 101.4375 192.238281 101.046875 192.972656 C 100.652344 193.710938 100.222656 194.425781 99.761719 195.117188 C 99.296875 195.8125 98.800781 196.480469 98.273438 197.125 C 97.742188 197.769531 97.183594 198.386719 96.59375 198.976562 C 96.003906 199.566406 95.386719 200.125 94.742188 200.652344 C 94.097656 201.183594 93.429688 201.679688 92.738281 202.140625 C 92.042969 202.605469 91.328125 203.03125 90.59375 203.425781 C 89.859375 203.820312 89.105469 204.175781 88.335938 204.496094 C 87.566406 204.8125 86.78125 205.09375 85.984375 205.335938 C 85.183594 205.578125 84.375 205.78125 83.558594 205.941406 C 82.742188 206.105469 81.917969 206.226562 81.085938 206.308594 C 80.257812 206.390625 79.425781 206.433594 78.59375 206.433594 C 77.757812 206.433594 76.925781 206.390625 76.097656 206.308594 C 75.265625 206.226562 74.441406 206.105469 73.625 205.941406 C 72.808594 205.78125 72 205.578125 71.203125 205.335938 C 70.402344 205.09375 69.621094 204.8125 68.847656 204.496094 C 68.078125 204.175781 67.324219 203.820312 66.589844 203.425781 C 65.855469 203.03125 65.140625 202.605469 64.449219 202.140625 C 63.753906 201.679688 63.085938 201.183594 62.441406 200.652344 C 61.796875 200.125 61.179688 199.566406 60.589844 198.976562 C 60 198.386719 59.441406 197.769531 58.910156 197.125 C 58.382812 196.480469 57.886719 195.8125 57.421875 195.117188 C 56.960938 194.425781 56.53125 193.710938 56.136719 192.972656 C 55.746094 192.238281 55.390625 191.484375 55.070312 190.714844 C 54.75 189.945312 54.472656 189.160156 54.230469 188.363281 C 53.988281 187.566406 53.785156 186.757812 53.621094 185.941406 C 53.457031 185.121094 53.335938 184.296875 53.253906 183.46875 C 53.171875 182.636719 53.132812 181.804688 53.132812 180.972656 C 53.132812 180.140625 53.171875 179.308594 53.253906 178.476562 C 53.335938 177.648438 53.457031 176.824219 53.621094 176.003906 C 53.785156 175.1875 53.988281 174.378906 54.230469 173.582031 C 54.472656 172.785156 54.75 172 55.070312 171.230469 C 55.390625 170.460938 55.746094 169.707031 56.136719 168.972656 C 56.53125 168.234375 56.960938 167.519531 57.421875 166.828125 C 57.886719 166.136719 58.382812 165.464844 58.910156 164.820312 C 59.441406 164.175781 60 163.558594 60.589844 162.96875 C 61.179688 162.378906 61.796875 161.820312 62.441406 161.292969 C 63.085938 160.761719 63.753906 160.265625 64.449219 159.804688 C 65.140625 159.339844 65.855469 158.914062 66.589844 158.519531 C 67.324219 158.125 68.078125 157.769531 68.847656 157.449219 C 69.621094 157.132812 70.402344 156.851562 71.203125 156.609375 C 72 156.367188 72.808594 156.164062 73.625 156.003906 C 74.441406 155.839844 75.265625 155.71875 76.097656 155.636719 C 76.925781 155.554688 77.757812 155.511719 78.59375 155.511719 C 79.425781 155.511719 80.257812 155.554688 81.085938 155.636719 C 81.917969 155.71875 82.742188 155.839844 83.558594 156.003906 C 84.375 156.164062 85.183594 156.367188 85.984375 156.609375 C 86.78125 156.851562 87.566406 157.132812 88.335938 157.449219 C 89.105469 157.769531 89.859375 158.125 90.59375 158.519531 C 91.328125 158.914062 92.042969 159.339844 92.738281 159.804688 C 93.429688 160.265625 94.097656 160.761719 94.742188 161.292969 C 95.386719 161.820312 96.003906 162.378906 96.59375 162.96875 C 97.183594 163.558594 97.742188 164.175781 98.273438 164.820312 C 98.800781 165.464844 99.296875 166.136719 99.761719 166.828125 C 100.222656 167.519531 100.652344 168.234375 101.046875 168.972656 C 101.4375 169.707031 101.792969 170.460938 102.113281 171.230469 C 102.433594 172 102.714844 172.785156 102.957031 173.582031 C 103.199219 174.378906 103.398438 175.1875 103.5625 176.003906 C 103.726562 176.824219 103.847656 177.648438 103.929688 178.476562 C 104.011719 179.308594 104.050781 180.140625 104.050781 180.972656 Z M 104.050781 180.972656 " fill-opacity="1" fill-rule="nonzero"/><path fill="#071952" d="M 55.480469 197.683594 C 54.933594 196.925781 54.425781 196.144531 53.953125 195.339844 C 53.484375 194.53125 53.054688 193.703125 52.664062 192.855469 C 52.277344 192.003906 51.929688 191.140625 51.625 190.257812 C 51.320312 189.371094 51.0625 188.476562 50.847656 187.570312 C 50.628906 186.660156 50.460938 185.742188 50.332031 184.816406 C 50.207031 183.890625 50.128906 182.960938 50.09375 182.027344 C 50.058594 181.09375 50.070312 180.164062 50.128906 179.230469 C 50.183594 178.296875 50.285156 177.371094 50.433594 176.449219 C 50.582031 175.527344 50.777344 174.613281 51.015625 173.710938 C 51.253906 172.808594 51.535156 171.917969 51.859375 171.042969 C 52.183594 170.167969 52.550781 169.308594 52.960938 168.46875 C 53.371094 167.628906 53.820312 166.8125 54.3125 166.019531 C 54.800781 165.222656 55.328125 164.453125 55.894531 163.710938 C 56.457031 162.964844 57.058594 162.253906 57.695312 161.570312 C 58.332031 160.882812 59 160.234375 59.699219 159.613281 C 60.398438 158.996094 61.125 158.410156 61.882812 157.863281 C 62.640625 157.316406 63.421875 156.808594 64.226562 156.339844 C 65.035156 155.867188 65.863281 155.4375 66.710938 155.046875 C 67.5625 154.660156 68.425781 154.3125 69.308594 154.007812 C 70.195312 153.703125 71.089844 153.445312 72 153.230469 C 72.90625 153.011719 73.824219 152.84375 74.75 152.714844 C 75.675781 152.589844 76.605469 152.511719 77.539062 152.476562 C 78.472656 152.441406 79.402344 152.453125 80.335938 152.507812 C 81.269531 152.566406 82.195312 152.667969 83.117188 152.816406 C 84.039062 152.964844 84.953125 153.160156 85.855469 153.398438 C 86.757812 153.632812 87.648438 153.917969 88.523438 154.242188 C 89.398438 154.566406 90.257812 154.933594 91.097656 155.34375 C 91.9375 155.753906 92.753906 156.203125 93.546875 156.691406 C 94.34375 157.183594 95.113281 157.710938 95.855469 158.273438 C 96.601562 158.839844 97.3125 159.441406 98 160.078125 C 98.683594 160.710938 99.335938 161.378906 99.953125 162.078125 C 100.574219 162.777344 101.15625 163.507812 101.703125 164.265625 C 102.25 165.019531 102.757812 165.804688 103.230469 166.609375 C 103.699219 167.417969 104.128906 168.246094 104.519531 169.09375 C 104.90625 169.941406 105.253906 170.808594 105.558594 171.691406 C 105.863281 172.574219 106.121094 173.472656 106.339844 174.378906 C 106.554688 175.289062 106.726562 176.207031 106.851562 177.132812 C 106.976562 178.054688 107.058594 178.984375 107.09375 179.917969 C 107.125 180.851562 107.117188 181.785156 107.058594 182.71875 C 107 183.648438 106.898438 184.578125 106.75 185.5 C 106.601562 186.421875 106.410156 187.335938 106.171875 188.238281 C 105.933594 189.140625 105.652344 190.03125 105.328125 190.90625 C 105 191.78125 104.632812 192.640625 104.226562 193.476562 C 103.816406 194.316406 103.367188 195.136719 102.875 195.929688 C 102.386719 196.726562 101.859375 197.496094 101.292969 198.238281 C 100.726562 198.980469 100.128906 199.695312 99.492188 200.378906 C 98.855469 201.066406 98.1875 201.714844 97.488281 202.335938 C 96.789062 202.953125 96.0625 203.539062 95.304688 204.085938 C 94.546875 204.632812 93.765625 205.140625 92.960938 205.613281 C 92.152344 206.082031 91.324219 206.515625 90.476562 206.902344 C 89.625 207.292969 88.761719 207.640625 87.875 207.945312 C 86.992188 208.25 86.097656 208.507812 85.1875 208.726562 C 84.28125 208.941406 83.363281 209.113281 82.4375 209.238281 C 81.511719 209.367188 80.582031 209.445312 79.648438 209.480469 C 78.714844 209.515625 77.78125 209.503906 76.847656 209.445312 C 75.917969 209.390625 74.988281 209.289062 74.066406 209.140625 C 73.144531 208.992188 72.230469 208.796875 71.328125 208.558594 C 70.425781 208.320312 69.535156 208.039062 68.660156 207.714844 C 67.785156 207.390625 66.925781 207.019531 66.085938 206.613281 C 65.246094 206.203125 64.429688 205.75 63.632812 205.261719 C 62.839844 204.769531 62.070312 204.242188 61.324219 203.675781 C 60.582031 203.113281 59.867188 202.511719 59.183594 201.875 C 58.5 201.238281 57.847656 200.570312 57.230469 199.871094 C 56.609375 199.171875 56.027344 198.441406 55.480469 197.683594 Z M 78.542969 158.570312 C 77.835938 158.574219 77.128906 158.609375 76.425781 158.675781 C 75.71875 158.746094 75.019531 158.847656 74.324219 158.980469 C 73.628906 159.117188 72.941406 159.285156 72.261719 159.484375 C 71.582031 159.683594 70.914062 159.917969 70.253906 160.179688 C 69.597656 160.445312 68.953125 160.738281 68.324219 161.0625 C 67.695312 161.386719 67.082031 161.742188 66.484375 162.125 C 65.890625 162.507812 65.3125 162.917969 64.753906 163.355469 C 64.199219 163.792969 63.664062 164.253906 63.148438 164.742188 C 62.636719 165.230469 62.148438 165.742188 61.683594 166.277344 C 61.21875 166.8125 60.78125 167.367188 60.367188 167.945312 C 59.957031 168.519531 59.570312 169.113281 59.214844 169.726562 C 58.859375 170.339844 58.535156 170.96875 58.238281 171.613281 C 57.941406 172.257812 57.675781 172.914062 57.445312 173.582031 C 57.210938 174.25 57.007812 174.929688 56.839844 175.617188 C 56.667969 176.304688 56.535156 177 56.429688 177.699219 C 56.328125 178.402344 56.257812 179.105469 56.21875 179.8125 C 56.183594 180.519531 56.179688 181.226562 56.210938 181.933594 C 56.242188 182.644531 56.304688 183.347656 56.402344 184.050781 C 56.5 184.75 56.628906 185.445312 56.792969 186.136719 C 56.957031 186.824219 57.152344 187.503906 57.378906 188.175781 C 57.609375 188.847656 57.867188 189.507812 58.15625 190.152344 C 58.449219 190.796875 58.769531 191.429688 59.117188 192.046875 C 59.46875 192.660156 59.847656 193.257812 60.253906 193.839844 C 60.660156 194.417969 61.09375 194.976562 61.554688 195.515625 C 62.015625 196.054688 62.5 196.570312 63.007812 197.066406 C 63.515625 197.558594 64.046875 198.023438 64.601562 198.46875 C 65.15625 198.910156 65.726562 199.324219 66.320312 199.714844 C 66.914062 200.101562 67.523438 200.460938 68.148438 200.789062 C 68.777344 201.121094 69.417969 201.421875 70.074219 201.691406 C 70.726562 201.960938 71.394531 202.195312 72.074219 202.402344 C 72.75 202.609375 73.4375 202.78125 74.128906 202.925781 C 74.824219 203.066406 75.523438 203.171875 76.230469 203.246094 C 76.933594 203.320312 77.640625 203.363281 78.347656 203.371094 C 79.054688 203.378906 79.765625 203.351562 80.46875 203.292969 C 81.175781 203.234375 81.878906 203.140625 82.574219 203.015625 C 83.273438 202.890625 83.960938 202.730469 84.644531 202.539062 C 85.324219 202.347656 85.996094 202.125 86.65625 201.867188 C 87.320312 201.613281 87.964844 201.328125 88.601562 201.011719 C 89.234375 200.695312 89.851562 200.347656 90.453125 199.972656 C 91.054688 199.597656 91.636719 199.195312 92.199219 198.765625 C 92.761719 198.335938 93.300781 197.878906 93.820312 197.398438 C 94.339844 196.914062 94.835938 196.410156 95.308594 195.882812 C 95.78125 195.351562 96.226562 194.804688 96.644531 194.230469 C 97.0625 193.660156 97.453125 193.070312 97.820312 192.464844 C 98.183594 191.855469 98.515625 191.230469 98.820312 190.589844 C 99.125 189.953125 99.398438 189.296875 99.640625 188.632812 C 99.882812 187.96875 100.09375 187.292969 100.269531 186.605469 C 100.449219 185.921875 100.59375 185.226562 100.707031 184.527344 C 100.835938 183.730469 100.917969 182.925781 100.960938 182.117188 C 101.003906 181.308594 101 180.5 100.953125 179.695312 C 100.90625 178.886719 100.816406 178.082031 100.683594 177.285156 C 100.550781 176.488281 100.375 175.699219 100.15625 174.917969 C 99.9375 174.140625 99.679688 173.375 99.375 172.625 C 99.074219 171.875 98.734375 171.140625 98.351562 170.425781 C 97.972656 169.714844 97.554688 169.023438 97.097656 168.351562 C 96.640625 167.683594 96.152344 167.042969 95.625 166.425781 C 95.101562 165.8125 94.542969 165.226562 93.953125 164.671875 C 93.363281 164.117188 92.746094 163.59375 92.101562 163.105469 C 91.457031 162.617188 90.789062 162.167969 90.09375 161.75 C 89.398438 161.335938 88.683594 160.960938 87.949219 160.621094 C 87.214844 160.28125 86.460938 159.984375 85.695312 159.730469 C 84.929688 159.472656 84.148438 159.257812 83.359375 159.085938 C 82.566406 158.914062 81.769531 158.785156 80.964844 158.699219 C 80.160156 158.613281 79.355469 158.570312 78.542969 158.570312 Z M 78.542969 158.570312 " fill-opacity="1" fill-rule="nonzero"/><path fill="#071952" d="M 95.574219 198.003906 L 100.007812 192.546875 C 100.203125 192.308594 100.4375 192.117188 100.707031 191.96875 C 100.980469 191.820312 101.269531 191.730469 101.578125 191.699219 C 101.886719 191.667969 102.1875 191.695312 102.484375 191.785156 C 102.78125 191.875 103.050781 192.015625 103.289062 192.210938 L 135.144531 218.117188 C 135.375 218.304688 135.585938 218.511719 135.773438 218.742188 C 135.960938 218.96875 136.128906 219.214844 136.269531 219.472656 C 136.410156 219.734375 136.523438 220.007812 136.609375 220.289062 C 136.699219 220.574219 136.757812 220.863281 136.789062 221.15625 C 136.816406 221.453125 136.820312 221.746094 136.792969 222.042969 C 136.761719 222.335938 136.707031 222.625 136.621094 222.910156 C 136.539062 223.195312 136.425781 223.46875 136.289062 223.730469 C 136.148438 223.992188 135.984375 224.238281 135.800781 224.46875 L 134.527344 226.03125 C 134.3125 226.296875 134.074219 226.535156 133.8125 226.75 C 133.550781 226.96875 133.273438 227.15625 132.976562 227.316406 C 132.675781 227.480469 132.367188 227.609375 132.042969 227.707031 C 131.71875 227.808594 131.386719 227.875 131.050781 227.910156 C 130.714844 227.945312 130.375 227.945312 130.039062 227.914062 C 129.699219 227.882812 129.371094 227.820312 129.046875 227.722656 C 128.71875 227.625 128.410156 227.496094 128.109375 227.339844 C 127.808594 227.179688 127.527344 226.996094 127.265625 226.78125 L 95.910156 201.28125 C 95.667969 201.085938 95.476562 200.851562 95.328125 200.578125 C 95.183594 200.308594 95.09375 200.019531 95.0625 199.710938 C 95.03125 199.402344 95.058594 199.101562 95.148438 198.804688 C 95.234375 198.511719 95.378906 198.242188 95.574219 198.003906 Z M 95.574219 198.003906 " fill-opacity="1" fill-rule="nonzero"/><path fill="#071952" d="M 223.84375 127.246094 C 220.546875 127.246094 217.863281 124.105469 217.863281 120.246094 C 217.863281 116.386719 220.546875 113.246094 223.84375 113.246094 C 227.140625 113.246094 229.820312 116.386719 229.820312 120.246094 C 229.820312 124.105469 227.144531 127.246094 223.84375 127.246094 Z M 223.84375 114.996094 C 221.511719 114.996094 219.613281 117.351562 219.613281 120.246094 C 219.613281 123.140625 221.511719 125.496094 223.84375 125.496094 C 226.175781 125.496094 228.070312 123.140625 228.070312 120.246094 C 228.070312 117.351562 226.179688 114.996094 223.84375 114.996094 Z M 223.84375 114.996094 " fill-opacity="1" fill-rule="nonzero"/></svg>