<svg xmlns="http://www.w3.org/2000/svg" xmlns:xlink="http://www.w3.org/1999/xlink" width="500" zoomAndPan="magnify" viewBox="0 0 375 374.999991" height="500" preserveAspectRatio="xMidYMid meet" version="1.0"><defs><clipPath id="de2d643d2a"><path d="M 112 316 L 156 316 L 156 358.84375 L 112 358.84375 Z M 112 316 " clip-rule="nonzero"/></clipPath><clipPath id="5a94778ca2"><path d="M 254 316 L 298 316 L 298 358.84375 L 254 358.84375 Z M 254 316 " clip-rule="nonzero"/></clipPath></defs><path fill="#ffffff" d="M 207.605469 87.976562 L 95.773438 87.976562 L 75.667969 31.941406 C 74.238281 27.777344 70.195312 25.398438 65.792969 25.398438 L 23.554688 25.398438 C 0 25.398438 0.832031 57.757812 22.84375 57.757812 L 51.277344 57.757812 L 103.148438 216.707031 C 82.328125 216.945312 68.050781 228.484375 61.628906 243.238281 C 59.128906 248.945312 57.820312 255.253906 57.9375 261.4375 C 57.9375 267.746094 59.25 274.050781 61.867188 279.878906 C 68.648438 294.75 83.757812 306.292969 107.90625 306.292969 L 314.207031 306.292969 C 322.175781 306.292969 328.71875 299.867188 328.71875 291.777344 C 328.71875 283.804688 322.175781 277.261719 314.207031 277.261719 L 107.90625 277.261719 C 96.960938 277.261719 90.65625 273.097656 88.160156 267.863281 C 87.324219 265.839844 86.851562 263.582031 86.851562 261.4375 C 86.851562 259.179688 87.324219 256.917969 88.160156 254.894531 C 90.417969 249.78125 95.652344 245.855469 103.503906 245.855469 L 311.707031 245.855469 C 321.699219 245.855469 327.53125 241.09375 330.980469 231.101562 L 349.0625 166.378906 C 334.3125 177.324219 315.988281 183.75 296.242188 183.75 C 247.105469 183.75 207.367188 144.015625 207.367188 94.878906 C 207.367188 92.5 207.367188 90.238281 207.605469 87.976562 Z M 207.605469 87.976562 " fill-opacity="1" fill-rule="evenodd"/><g clip-path="url(#de2d643d2a)"><path fill="#ffffff" d="M 133.84375 316.285156 C 145.621094 316.285156 155.140625 325.804688 155.140625 337.582031 C 155.140625 349.359375 145.621094 358.878906 133.84375 358.878906 C 122.066406 358.878906 112.546875 349.359375 112.546875 337.582031 C 112.546875 325.804688 122.066406 316.285156 133.84375 316.285156 Z M 133.84375 316.285156 " fill-opacity="1" fill-rule="evenodd"/></g><g clip-path="url(#5a94778ca2)"><path fill="#ffffff" d="M 276.015625 316.285156 C 287.792969 316.285156 297.429688 325.804688 297.429688 337.582031 C 297.429688 349.359375 287.792969 358.878906 276.015625 358.878906 C 264.355469 358.878906 254.71875 349.359375 254.71875 337.582031 C 254.71875 325.804688 264.355469 316.285156 276.015625 316.285156 Z M 276.015625 316.285156 " fill-opacity="1" fill-rule="evenodd"/></g><path fill="#ffffff" d="M 245.558594 44.195312 C 273.515625 16.117188 318.964844 16.117188 346.921875 44.195312 C 375 72.15625 375 117.601562 346.921875 145.558594 C 318.964844 173.636719 273.515625 173.636719 245.558594 145.558594 C 217.601562 117.601562 217.601562 72.15625 245.558594 44.195312 Z M 267.804688 130.214844 L 246.273438 108.679688 C 244.367188 106.65625 244.25 103.5625 246.152344 101.660156 L 253.765625 94.046875 C 255.671875 92.140625 258.882812 92.261719 260.785156 94.164062 L 278.15625 111.652344 C 280.417969 113.792969 284.105469 113.792969 286.367188 111.652344 L 329.550781 68.347656 C 331.574219 66.324219 334.789062 66.324219 336.570312 68.109375 L 344.304688 75.84375 C 346.207031 77.746094 346.089844 80.839844 344.066406 82.863281 L 290.410156 136.519531 C 285.890625 141.039062 278.632812 141.039062 274.113281 136.519531 Z M 267.804688 130.214844 " fill-opacity="1" fill-rule="evenodd"/></svg>