<svg xmlns="http://www.w3.org/2000/svg" xmlns:xlink="http://www.w3.org/1999/xlink" width="500" zoomAndPan="magnify" viewBox="0 0 375 374.999991" height="500" preserveAspectRatio="xMidYMid meet" version="1.0"><defs><clipPath id="f44e72e4ea"><path d="M 16.171875 127 L 325 127 L 325 375 L 16.171875 375 Z M 16.171875 127 " clip-rule="nonzero"/></clipPath></defs><g clip-path="url(#f44e72e4ea)"><path fill="#071952" d="M 16.324219 127.464844 L 16.324219 158.292969 L 47.15625 158.292969 L 77.984375 374.089844 L 262.953125 374.089844 L 293.777344 158.289062 L 324.609375 158.289062 L 324.609375 127.457031 L 16.324219 127.457031 Z M 155.050781 327.847656 L 124.226562 327.847656 L 124.226562 173.707031 L 155.050781 173.707031 Z M 216.710938 327.847656 L 185.882812 327.847656 L 185.882812 173.707031 L 216.710938 173.707031 Z M 216.710938 327.847656 " fill-opacity="1" fill-rule="nonzero"/></g><path fill="#071952" d="M 332.570312 70.894531 L 258.09375 50.9375 L 258.140625 50.9375 C 262.550781 34.496094 252.800781 17.582031 236.339844 13.183594 L 206.554688 5.207031 C 190.117188 0.808594 173.195312 10.566406 168.785156 27 L 94.335938 7.058594 C 77.894531 2.660156 61.007812 12.417969 56.582031 28.871094 L 354.390625 108.648438 C 358.796875 92.207031 349.023438 75.289062 332.570312 70.894531 Z M 332.570312 70.894531 " fill-opacity="1" fill-rule="nonzero"/></svg>