<svg xmlns="http://www.w3.org/2000/svg" xmlns:xlink="http://www.w3.org/1999/xlink" width="500" zoomAndPan="magnify" viewBox="0 0 375 374.999991" height="500" preserveAspectRatio="xMidYMid meet" version="1.0"><defs><clipPath id="967e890627"><path d="M 3 4.980469 L 372 4.980469 L 372 370 L 3 370 Z M 3 4.980469 " clip-rule="nonzero"/></clipPath></defs><g clip-path="url(#967e890627)"><path fill="#071952" d="M 358.445312 321.6875 C 288.023438 321.257812 217.609375 321.929688 147.1875 321.347656 C 129.699219 319.542969 132.152344 297.886719 128.105469 285.355469 C 196.835938 285.328125 265.570312 285.355469 334.304688 285.355469 C 341.132812 286.308594 348.609375 282.113281 349.375 274.820312 C 356.511719 234.785156 363.402344 194.695312 370.382812 154.628906 C 374.917969 132.945312 356.203125 110.402344 334.023438 111.101562 C 319.300781 111.066406 304.578125 111.089844 289.851562 111.074219 L 289.851562 53.414062 L 202.179688 53.414062 L 202.179688 4.980469 L 122.847656 4.980469 L 122.847656 111.019531 C 112.238281 111.011719 101.625 111.027344 91.011719 111.011719 C 89.359375 92.054688 76.617188 73.429688 56.953125 70.125 C 42.28125 68.871094 27.398438 69.113281 12.664062 69.785156 C 1.605469 71.992188 0.046875 89.144531 10.703125 93.15625 C 24.914062 96.097656 39.742188 92.574219 54.074219 94.960938 C 60.476562 96.828125 64.457031 102.984375 65.226562 109.386719 C 79.746094 177.632812 94.234375 245.871094 108.871094 314.085938 C 112.457031 333.199219 131.140625 347.535156 150.527344 346.398438 C 151.015625 346.398438 151.5 346.398438 151.984375 346.398438 C 150.632812 353.179688 152.503906 360.621094 158.277344 365.148438 C 168.691406 374.980469 187.867188 368.519531 190.289062 354.429688 C 191.007812 351.683594 191.007812 348.96875 190.445312 346.398438 C 221.480469 346.40625 252.519531 346.398438 283.554688 346.398438 C 282.179688 353.199219 284.054688 360.660156 289.863281 365.179688 C 300.246094 374.949219 319.148438 368.578125 321.75 354.640625 C 322.542969 351.839844 322.546875 349.042969 321.96875 346.398438 C 333.226562 346.398438 344.492188 346.40625 355.75 346.398438 C 361.480469 347.011719 367.820312 344.285156 369.8125 338.558594 C 373.296875 330.933594 366.804688 321.289062 358.445312 321.6875 Z M 254.300781 260.550781 C 230.683594 260.550781 207.101562 260.519531 183.484375 260.550781 C 183.484375 243.886719 183.484375 227.253906 183.484375 210.589844 C 207.101562 210.46875 230.683594 210.53125 254.300781 210.5625 C 254.300781 227.226562 254.332031 243.886719 254.300781 260.550781 Z M 183.484375 185.753906 C 183.484375 169.125 183.484375 152.519531 183.484375 135.890625 C 207.066406 135.890625 230.683594 135.890625 254.265625 135.890625 C 254.296875 152.488281 254.328125 169.125 254.328125 185.753906 C 230.714844 185.753906 207.101562 185.71875 183.484375 185.753906 Z M 326.707031 260.550781 C 310.839844 260.550781 294.945312 260.550781 279.078125 260.550781 C 279.167969 243.886719 279.078125 227.195312 279.078125 210.53125 C 297.882812 210.5625 316.664062 210.5625 335.46875 210.53125 C 332.5625 227.195312 329.679688 243.886719 326.707031 260.550781 Z M 334 136.011719 C 340.710938 135.582031 346.925781 142.257812 345.976562 148.90625 C 344.507812 161.25 341.683594 173.410156 339.789062 185.695312 C 319.574219 185.785156 299.355469 185.753906 279.144531 185.753906 C 279.113281 169.125 279.054688 152.519531 279.085938 135.890625 C 297.394531 136.011719 315.710938 135.640625 334 136.011719 Z M 106.851562 185.753906 C 103.328125 169.125 99.742188 152.519531 96.222656 135.890625 C 117.019531 135.890625 137.820312 135.921875 158.644531 135.890625 C 158.675781 152.488281 158.617188 169.09375 158.644531 185.695312 C 141.371094 185.753906 124.121094 185.753906 106.851562 185.753906 Z M 112.175781 210.5625 C 127.648438 210.589844 143.140625 210.5 158.640625 210.53125 C 158.640625 227.226562 158.609375 243.886719 158.640625 260.550781 C 146.695312 260.550781 134.75 260.519531 122.804688 260.550781 C 119.226562 243.886719 115.730469 227.195312 112.175781 210.5625 Z M 112.175781 210.5625 " fill-opacity="1" fill-rule="nonzero"/></g></svg>