<svg xmlns="http://www.w3.org/2000/svg" xmlns:xlink="http://www.w3.org/1999/xlink" width="500" zoomAndPan="magnify" viewBox="0 0 375 374.999991" height="500" preserveAspectRatio="xMidYMid meet" version="1.0"><defs><clipPath id="aef465c3cb"><path d="M 34 0 L 340.734375 0 L 340.734375 374 L 34 374 Z M 34 0 " clip-rule="nonzero"/></clipPath></defs><g clip-path="url(#aef465c3cb)"><path fill="#071952" d="M 34.785156 50.90625 C 34.785156 22.789062 57.574219 0 85.691406 0 L 289.308594 0 C 317.425781 0 340.214844 22.789062 340.214844 50.90625 L 340.214844 356.335938 C 340.214844 362.0625 337.328125 367.402344 332.535156 370.535156 C 327.742188 373.667969 321.691406 374.175781 316.445312 371.882812 L 255.375 345.160156 L 194.300781 371.882812 C 189.964844 373.777344 185.035156 373.777344 180.699219 371.882812 L 119.625 345.160156 L 58.554688 371.882812 C 53.308594 374.175781 47.257812 373.667969 42.464844 370.535156 C 37.671875 367.402344 34.785156 362.0625 34.785156 356.335938 Z M 119.625 118.777344 C 119.625 81.292969 150.015625 50.90625 187.5 50.90625 C 224.984375 50.90625 255.375 81.292969 255.375 118.777344 C 255.375 156.261719 224.984375 186.652344 187.5 186.652344 C 150.015625 186.652344 119.625 156.261719 119.625 118.777344 Z M 204.46875 237.554688 L 94.175781 237.554688 L 94.175781 203.621094 L 204.46875 203.621094 Z M 94.175781 288.460938 L 204.46875 288.460938 L 204.46875 254.523438 L 94.175781 254.523438 Z M 280.824219 237.554688 L 246.890625 237.554688 L 246.890625 203.621094 L 280.824219 203.621094 Z M 246.890625 288.460938 L 280.824219 288.460938 L 280.824219 254.523438 L 246.890625 254.523438 Z M 246.890625 288.460938 " fill-opacity="1" fill-rule="evenodd"/></g></svg>