<svg xmlns="http://www.w3.org/2000/svg" xmlns:xlink="http://www.w3.org/1999/xlink" width="500" zoomAndPan="magnify" viewBox="0 0 375 374.999991" height="500" preserveAspectRatio="xMidYMid meet" version="1.0"><defs><clipPath id="c1bedd4c91"><path d="M 0 75 L 0 300 C 0 341.421875 33.578125 375 75 375 L 300 375 C 341.421875 375 375 341.421875 375 300 L 375 75 C 375 33.578125 341.421875 0 300 0 L 75 0 C 33.578125 0 0 33.578125 0 75 Z M 0 75 " clip-rule="nonzero"/></clipPath></defs><g clip-path="url(#c1bedd4c91)"><path fill="#ffffff" d="M 37.828125 0 L 336.707031 0 C 357.722656 0 375 17.277344 375 37.828125 L 375 336.707031 C 375 357.722656 357.722656 375 336.707031 375 L 37.828125 375 C 17.277344 375 0 357.722656 0 336.707031 L 0 37.828125 C 0 17.277344 17.277344 0 37.828125 0 Z M 187.265625 143.835938 L 254.515625 48.566406 L 315.222656 48.566406 L 217.621094 187.265625 L 315.222656 326.433594 L 254.515625 326.433594 L 187.265625 230.699219 L 120.484375 326.433594 L 59.777344 326.433594 L 156.910156 187.265625 L 59.777344 48.566406 L 120.484375 48.566406 Z M 187.265625 143.835938 " fill-opacity="1" fill-rule="evenodd"/></g></svg>