<svg xmlns="http://www.w3.org/2000/svg" xmlns:xlink="http://www.w3.org/1999/xlink" width="500" zoomAndPan="magnify" viewBox="0 0 375 374.999991" height="500" preserveAspectRatio="xMidYMid meet" version="1.0"><defs><clipPath id="84a4fcd2c0"><path d="M 19.589844 47.566406 L 320.941406 47.566406 L 320.941406 348.921875 L 19.589844 348.921875 Z M 19.589844 47.566406 " clip-rule="nonzero"/></clipPath><clipPath id="420a793b3d"><path d="M 170.265625 47.566406 C 87.046875 47.566406 19.589844 115.027344 19.589844 198.242188 C 19.589844 281.460938 87.046875 348.921875 170.265625 348.921875 C 253.484375 348.921875 320.941406 281.460938 320.941406 198.242188 C 320.941406 115.027344 253.484375 47.566406 170.265625 47.566406 Z M 170.265625 47.566406 " clip-rule="nonzero"/></clipPath><clipPath id="1b38fc78c4"><path d="M 0 27.976562 L 340.5 27.976562 L 340.5 368.476562 L 0 368.476562 Z M 0 27.976562 " clip-rule="nonzero"/></clipPath><clipPath id="fd4a5eee64"><path d="M 233.839844 6.492188 L 375 6.492188 L 375 147.652344 L 233.839844 147.652344 Z M 233.839844 6.492188 " clip-rule="nonzero"/></clipPath><clipPath id="808bafcc32"><path d="M 304.417969 6.492188 C 265.4375 6.492188 233.839844 38.09375 233.839844 77.074219 C 233.839844 116.054688 265.4375 147.652344 304.417969 147.652344 C 343.398438 147.652344 375 116.054688 375 77.074219 C 375 38.09375 343.398438 6.492188 304.417969 6.492188 Z M 304.417969 6.492188 " clip-rule="nonzero"/></clipPath><clipPath id="e3ed43c5b9"><path d="M 233.839844 6.492188 L 374.839844 6.492188 L 374.839844 147.492188 L 233.839844 147.492188 Z M 233.839844 6.492188 " clip-rule="nonzero"/></clipPath><clipPath id="d5919fb0f7"><path d="M 304.414062 6.492188 C 265.4375 6.492188 233.839844 38.089844 233.839844 77.066406 C 233.839844 116.046875 265.4375 147.644531 304.414062 147.644531 C 343.394531 147.644531 374.992188 116.046875 374.992188 77.066406 C 374.992188 38.089844 343.394531 6.492188 304.414062 6.492188 Z M 304.414062 6.492188 " clip-rule="nonzero"/></clipPath></defs><g clip-path="url(#84a4fcd2c0)"><g clip-path="url(#420a793b3d)"><path fill="#fcfffe" d="M 19.589844 47.566406 L 320.941406 47.566406 L 320.941406 348.921875 L 19.589844 348.921875 Z M 19.589844 47.566406 " fill-opacity="1" fill-rule="nonzero"/></g></g><path fill="#071952" d="M 117.398438 288.488281 C 117.398438 288.964844 117.351562 289.4375 117.261719 289.90625 C 117.167969 290.375 117.027344 290.828125 116.847656 291.269531 C 116.664062 291.710938 116.441406 292.128906 116.175781 292.527344 C 115.910156 292.921875 115.609375 293.289062 115.269531 293.628906 C 114.933594 293.964844 114.566406 294.265625 114.167969 294.53125 C 113.773438 294.796875 113.351562 295.019531 112.910156 295.203125 C 112.472656 295.386719 112.015625 295.523438 111.546875 295.617188 C 111.082031 295.710938 110.605469 295.757812 110.128906 295.757812 C 109.652344 295.757812 109.179688 295.710938 108.710938 295.617188 C 108.242188 295.523438 107.789062 295.386719 107.347656 295.203125 C 106.90625 295.019531 106.488281 294.796875 106.089844 294.53125 C 105.695312 294.265625 105.328125 293.964844 104.988281 293.628906 C 104.652344 293.289062 104.351562 292.921875 104.085938 292.527344 C 103.820312 292.128906 103.597656 291.710938 103.414062 291.269531 C 103.230469 290.828125 103.09375 290.375 103 289.90625 C 102.90625 289.4375 102.859375 288.964844 102.859375 288.488281 C 102.859375 288.011719 102.90625 287.539062 103 287.070312 C 103.09375 286.601562 103.230469 286.148438 103.414062 285.707031 C 103.597656 285.265625 103.820312 284.84375 104.085938 284.449219 C 104.351562 284.050781 104.652344 283.683594 104.988281 283.347656 C 105.328125 283.007812 105.695312 282.707031 106.089844 282.441406 C 106.488281 282.179688 106.90625 281.953125 107.347656 281.769531 C 107.789062 281.589844 108.242188 281.449219 108.710938 281.359375 C 109.179688 281.265625 109.652344 281.21875 110.128906 281.21875 C 110.605469 281.21875 111.082031 281.265625 111.546875 281.359375 C 112.015625 281.449219 112.472656 281.589844 112.910156 281.769531 C 113.351562 281.953125 113.773438 282.179688 114.167969 282.441406 C 114.566406 282.707031 114.933594 283.007812 115.269531 283.347656 C 115.609375 283.683594 115.910156 284.050781 116.175781 284.449219 C 116.441406 284.84375 116.664062 285.265625 116.847656 285.707031 C 117.027344 286.148438 117.167969 286.601562 117.261719 287.070312 C 117.351562 287.539062 117.398438 288.011719 117.398438 288.488281 Z M 117.398438 288.488281 " fill-opacity="1" fill-rule="nonzero"/><path fill="#071952" d="M 236.714844 288.488281 C 236.714844 288.964844 236.667969 289.4375 236.574219 289.90625 C 236.484375 290.375 236.34375 290.828125 236.160156 291.269531 C 235.980469 291.710938 235.753906 292.128906 235.488281 292.527344 C 235.226562 292.921875 234.921875 293.289062 234.585938 293.628906 C 234.25 293.964844 233.882812 294.265625 233.484375 294.53125 C 233.085938 294.796875 232.667969 295.019531 232.226562 295.203125 C 231.785156 295.386719 231.332031 295.523438 230.863281 295.617188 C 230.394531 295.710938 229.921875 295.757812 229.445312 295.757812 C 228.96875 295.757812 228.496094 295.710938 228.027344 295.617188 C 227.558594 295.523438 227.105469 295.386719 226.664062 295.203125 C 226.222656 295.019531 225.804688 294.796875 225.40625 294.53125 C 225.011719 294.265625 224.644531 293.964844 224.304688 293.628906 C 223.96875 293.289062 223.667969 292.921875 223.402344 292.527344 C 223.136719 292.128906 222.910156 291.710938 222.730469 291.269531 C 222.546875 290.828125 222.410156 290.375 222.316406 289.90625 C 222.222656 289.4375 222.175781 288.964844 222.175781 288.488281 C 222.175781 288.011719 222.222656 287.539062 222.316406 287.070312 C 222.410156 286.601562 222.546875 286.148438 222.730469 285.707031 C 222.910156 285.265625 223.136719 284.84375 223.402344 284.449219 C 223.667969 284.050781 223.96875 283.683594 224.304688 283.347656 C 224.644531 283.007812 225.011719 282.707031 225.40625 282.441406 C 225.804688 282.179688 226.222656 281.953125 226.664062 281.769531 C 227.105469 281.589844 227.558594 281.449219 228.027344 281.359375 C 228.496094 281.265625 228.96875 281.21875 229.445312 281.21875 C 229.921875 281.21875 230.394531 281.265625 230.863281 281.359375 C 231.332031 281.449219 231.785156 281.589844 232.226562 281.769531 C 232.667969 281.953125 233.085938 282.179688 233.484375 282.441406 C 233.882812 282.707031 234.25 283.007812 234.585938 283.347656 C 234.921875 283.683594 235.226562 284.050781 235.488281 284.449219 C 235.753906 284.84375 235.980469 285.265625 236.160156 285.707031 C 236.34375 286.148438 236.484375 286.601562 236.574219 287.070312 C 236.667969 287.539062 236.714844 288.011719 236.714844 288.488281 Z M 236.714844 288.488281 " fill-opacity="1" fill-rule="nonzero"/><g clip-path="url(#1b38fc78c4)"><path fill="#071952" d="M 170.230469 27.875 C 76.226562 27.875 0.0195312 104.085938 0.0195312 198.089844 C 0.0195312 292.089844 76.226562 368.308594 170.230469 368.308594 C 264.238281 368.308594 340.449219 292.09375 340.449219 198.089844 C 340.449219 104.085938 264.238281 27.875 170.230469 27.875 Z M 123.714844 263.558594 L 229.445312 263.558594 C 243.191406 263.558594 254.371094 274.742188 254.371094 288.488281 C 254.371094 302.230469 243.191406 313.417969 229.445312 313.417969 C 215.699219 313.417969 204.515625 302.230469 204.515625 288.488281 C 204.515625 285.960938 204.898438 283.519531 205.601562 281.21875 L 133.96875 281.21875 C 134.671875 283.519531 135.058594 285.957031 135.058594 288.488281 C 135.058594 302.230469 123.878906 313.417969 110.128906 313.417969 C 96.382812 313.417969 85.203125 302.230469 85.203125 288.488281 C 85.203125 276.207031 94.132812 266 105.839844 263.957031 L 101.457031 239.820312 L 101.410156 239.589844 L 78.164062 124.558594 L 56.808594 124.699219 L 56.691406 107.042969 L 92.59375 106.804688 L 101.28125 149.792969 L 262.238281 169.089844 L 241.792969 247 L 120.707031 247 Z M 123.714844 263.558594 " fill-opacity="1" fill-rule="nonzero"/></g><g clip-path="url(#fd4a5eee64)"><g clip-path="url(#808bafcc32)"><path fill="#d9f203" d="M 233.839844 6.492188 L 375 6.492188 L 375 147.652344 L 233.839844 147.652344 Z M 233.839844 6.492188 " fill-opacity="1" fill-rule="nonzero"/></g></g><g clip-path="url(#e3ed43c5b9)"><g clip-path="url(#d5919fb0f7)"><path stroke-linecap="butt" transform="matrix(0.75, 0, 0, 0.75, 233.83918, 6.491986)" fill="none" stroke-linejoin="miter" d="M 94.09985 0.000268488 C 42.131097 0.000268488 0.000885607 42.13048 0.000885607 94.099233 C 0.000885607 146.073195 42.131097 188.203406 94.09985 188.203406 C 146.073812 188.203406 188.204023 146.073195 188.204023 94.099233 C 188.204023 42.13048 146.073812 0.000268488 94.09985 0.000268488 Z M 94.09985 0.000268488 " stroke="#071952" stroke-width="20" stroke-opacity="1" stroke-miterlimit="4"/></g></g></svg>