<svg xmlns="http://www.w3.org/2000/svg" xmlns:xlink="http://www.w3.org/1999/xlink" width="500" zoomAndPan="magnify" viewBox="0 0 375 374.999991" height="500" preserveAspectRatio="xMidYMid meet" version="1.0"><defs><clipPath id="fc69213db0"><path d="M 18.75 27.921875 L 356.25 27.921875 L 356.25 365.421875 L 18.75 365.421875 Z M 18.75 27.921875 " clip-rule="nonzero"/></clipPath><clipPath id="47d7d67d03"><path d="M 187.5 27.921875 C 94.300781 27.921875 18.75 103.472656 18.75 196.671875 C 18.75 289.867188 94.300781 365.421875 187.5 365.421875 C 280.699219 365.421875 356.25 289.867188 356.25 196.671875 C 356.25 103.472656 280.699219 27.921875 187.5 27.921875 Z M 187.5 27.921875 " clip-rule="nonzero"/></clipPath></defs><g clip-path="url(#fc69213db0)"><g clip-path="url(#47d7d67d03)"><path fill="#fcfffe" d="M 18.75 27.921875 L 356.25 27.921875 L 356.25 365.421875 L 18.75 365.421875 Z M 18.75 27.921875 " fill-opacity="1" fill-rule="nonzero"/></g></g><path fill="#071952" d="M 129.285156 286.886719 C 129.285156 287.410156 129.234375 287.933594 129.132812 288.449219 C 129.03125 288.964844 128.878906 289.464844 128.675781 289.949219 C 128.476562 290.433594 128.230469 290.898438 127.9375 291.332031 C 127.644531 291.769531 127.3125 292.175781 126.941406 292.546875 C 126.570312 292.917969 126.164062 293.25 125.726562 293.542969 C 125.289062 293.835938 124.828125 294.082031 124.34375 294.28125 C 123.859375 294.484375 123.359375 294.636719 122.84375 294.738281 C 122.328125 294.839844 121.804688 294.890625 121.28125 294.890625 C 120.753906 294.890625 120.234375 294.839844 119.71875 294.738281 C 119.203125 294.636719 118.703125 294.484375 118.214844 294.28125 C 117.730469 294.082031 117.269531 293.835938 116.832031 293.542969 C 116.394531 293.25 115.992188 292.917969 115.621094 292.546875 C 115.246094 292.175781 114.914062 291.769531 114.625 291.332031 C 114.332031 290.898438 114.085938 290.433594 113.882812 289.949219 C 113.683594 289.464844 113.53125 288.964844 113.429688 288.449219 C 113.324219 287.933594 113.273438 287.410156 113.273438 286.886719 C 113.273438 286.359375 113.324219 285.839844 113.429688 285.324219 C 113.53125 284.808594 113.683594 284.308594 113.882812 283.824219 C 114.085938 283.335938 114.332031 282.875 114.625 282.4375 C 114.914062 282 115.246094 281.597656 115.621094 281.226562 C 115.992188 280.855469 116.394531 280.523438 116.832031 280.230469 C 117.269531 279.9375 117.730469 279.691406 118.214844 279.488281 C 118.703125 279.289062 119.203125 279.136719 119.71875 279.035156 C 120.234375 278.933594 120.753906 278.878906 121.28125 278.878906 C 121.804688 278.878906 122.328125 278.933594 122.84375 279.035156 C 123.359375 279.136719 123.859375 279.289062 124.34375 279.488281 C 124.828125 279.691406 125.289062 279.9375 125.726562 280.230469 C 126.164062 280.523438 126.570312 280.855469 126.941406 281.226562 C 127.3125 281.597656 127.644531 282 127.9375 282.4375 C 128.230469 282.875 128.476562 283.335938 128.675781 283.824219 C 128.878906 284.308594 129.03125 284.808594 129.132812 285.324219 C 129.234375 285.839844 129.285156 286.359375 129.285156 286.886719 Z M 129.285156 286.886719 " fill-opacity="1" fill-rule="nonzero"/><path fill="#071952" d="M 260.683594 286.886719 C 260.683594 287.410156 260.628906 287.933594 260.527344 288.449219 C 260.425781 288.964844 260.273438 289.464844 260.074219 289.949219 C 259.871094 290.433594 259.625 290.898438 259.332031 291.332031 C 259.039062 291.769531 258.707031 292.175781 258.335938 292.546875 C 257.964844 292.917969 257.5625 293.25 257.125 293.542969 C 256.6875 293.835938 256.226562 294.082031 255.738281 294.28125 C 255.253906 294.484375 254.753906 294.636719 254.238281 294.738281 C 253.722656 294.839844 253.203125 294.890625 252.675781 294.890625 C 252.152344 294.890625 251.628906 294.839844 251.113281 294.738281 C 250.597656 294.636719 250.097656 294.484375 249.613281 294.28125 C 249.125 294.082031 248.664062 293.835938 248.226562 293.542969 C 247.792969 293.25 247.386719 292.917969 247.015625 292.546875 C 246.644531 292.175781 246.3125 291.769531 246.019531 291.332031 C 245.726562 290.898438 245.480469 290.433594 245.28125 289.949219 C 245.078125 289.464844 244.925781 288.964844 244.824219 288.449219 C 244.722656 287.933594 244.671875 287.410156 244.671875 286.886719 C 244.671875 286.359375 244.722656 285.839844 244.824219 285.324219 C 244.925781 284.808594 245.078125 284.308594 245.28125 283.824219 C 245.480469 283.335938 245.726562 282.875 246.019531 282.4375 C 246.3125 282 246.644531 281.597656 247.015625 281.226562 C 247.386719 280.855469 247.792969 280.523438 248.226562 280.230469 C 248.664062 279.9375 249.125 279.691406 249.613281 279.488281 C 250.097656 279.289062 250.597656 279.136719 251.113281 279.035156 C 251.628906 278.933594 252.152344 278.878906 252.675781 278.878906 C 253.203125 278.878906 253.722656 278.933594 254.238281 279.035156 C 254.753906 279.136719 255.253906 279.289062 255.738281 279.488281 C 256.226562 279.691406 256.6875 279.9375 257.125 280.230469 C 257.5625 280.523438 257.964844 280.855469 258.335938 281.226562 C 258.707031 281.597656 259.039062 282 259.332031 282.4375 C 259.625 282.875 259.871094 283.335938 260.074219 283.824219 C 260.273438 284.308594 260.425781 284.808594 260.527344 285.324219 C 260.628906 285.839844 260.683594 286.359375 260.683594 286.886719 Z M 260.683594 286.886719 " fill-opacity="1" fill-rule="nonzero"/><path fill="#071952" d="M 187.46875 -0.113281 C 83.945312 -0.113281 0.0234375 83.816406 0.0234375 187.335938 C 0.0234375 290.851562 83.945312 374.789062 187.46875 374.789062 C 290.992188 374.789062 374.917969 290.855469 374.917969 187.335938 C 374.917969 83.8125 290.992188 -0.113281 187.46875 -0.113281 Z M 136.242188 259.433594 L 252.675781 259.433594 C 267.8125 259.433594 280.125 271.75 280.125 286.886719 C 280.125 302.023438 267.8125 314.339844 252.675781 314.339844 C 237.535156 314.339844 225.21875 302.023438 225.21875 286.886719 C 225.21875 284.101562 225.644531 281.414062 226.417969 278.878906 L 147.535156 278.878906 C 148.308594 281.414062 148.734375 284.097656 148.734375 286.886719 C 148.734375 302.023438 136.417969 314.339844 121.28125 314.339844 C 106.140625 314.339844 93.828125 302.023438 93.828125 286.886719 C 93.828125 273.363281 103.664062 262.121094 116.554688 259.871094 L 111.730469 233.289062 L 111.675781 233.039062 L 86.078125 106.359375 L 62.558594 106.515625 L 62.429688 87.070312 L 101.96875 86.808594 L 111.539062 134.148438 L 288.789062 155.398438 L 266.273438 241.199219 L 132.929688 241.199219 Z M 136.242188 259.433594 " fill-opacity="1" fill-rule="nonzero"/></svg>