<svg xmlns="http://www.w3.org/2000/svg" xmlns:xlink="http://www.w3.org/1999/xlink" preserveAspectRatio="xMidYMid meet" version="1.0" viewBox="1.0 1.0 510.0 510.0" zoomAndPan="magnify" style="fill: rgb(0, 0, 0);" original_string_length="1661"><g><g><g id="__id1275_sgqetwg4zn"><circle cx="256" cy="256" r="240" style="fill: rgb(7, 25, 82);"/></g><g id="__id1276_sgqetwg4zn"><path d="M271,421l-120-60V121l120,60C271,186.788,271,401.353,271,421z" style="fill: rgb(246, 244, 243);"/></g><g id="__id1277_sgqetwg4zn" style="fill: rgb(246, 244, 243);"><path d="M256,1C115.049,1,1,115.068,1,256c0,140.951,114.068,255,255,255c140.951,0,255-114.068,255-255 C511,115.049,396.932,1,256,1z M256,481C131.935,481,31,380.065,31,256S131.935,31,256,31s225,100.935,225,225 S380.065,481,256,481z" style="fill: inherit;"/><path d="M331,271c-8.284,0-15,6.716-15,15v60h-30V181c0-5.682-3.21-10.876-8.292-13.416L214.54,136H316v30 c0,8.284,6.716,15,15,15s15-6.716,15-15v-45c0-8.284-6.716-15-15-15H151.581c-8.328-0.323-15.581,6.348-15.581,15v240 c0,5.682,3.21,10.876,8.292,13.416l120,60C274.255,439.397,286,432.136,286,421v-45h45c8.284,0,15-6.716,15-15v-75 C346,277.716,339.284,271,331,271z M256,396.729l-90-45V145.271l90,45V396.729z" style="fill: inherit;"/><path d="M431.604,215.391l-29.998-29.997c-5.857-5.857-15.355-5.857-21.213,0 c-5.858,5.857-5.858,15.355,0,21.213l4.394,4.394H331c-8.284,0-15,6.716-15,15s6.716,15,15,15h53.787l-4.394,4.394 C370.917,254.869,377.756,271,391,271c3.839,0,7.678-1.465,10.606-4.394l29.998-29.997 C437.404,230.809,437.493,221.28,431.604,215.391z" style="fill: inherit;"/></g></g></g></svg>