<svg xmlns="http://www.w3.org/2000/svg" xmlns:xlink="http://www.w3.org/1999/xlink" data-name="Layer 1" preserveAspectRatio="xMidYMid meet" version="1.0" viewBox="42.8 39.0 114.5 121.8" zoomAndPan="magnify" style="fill: rgb(0, 0, 0);" original_string_length="2658"><g id="__id5376_suzxdxf2s"><path d="M144.79,53.16578H94.37l.92,2.12a11.54,11.54,0,0,1,.7,2.88h48.8a7.458,7.458,0,0,1,7.46,7.45v53.69a7.46646,7.46646,0,0,1-7.46,7.46H107.32a8.4777,8.4777,0,0,0-6.06,2.52l-26.08,26.29a.43822.43822,0,0,1-.57.1.50223.50223,0,0,1-.31-.47v-25.94a2.50094,2.50094,0,0,0-2.5-2.5H55.21a7.46646,7.46646,0,0,1-7.46-7.46v-53.69a7.458,7.458,0,0,1,7.46-7.45h7.53a21.5342,21.5342,0,0,1,.28-3.31c.09-.57.21-1.13.35-1.69H55.21a12.4662,12.4662,0,0,0-12.46,12.45v53.69a12.4747,12.4747,0,0,0,12.46,12.46H69.3v23.44a5.4599,5.4599,0,0,0,3.38,5.08,5.3572,5.3572,0,0,0,2.14.44,5.46761,5.46761,0,0,0,3.91-1.63l26.08-26.28a3.49338,3.49338,0,0,1,2.51-1.05h37.47a12.4747,12.4747,0,0,0,12.46-12.46v-53.69A12.4662,12.4662,0,0,0,144.79,53.16578Z" style="fill: rgb(7, 25, 82);"/></g><g id="__id5377_suzxdxf2s"><path d="M80.89063,92.39716l.00977.01318a109.177,109.177,0,0,0,21.583,22.07764,20.7707,20.7707,0,0,0,6.08789,3.19824,19.19992,19.19992,0,0,0,5.99121.91992c5.88379,0,11.92579-2.416,15.168-6.47168.00586-.00781.06738-.084.07324-.09082a8.1666,8.1666,0,0,0,1.72656-6.55664,9.35638,9.35638,0,0,0-3.42871-5.64014l-8.95605-7.8374c-.0293-.02539-.05859-.0498-.08887-.07373a9.01646,9.01646,0,0,0-12.64941,1.416l-1.10645,1.38232A90.80911,90.80911,0,0,1,86.1123,68.45429l1.66357-.63525a9.01126,9.01126,0,0,0,5.19043-11.62012c-.01318-.03369-.02686-.06738-.041-.10059l-4.729-10.9248a9.36248,9.36248,0,0,0-4.33252-4.98242,8.2146,8.2146,0,0,0-6.85107-.32227c-5.56494,2.11963-10.41016,8.5918-11.52051,15.38916a19.66571,19.66571,0,0,0,.90967,9.75049A109.14726,109.14726,0,0,0,80.89063,92.39716Zm-10.46387-36.333C71.33594,50.4997,75.394,45.83564,78.876,44.50947a3.19735,3.19735,0,0,1,2.67871.11621,4.39361,4.39361,0,0,1,1.99121,2.38477c.01318.03467.02686.06885.0415.10254l4.72509,10.916A4.0099,4.0099,0,0,1,85.9873,63.1496l-4.17187,1.59375a2.49981,2.49981,0,0,0-1.38721,3.3623,96.053,96.053,0,0,0,23.47412,32.14795,2.49986,2.49986,0,0,0,3.624-.29736l2.78613-3.48291a4.01225,4.01225,0,0,1,5.58887-.65869l8.94727,7.82959c.0293.02539.05859.0498.08789.07422a4.3803,4.3803,0,0,1,1.666,2.61914,3.16964,3.16964,0,0,1-.68848,2.56348c-.00488.00684-.06738.083-.07324.08984-2.752,3.44238-9.90625,5.90039-15.7627,3.92676a3.063,3.063,0,0,0-.46973-.11816,21.4345,21.4345,0,0,1-3.68164-1.92773,2.58306,2.58306,0,0,0-.31543-.28711A103.00644,103.00644,0,0,1,71.11084,63.3288,14.65622,14.65622,0,0,1,70.42676,56.06416Z" style="fill: rgb(7, 25, 82);"/></g></svg>